<svg width="22" height="22" viewBox="0 0 22 22" fill="none" xmlns="http://www.w3.org/2000/svg">
<g clip-path="url(#clip0_8_8316)">
<path d="M19.0213 13.9026L16.0421 10.9234H9.09071C8.82734 10.9234 8.57475 10.8188 8.38852 10.6326C8.20228 10.4464 8.09766 10.1938 8.09766 9.93039V3.97206C8.09766 3.70868 8.20228 3.4561 8.38852 3.26986C8.57475 3.08363 8.82734 2.979 9.09071 2.979H18.0282C18.2916 2.979 18.5442 3.08363 18.7304 3.26986C18.9166 3.4561 19.0213 3.70868 19.0213 3.97206V13.9026Z" stroke="#3F3A64" stroke-width="2" stroke-linecap="round" stroke-linejoin="round"/>
<path d="M12.0701 14.8959V16.8821C12.0701 17.1454 11.9655 17.398 11.7792 17.5843C11.593 17.7705 11.3404 17.8751 11.077 17.8751H4.12565L1.14648 20.8543V10.9237C1.14648 10.6603 1.25111 10.4078 1.43734 10.2215C1.62358 10.0353 1.87617 9.93066 2.13954 9.93066H4.12565" stroke="#20AD96" stroke-width="2" stroke-linecap="round" stroke-linejoin="round"/>
</g>
<defs>
<clipPath id="clip0_8_8316">
<rect width="22" height="22" fill="white"/>
</clipPath>
</defs>
</svg>
