<svg width="22" height="22" viewBox="0 0 22 22" fill="none" xmlns="http://www.w3.org/2000/svg">
<g clip-path="url(#clip0_8_8347)">
<path d="M16.3185 15.8512C16.3185 15.8512 16.3891 15.8008 16.5018 15.7146C18.1913 14.4084 19.25 12.5154 19.25 10.408C19.25 6.47918 15.5558 3.29102 11.0018 3.29102C6.446 3.29102 2.75 6.47918 2.75 10.408C2.75 14.3387 6.44417 17.4169 11 17.4169C11.3887 17.4169 12.0267 17.3912 12.914 17.3399C14.0708 18.0915 15.7593 18.7084 17.237 18.7084C17.6944 18.7084 17.9098 18.3326 17.6165 17.9494C17.171 17.4031 16.5568 16.5277 16.3185 15.8503V15.8512Z" stroke="#1D4EA0" stroke-width="2" stroke-linecap="round" stroke-linejoin="round"/>
<path d="M6.875 12.375C9.16667 14.6667 12.8333 14.6667 15.125 12.375" stroke="#20AD96" stroke-width="1.5" stroke-linecap="round" stroke-linejoin="round"/>
</g>
<defs>
<clipPath id="clip0_8_8347">
<rect width="22" height="22" fill="white"/>
</clipPath>
</defs>
</svg>
