<svg width="22" height="22" viewBox="0 0 22 22" fill="none" xmlns="http://www.w3.org/2000/svg">
<g clip-path="url(#clip0_8_8338)">
<path d="M10.9997 2.75016C12.2911 2.74988 13.5646 3.05278 14.7176 3.63448C15.8706 4.21619 16.8709 5.06046 17.6381 6.09933C18.4053 7.13821 18.9178 8.34268 19.1345 9.6158C19.3512 10.8889 19.266 12.1951 18.8858 13.4293C19.2305 14.193 19.3346 15.0436 19.184 15.8678C19.0334 16.6921 18.6354 17.4509 18.043 18.0434C17.4505 18.6359 16.6916 19.0339 15.8674 19.1845C15.0431 19.335 14.1925 19.231 13.4289 18.8862C11.995 19.3285 10.4676 19.3714 9.01123 19.0102C7.55481 18.649 6.22448 17.8975 5.16344 16.8364C4.1024 15.7754 3.35083 14.445 2.98964 12.9886C2.62845 11.5322 2.67131 10.0049 3.11361 8.57099C2.76855 7.80728 2.6643 6.95658 2.81473 6.13214C2.96515 5.3077 3.36313 4.54863 3.95567 3.95599C4.54821 3.36335 5.30721 2.96525 6.13162 2.81468C6.95604 2.66412 7.80676 2.76823 8.57053 3.11316C9.35757 2.87145 10.1764 2.74909 10.9997 2.75016V2.75016Z" stroke="#3F3A64" stroke-width="2" stroke-linecap="round" stroke-linejoin="round"/>
<path d="M7.33301 13.2915C7.79134 15.1248 9.49451 15.5832 10.9997 15.5832C13.6626 15.5832 14.6663 14.4951 14.6663 13.2915C14.6663 11.9138 12.8999 10.9998 10.9997 10.9998C9.09942 10.9998 7.33301 10.0859 7.33301 8.70817C7.33301 7.50459 8.33676 6.4165 10.9997 6.4165C12.5048 6.4165 14.208 6.87484 14.6663 8.70817" stroke="#20AD96" stroke-width="2" stroke-linecap="round" stroke-linejoin="round"/>
</g>
<defs>
<clipPath id="clip0_8_8338">
<rect width="22" height="22" fill="white"/>
</clipPath>
</defs>
</svg>
