<svg width="118" height="55" viewBox="0 0 118 55" fill="none" xmlns="http://www.w3.org/2000/svg">
<path opacity="0.776" fill-rule="evenodd" clip-rule="evenodd" d="M89.2445 0.654786C88.6104 0.9493 87.928 1.13637 87.1971 1.21601C87.8045 0.829097 88.487 0.642022 89.2445 0.654786Z" fill="#1D4EA0"/>
<path opacity="0.729" fill-rule="evenodd" clip-rule="evenodd" d="M86.8249 1.40305C86.7369 1.66614 86.5507 1.79085 86.2665 1.7772C86.3546 1.51411 86.5407 1.3894 86.8249 1.40305Z" fill="#1D4EA0"/>
<path fill-rule="evenodd" clip-rule="evenodd" d="M94.642 2.7126C94.6863 3.06886 94.8724 3.31829 95.2003 3.4609C95.526 3.67779 95.7122 3.98957 95.7587 4.39627C96.1819 5.6015 96.3681 6.84865 96.3171 8.13777C96.2022 8.15848 96.1092 8.22083 96.0379 8.32484C95.9454 8.75695 95.9145 9.19347 95.9448 9.63437C95.4512 9.75625 95.1411 10.068 95.0142 10.5697C94.9051 10.5306 94.8121 10.4682 94.735 10.3827C94.5528 10.7232 94.2736 10.9415 93.8975 11.0374C94.6055 11.317 94.5435 11.4729 93.7114 11.5051C93.6494 11.8793 93.5872 12.2534 93.5253 12.6276C92.877 13.1395 92.1325 13.4513 91.2918 13.5629C89.9663 13.6238 88.6634 13.4991 87.3833 13.1888C87.0756 13.1589 86.8275 13.0342 86.6388 12.8146C86.5508 12.5516 86.3647 12.4268 86.0805 12.4405C85.6462 11.8793 85.1499 11.3804 84.5915 10.9439C84.6051 10.6582 84.4809 10.4712 84.2193 10.3827C83.4085 9.05427 83.1604 7.62002 83.4748 6.07995C83.8117 5.58513 83.9978 5.02391 84.0331 4.39627C84.3172 4.28315 84.5033 4.06489 84.5915 3.74151C84.7679 3.65119 84.9541 3.62 85.1499 3.64797C85.2118 3.27382 85.274 2.89967 85.336 2.52552C85.7546 2.41706 86.0646 2.16763 86.2666 1.77722C86.5508 1.79088 86.7369 1.66616 86.8249 1.40307C86.8886 1.24626 87.0126 1.1839 87.1972 1.216C87.9281 1.13636 88.6104 0.949289 89.2445 0.654775C91.399 0.340895 93.1982 1.02684 94.642 2.7126Z" fill="#1D4EA0"/>
<path opacity="0.808" fill-rule="evenodd" clip-rule="evenodd" d="M86.2665 1.77722C86.0646 2.16763 85.7545 2.41706 85.3359 2.52552C85.5379 2.13511 85.848 1.88569 86.2665 1.77722Z" fill="#1D4EA0"/>
<path opacity="0.804" fill-rule="evenodd" clip-rule="evenodd" d="M94.642 2.71259C94.9699 2.85519 95.156 3.10462 95.2003 3.46088C94.8724 3.31828 94.6863 3.06885 94.642 2.71259Z" fill="#1D4EA0"/>
<path opacity="0.973" fill-rule="evenodd" clip-rule="evenodd" d="M85.336 2.52551C85.274 2.89966 85.2118 3.27381 85.1499 3.64796C84.9541 3.61999 84.7679 3.65118 84.5915 3.7415C84.5033 4.06488 84.3172 4.28314 84.0331 4.39626C84.2846 3.64018 84.719 3.0166 85.336 2.52551Z" fill="#1D4EA0"/>
<path opacity="0.914" fill-rule="evenodd" clip-rule="evenodd" d="M95.7587 4.39624C96.457 5.57515 96.6431 6.82232 96.317 8.13774C96.368 6.84862 96.1819 5.60147 95.7587 4.39624Z" fill="#1D4EA0"/>
<path opacity="0.741" fill-rule="evenodd" clip-rule="evenodd" d="M84.0332 4.39624C83.9978 5.02388 83.8117 5.5851 83.4748 6.07991C83.48 5.44079 83.6661 4.87957 84.0332 4.39624Z" fill="#1D4EA0"/>
<path opacity="0.047" fill-rule="evenodd" clip-rule="evenodd" d="M98.7366 5.51869C98.4241 5.47851 98.238 5.60323 98.1782 5.89284C98.01 5.76021 97.948 5.57313 97.9921 5.33162C98.2897 5.28152 98.5378 5.34387 98.7366 5.51869Z" fill="#1D4EA0"/>
<path opacity="0.996" fill-rule="evenodd" clip-rule="evenodd" d="M99.481 5.89288C100.502 6.2496 101.432 6.74845 102.273 7.38948C101.172 7.21904 100.18 6.81372 99.2949 6.1735C99.3984 6.10192 99.4604 6.00838 99.481 5.89288Z" fill="#1D4EA0"/>
<path opacity="0.973" fill-rule="evenodd" clip-rule="evenodd" d="M102.273 7.38947C102.833 7.60821 103.33 7.92001 103.762 8.32484C103.029 8.35384 102.533 8.04206 102.273 7.38947Z" fill="#1D4EA0"/>
<path opacity="0.894" fill-rule="evenodd" clip-rule="evenodd" d="M96.317 8.13776C96.3554 8.69806 96.2314 9.19692 95.9448 9.63435C95.9145 9.19346 95.9454 8.75694 96.0379 8.32483C96.1091 8.22082 96.2022 8.15847 96.317 8.13776Z" fill="#1D4EA0"/>
<path fill-rule="evenodd" clip-rule="evenodd" d="M98.7366 5.5187C99.0442 5.54855 99.2923 5.67328 99.4811 5.89285C99.4604 6.00835 99.3984 6.10188 99.2949 6.17346C100.18 6.81368 101.172 7.219 102.273 7.38944C102.533 8.04204 103.029 8.35382 103.762 8.32482C104.44 8.75829 105.061 9.25716 105.623 9.82142C105.623 10.1956 105.809 10.3826 106.181 10.3826C106.367 10.445 106.492 10.5697 106.554 10.7568C106.725 11.2412 107.035 11.6153 107.484 11.8792C107.753 12.701 108.249 13.3245 108.973 13.75C108.96 14.0356 109.084 14.2227 109.345 14.3112C109.332 14.5969 109.456 14.7839 109.718 14.8724C110.043 15.0893 110.229 15.4011 110.276 15.8078C110.262 16.0935 110.387 16.2805 110.648 16.369C111.161 17.1017 111.534 17.9123 111.765 18.801C111.705 19.0906 111.519 19.2154 111.207 19.1752C110.242 18.9626 109.25 18.9626 108.229 19.1752C107.587 19.1018 106.998 19.2266 106.461 19.5493C106.367 19.487 106.274 19.4245 106.181 19.3622C106.549 19.2173 106.704 18.9677 106.647 18.6139C106.03 18.1644 105.379 17.7902 104.692 17.4915C104.66 17.1189 104.785 16.8071 105.065 16.5561C104.906 15.9739 104.689 15.9115 104.413 16.369C104.322 16.1271 104.291 15.8777 104.32 15.6207C103.795 15.6552 103.485 15.4057 103.39 14.8724C102.887 14.612 102.391 14.3626 101.901 14.1241C101.759 13.7944 101.511 13.6074 101.156 13.5629C100.97 13.5006 100.846 13.3758 100.784 13.1888C100.411 12.2389 99.728 11.8024 98.7366 11.8792C98.6485 11.6162 98.4624 11.4914 98.1782 11.5051C97.779 11.4606 97.4687 11.2735 97.2476 10.9439C97.4362 10.5647 97.6223 10.1906 97.806 9.82142C98.1155 9.45877 98.2395 9.02227 98.1782 8.51189C98.1782 7.63887 98.1782 6.76587 98.1782 5.89285C98.238 5.60324 98.4241 5.47851 98.7366 5.5187Z" fill="#1D4EA0"/>
<path opacity="0.682" fill-rule="evenodd" clip-rule="evenodd" d="M98.1783 8.5119C98.2395 9.02228 98.1155 9.45878 97.806 9.82143C97.8472 9.34115 97.9713 8.90465 98.1783 8.5119Z" fill="#1D4EA0"/>
<path opacity="0.608" fill-rule="evenodd" clip-rule="evenodd" d="M105.623 9.82141C105.871 9.94613 106.057 10.1332 106.181 10.3826C105.809 10.3826 105.623 10.1956 105.623 9.82141Z" fill="#1D4EA0"/>
<path fill-rule="evenodd" clip-rule="evenodd" d="M95.9448 9.63434C95.4904 10.923 94.684 11.9207 93.5252 12.6275C93.5872 12.2534 93.6493 11.8792 93.7113 11.5051C94.5435 11.4728 94.6054 11.3169 93.8974 11.0374C94.2736 10.9414 94.5528 10.7232 94.735 10.3826C94.812 10.4682 94.9051 10.5306 95.0142 10.5697C95.1411 10.068 95.4512 9.75622 95.9448 9.63434Z" fill="#1D4EA0"/>
<path opacity="0.102" fill-rule="evenodd" clip-rule="evenodd" d="M84.2193 10.3826C84.481 10.4711 84.6051 10.6582 84.5915 10.9439C84.3298 10.8553 84.2057 10.6683 84.2193 10.3826Z" fill="#1D4EA0"/>
<path opacity="0.655" fill-rule="evenodd" clip-rule="evenodd" d="M106.554 10.7568C107.003 11.0207 107.313 11.3948 107.484 11.8792C107.035 11.6153 106.725 11.2411 106.554 10.7568Z" fill="#1D4EA0"/>
<path opacity="0.01" fill-rule="evenodd" clip-rule="evenodd" d="M84.5915 10.9438C85.1499 11.3803 85.6462 11.8792 86.0805 12.4404C85.3979 12.1286 84.9018 11.6298 84.5915 10.9438Z" fill="#1D4EA0"/>
<path opacity="0.263" fill-rule="evenodd" clip-rule="evenodd" d="M98.1782 11.5051C98.4624 11.4914 98.6485 11.6162 98.7366 11.8792C98.4524 11.8929 98.2663 11.7682 98.1782 11.5051Z" fill="#1D4EA0"/>
<path fill-rule="evenodd" clip-rule="evenodd" d="M98.7366 11.8792C99.728 11.8024 100.411 12.2389 100.784 13.1888C100.36 13.0113 99.9879 12.7619 99.6672 12.4405C99.5791 12.1774 99.393 12.0527 99.1088 12.0663C98.9242 12.0984 98.8002 12.036 98.7366 11.8792Z" fill="#1D4EA0"/>
<path opacity="0.314" fill-rule="evenodd" clip-rule="evenodd" d="M99.1088 12.0663C99.393 12.0527 99.5792 12.1774 99.6672 12.4405C99.383 12.4541 99.1969 12.3294 99.1088 12.0663Z" fill="#1D4EA0"/>
<path opacity="0.965" fill-rule="evenodd" clip-rule="evenodd" d="M107.484 11.8793C108.159 12.3647 108.655 12.9883 108.973 13.75C108.249 13.3246 107.753 12.701 107.484 11.8793Z" fill="#1D4EA0"/>
<path opacity="0.333" fill-rule="evenodd" clip-rule="evenodd" d="M86.0804 12.4405C86.3646 12.4268 86.5508 12.5515 86.6388 12.8146C86.3546 12.8283 86.1685 12.7035 86.0804 12.4405Z" fill="#1D4EA0"/>
<path opacity="0.09" fill-rule="evenodd" clip-rule="evenodd" d="M28.1971 13.3758C29.4443 13.059 30.623 13.2461 31.7334 13.9371C31.1213 13.7736 30.5007 13.6489 29.8722 13.5629C29.3535 13.3802 28.7951 13.3179 28.1971 13.3758Z" fill="#1D4EA0"/>
<path opacity="0.545" fill-rule="evenodd" clip-rule="evenodd" d="M28.1971 13.3759C28.7951 13.3179 29.3535 13.3802 29.8722 13.563C28.6649 13.4978 27.4862 13.6225 26.3359 13.9371C26.8721 13.5293 27.4925 13.3422 28.1971 13.3759Z" fill="#1D4EA0"/>
<path opacity="0.302" fill-rule="evenodd" clip-rule="evenodd" d="M87.3833 13.1888C88.6634 13.4991 89.9663 13.6238 91.2918 13.5629C90.3955 13.778 89.4649 13.8092 88.5 13.6565C88.0623 13.6116 87.69 13.4556 87.3833 13.1888Z" fill="#1D4EA0"/>
<path opacity="0.698" fill-rule="evenodd" clip-rule="evenodd" d="M101.156 13.5629C101.511 13.6074 101.759 13.7945 101.901 14.1242C101.546 14.0797 101.298 13.8926 101.156 13.5629Z" fill="#1D4EA0"/>
<path fill-rule="evenodd" clip-rule="evenodd" d="M29.8722 13.5629C30.5008 13.6489 31.1213 13.7736 31.7334 13.9371C31.9181 13.905 32.042 13.9673 32.1057 14.1242C32.7152 14.6733 33.3358 15.2345 33.9669 15.8078C34.0103 16.1 34.1344 16.3494 34.3391 16.5561C34.373 16.9474 34.3108 17.3215 34.153 17.6786C34.5604 18.2004 34.8087 18.7928 34.8975 19.4558C34.7916 20.1698 34.7294 20.8871 34.7114 21.6071C34.4994 22.2829 34.1891 22.9066 33.7808 23.4779C33.6566 23.5402 33.5327 23.6027 33.4085 23.665C33.1076 23.7656 32.7973 23.8279 32.4779 23.852C32.5029 24.1873 32.4409 24.4989 32.2918 24.7874C30.8155 25.4484 29.2646 25.6977 27.6388 25.5357C27.3406 25.2413 26.9684 25.1165 26.5221 25.1616C26.0607 24.3603 25.3782 23.8614 24.4748 23.665C24.0722 22.6061 23.5758 21.6085 22.9858 20.6718C22.7455 19.9046 22.7455 19.1563 22.9858 18.4269C23.3845 17.8095 23.6326 17.1235 23.7303 16.3691C24.0582 16.2264 24.2444 15.977 24.2887 15.6208C24.4748 15.6208 24.6609 15.6208 24.847 15.6208C24.8345 15.3479 24.8965 15.0984 25.0331 14.8725C25.3875 14.828 25.6358 14.6409 25.7776 14.3112C26.0618 14.3249 26.2479 14.2002 26.336 13.9371C27.4862 13.6225 28.6649 13.4977 29.8722 13.5629Z" fill="#1D4EA0"/>
<path opacity="0.573" fill-rule="evenodd" clip-rule="evenodd" d="M26.3359 13.937C26.2479 14.2001 26.0618 14.3249 25.7776 14.3112C25.8656 14.0481 26.0517 13.9234 26.3359 13.937Z" fill="#1D4EA0"/>
<path opacity="0.608" fill-rule="evenodd" clip-rule="evenodd" d="M108.973 13.75C109.235 13.8385 109.359 14.0256 109.345 14.3112C109.084 14.2227 108.96 14.0356 108.973 13.75Z" fill="#1D4EA0"/>
<path opacity="0.612" fill-rule="evenodd" clip-rule="evenodd" d="M25.7776 14.3112C25.6358 14.6409 25.3875 14.828 25.0331 14.8724C25.175 14.5427 25.4232 14.3557 25.7776 14.3112Z" fill="#1D4EA0"/>
<path opacity="0.416" fill-rule="evenodd" clip-rule="evenodd" d="M32.1057 14.1241C32.9625 14.4245 33.5831 14.9857 33.9669 15.8078C33.3357 15.2345 32.7152 14.6733 32.1057 14.1241Z" fill="#1D4EA0"/>
<path opacity="0.549" fill-rule="evenodd" clip-rule="evenodd" d="M109.345 14.3112C109.607 14.3997 109.731 14.5868 109.718 14.8724C109.456 14.7839 109.332 14.5969 109.345 14.3112Z" fill="#1D4EA0"/>
<path opacity="0.941" fill-rule="evenodd" clip-rule="evenodd" d="M25.0331 14.8724C24.8965 15.0984 24.8345 15.3478 24.847 15.6207C24.6609 15.6207 24.4748 15.6207 24.2886 15.6207C24.4565 15.2764 24.7048 15.027 25.0331 14.8724Z" fill="#1D4EA0"/>
<path opacity="0.124" fill-rule="evenodd" clip-rule="evenodd" d="M47.7397 15.6208C48.7606 15.4053 49.8152 15.3741 50.9038 15.5272C51.4541 15.5795 51.9503 15.7354 52.3927 15.9949C50.8554 15.7197 49.3043 15.595 47.7397 15.6208Z" fill="#1D4EA0"/>
<path opacity="0.01" fill-rule="evenodd" clip-rule="evenodd" d="M103.017 15.2466C103.279 15.3351 103.403 15.5222 103.39 15.8078C103.128 15.7193 103.004 15.5322 103.017 15.2466Z" fill="#1D4EA0"/>
<path fill-rule="evenodd" clip-rule="evenodd" d="M1.58203 15.8078C5.92482 15.8078 10.2676 15.8078 14.6104 15.8078C14.6104 17.1797 14.6104 18.5516 14.6104 19.9234C11.9099 19.8619 9.24215 19.9242 6.60727 20.1105C6.35911 21.7319 6.35911 23.3531 6.60727 24.9745C9.11799 25.1608 11.6616 25.2231 14.2382 25.1615C14.2382 26.5334 14.2382 27.9054 14.2382 29.2772C11.6616 29.2156 9.11799 29.2779 6.60727 29.4643C6.36057 30.2023 6.2365 31.0129 6.23503 31.8962C6.2352 32.7405 6.29725 33.5513 6.42115 34.3282C6.48318 34.3282 6.54523 34.3282 6.60727 34.3282C9.24215 34.5145 11.9099 34.5768 14.6104 34.5153C14.6104 35.9496 14.6104 37.3837 14.6104 38.818C10.2676 38.818 5.92482 38.818 1.58203 38.818C1.58203 31.1479 1.58203 23.4779 1.58203 15.8078Z" fill="#1D4EA0"/>
<path opacity="0.565" fill-rule="evenodd" clip-rule="evenodd" d="M47.7397 15.6207C47.3675 15.8078 46.9952 15.9949 46.623 16.182C46.2629 16.3035 45.8906 16.3658 45.5063 16.369C46.1735 15.9376 46.918 15.6882 47.7397 15.6207Z" fill="#1D4EA0"/>
<path opacity="0.263" fill-rule="evenodd" clip-rule="evenodd" d="M74.7272 16.7432C74.7292 16.4594 74.8532 16.2411 75.0994 16.0885C73.0999 15.9372 71.1146 15.9684 69.1436 16.182C71.1194 15.8121 73.1667 15.6874 75.2855 15.8078C75.3278 16.263 75.1416 16.5747 74.7272 16.7432Z" fill="#1D4EA0"/>
<path opacity="0.878" fill-rule="evenodd" clip-rule="evenodd" d="M88.1277 15.8078C88.6828 15.6834 89.272 15.6211 89.8959 15.6207C90.8432 15.5915 91.7428 15.7162 92.5946 15.9949C91.1057 15.9325 89.6167 15.8702 88.1277 15.8078Z" fill="#1D4EA0"/>
<path opacity="0.451" fill-rule="evenodd" clip-rule="evenodd" d="M24.2886 15.6207C24.2443 15.977 24.0582 16.2264 23.7303 16.369C23.7746 16.0128 23.9607 15.7633 24.2886 15.6207Z" fill="#1D4EA0"/>
<path fill-rule="evenodd" clip-rule="evenodd" d="M54.9984 17.8656C55.4998 18.1203 55.8721 18.4944 56.1151 18.9881C56.1505 19.6157 56.3366 20.1769 56.6735 20.6718C56.6735 21.6071 56.6735 22.5425 56.6735 23.4779C56.4254 23.9143 56.1771 24.351 55.929 24.7874C55.683 24.8192 55.4658 24.7569 55.2776 24.6003C55.3537 24.923 55.3226 25.2349 55.1845 25.5357C54.534 25.0933 54.4721 25.218 54.9984 25.9099C54.8123 26.0346 54.6262 26.1592 54.4401 26.284C54.5513 26.5263 54.6444 26.7756 54.7192 27.0323C54.8441 26.8916 54.9992 26.8291 55.1845 26.8452C55.3504 26.9593 55.5365 27.0216 55.7429 27.0323C55.8966 27.3623 56.1447 27.6119 56.4874 27.7806C56.5317 28.1368 56.7178 28.3863 57.0457 28.5289C57.0614 29.0578 57.1853 29.5567 57.418 30.0255C57.4489 31.2119 57.418 32.3967 57.3249 33.5799C56.9019 34.4087 56.6227 35.2817 56.4874 36.199C55.7926 37.085 54.9861 37.8333 54.0678 38.4439C53.8791 38.6635 53.631 38.7881 53.3233 38.818C52.598 38.9218 51.9157 39.1089 51.276 39.3792C50.0536 39.6241 48.8129 39.6241 47.5536 39.3792C46.8555 39.1037 46.1732 38.7918 45.5063 38.4439C44.5401 37.8654 43.6095 37.2419 42.7145 36.5731C42.6525 36.386 42.5284 36.2613 42.3423 36.199C42.2803 35.9496 42.2181 35.7 42.1561 35.4507C42.1597 35.1588 42.2217 34.8782 42.3423 34.6088C42.0899 34.3157 41.9657 33.9728 41.97 33.5799C42.1887 33.6209 42.3748 33.5586 42.5284 33.3928C42.2408 33.2148 41.9306 33.1525 41.5978 33.2058C41.5978 33.0187 41.5978 32.8316 41.5978 32.6445C43.0867 32.6445 44.5757 32.6445 46.0647 32.6445C46.0204 33.1886 46.2065 33.6252 46.623 33.9541C46.5253 34.0835 46.4012 34.1771 46.2508 34.2347C46.4762 34.4429 46.4762 34.6612 46.2508 34.8894C46.4034 35.1908 46.6517 35.3156 46.9953 35.2636C46.9953 35.0765 46.9953 34.8894 46.9953 34.7024C47.7127 34.9147 48.4572 35.0395 49.2287 35.0765C49.6374 35.0756 50.0097 35.0133 50.3454 34.8894C50.6531 34.8595 50.9012 34.7349 51.0899 34.5153C51.6914 34.4644 52.0637 34.1527 52.2066 33.5799C52.5623 33.5661 52.7795 33.379 52.858 33.0187C53.0079 32.4208 52.9768 31.8596 52.765 31.335C52.8098 30.8864 52.6857 30.5123 52.3927 30.2126C52.2686 29.7136 51.9585 29.402 51.4621 29.2772C51.1619 28.9801 50.7897 28.793 50.3454 28.716C49.5135 28.5315 48.6448 28.4692 47.7397 28.5289C47.7397 27.3442 47.7397 26.1592 47.7397 24.9745C48.5486 25.0055 49.3551 24.9743 50.1593 24.8809C50.5198 24.8581 50.7679 24.7023 50.9038 24.4133C51.3527 24.377 51.5388 24.1276 51.4621 23.665C51.7445 23.2979 51.8686 22.8615 51.8344 22.3554C51.9138 21.7332 51.7277 21.2345 51.276 20.8588C51.1519 20.8588 51.0899 20.7965 51.0899 20.6718C50.9628 20.3582 50.7145 20.2334 50.3454 20.2976C50.3248 20.1822 50.2628 20.0886 50.1593 20.017C49.3528 19.8922 48.5462 19.8922 47.7397 20.017C47.4792 20.286 47.1689 20.4418 46.8091 20.4847C46.8091 20.8588 46.8091 21.233 46.8091 21.6071C46.859 21.9063 46.7969 22.1556 46.623 22.3554C45.0099 22.3554 43.397 22.3554 41.7839 22.3554C41.7839 21.9813 41.7839 21.6071 41.7839 21.233C42.1718 20.6154 42.4201 19.9294 42.5284 19.1752C42.7901 19.0867 42.9142 18.8996 42.9006 18.6139C43.521 18.1151 44.0793 17.5538 44.5757 16.9303C45.0127 16.913 45.3228 16.7259 45.5063 16.369C45.8906 16.3658 46.2629 16.3035 46.623 16.182C48.4288 15.9017 50.2278 15.9329 52.0205 16.2755C51.7495 16.3546 51.6564 16.5104 51.7413 16.7432C52.4089 16.506 53.0603 16.5684 53.6956 16.9303C53.5714 17.055 53.4475 17.1797 53.3233 17.3044C53.588 17.5003 53.8672 17.5003 54.1609 17.3044C54.5219 17.3898 54.8011 17.5769 54.9984 17.8656Z" fill="#1D4EA0"/>
<path opacity="0.388" fill-rule="evenodd" clip-rule="evenodd" d="M33.9669 15.8078C34.2948 15.9504 34.4809 16.1998 34.5252 16.5561C34.4632 16.5561 34.4011 16.5561 34.3391 16.5561C34.1344 16.3494 34.0102 16.1 33.9669 15.8078Z" fill="#1D4EA0"/>
<path opacity="0.349" fill-rule="evenodd" clip-rule="evenodd" d="M52.3928 15.9949C52.7749 15.9766 53.0851 16.1013 53.3234 16.3691C52.9413 16.3874 52.631 16.2627 52.3928 15.9949Z" fill="#1D4EA0"/>
<path fill-rule="evenodd" clip-rule="evenodd" d="M101.901 14.1241C102.391 14.3626 102.887 14.612 103.39 14.8724C103.485 15.4057 103.795 15.6552 104.32 15.6207C104.291 15.8777 104.322 16.1271 104.413 16.369C104.689 15.9115 104.906 15.9739 105.065 16.5561C104.785 16.8071 104.66 17.1189 104.692 17.4915C104.215 16.9714 103.781 16.4102 103.39 15.8078C103.403 15.5222 103.279 15.3351 103.017 15.2466C102.583 14.9348 102.211 14.5606 101.901 14.1241Z" fill="#1D4EA0"/>
<path opacity="0.282" fill-rule="evenodd" clip-rule="evenodd" d="M110.276 15.8078C110.538 15.8963 110.662 16.0834 110.648 16.369C110.387 16.2805 110.262 16.0934 110.276 15.8078Z" fill="#1D4EA0"/>
<path opacity="0.996" fill-rule="evenodd" clip-rule="evenodd" d="M47.7398 15.6207C49.3043 15.595 50.8554 15.7197 52.3928 15.9949C52.631 16.2626 52.9413 16.3874 53.3234 16.369C53.631 16.3989 53.8791 16.5236 54.0678 16.7432C54.1559 17.0063 54.342 17.131 54.6262 17.1173C54.8123 17.1797 54.9365 17.3044 54.9984 17.4915C54.9984 17.6162 54.9984 17.7409 54.9984 17.8656C54.8012 17.5769 54.522 17.3898 54.1609 17.3044C53.8672 17.5003 53.588 17.5003 53.3234 17.3044C53.4475 17.1797 53.5715 17.055 53.6956 16.9303C53.0604 16.5684 52.409 16.5061 51.7413 16.7432C51.6565 16.5104 51.7495 16.3546 52.0205 16.2755C50.2278 15.9329 48.4288 15.9017 46.623 16.182C46.9953 15.9949 47.3675 15.8078 47.7398 15.6207Z" fill="#1D4EA0"/>
<path opacity="0.624" fill-rule="evenodd" clip-rule="evenodd" d="M87.9416 15.8078C86.8491 16.2154 85.7324 16.5896 84.5915 16.9302C85.6071 16.299 86.7239 15.9248 87.9416 15.8078Z" fill="#1D4EA0"/>
<path opacity="0.424" fill-rule="evenodd" clip-rule="evenodd" d="M69.1436 16.1819C69.1436 16.3067 69.1436 16.4314 69.1436 16.5561C68.9574 16.6808 68.7713 16.8055 68.5852 16.9302C68.6295 16.574 68.8156 16.3246 69.1436 16.1819Z" fill="#1D4EA0"/>
<path opacity="0.533" fill-rule="evenodd" clip-rule="evenodd" d="M45.5063 16.369C45.3228 16.7259 45.0127 16.913 44.5757 16.9302C44.7914 16.6028 45.1017 16.4157 45.5063 16.369Z" fill="#1D4EA0"/>
<path opacity="0.012" fill-rule="evenodd" clip-rule="evenodd" d="M54.0678 16.7432C54.352 16.7295 54.5381 16.8543 54.6262 17.1173C54.342 17.131 54.1558 17.0063 54.0678 16.7432Z" fill="#1D4EA0"/>
<path fill-rule="evenodd" clip-rule="evenodd" d="M74.7272 16.7432C74.3992 16.8858 74.2131 17.1352 74.1688 17.4915C73.9827 17.6162 73.7966 17.7409 73.6104 17.8656C73.5693 17.6346 73.4452 17.4475 73.2382 17.3044C73.5081 17.0519 73.6322 16.7401 73.6104 16.369C72.7507 16.152 71.3859 16.1208 69.5158 16.2755C69.4145 16.4097 69.2904 16.5032 69.1436 16.5561C69.1436 16.4314 69.1436 16.3067 69.1436 16.1819C71.1146 15.9684 73.0999 15.9372 75.0994 16.0884C74.8532 16.241 74.7292 16.4593 74.7272 16.7432Z" fill="#1D4EA0"/>
<path opacity="0.01" fill-rule="evenodd" clip-rule="evenodd" d="M34.5252 16.5562C34.8237 16.7034 34.9479 16.9528 34.8974 17.3045C34.6789 17.1148 34.555 16.8654 34.5252 16.5562Z" fill="#1D4EA0"/>
<path opacity="0.01" fill-rule="evenodd" clip-rule="evenodd" d="M74.7271 16.7432C74.6828 17.0995 74.4967 17.3489 74.1688 17.4915C74.2131 17.1353 74.3992 16.8858 74.7271 16.7432Z" fill="#1D4EA0"/>
<path opacity="0.325" fill-rule="evenodd" clip-rule="evenodd" d="M68.5852 16.9303C68.5987 17.2159 68.4746 17.403 68.2129 17.4915C68.1993 17.2059 68.3235 17.0188 68.5852 16.9303Z" fill="#1D4EA0"/>
<path opacity="0.565" fill-rule="evenodd" clip-rule="evenodd" d="M84.5915 16.9303C84.408 17.2872 84.0979 17.4743 83.6609 17.4915C83.8766 17.1641 84.1869 16.977 84.5915 16.9303Z" fill="#1D4EA0"/>
<path opacity="0.627" fill-rule="evenodd" clip-rule="evenodd" d="M23.7303 16.369C23.6325 17.1235 23.3844 17.8094 22.9858 18.4268C23.0169 17.6461 23.265 16.9602 23.7303 16.369Z" fill="#1D4EA0"/>
<path opacity="0.01" fill-rule="evenodd" clip-rule="evenodd" d="M74.1688 17.4915C74.1245 17.8478 73.9384 18.0972 73.6104 18.2398C73.6104 18.1151 73.6104 17.9904 73.6104 17.8657C73.7965 17.7409 73.9827 17.6162 74.1688 17.4915Z" fill="#1D4EA0"/>
<path opacity="0.635" fill-rule="evenodd" clip-rule="evenodd" d="M83.6609 17.4915C83.5729 17.7546 83.3867 17.8793 83.1025 17.8656C83.1906 17.6026 83.3767 17.4778 83.6609 17.4915Z" fill="#1D4EA0"/>
<path opacity="0.627" fill-rule="evenodd" clip-rule="evenodd" d="M44.5757 16.9303C44.0793 17.5539 43.521 18.1151 42.9006 18.614C43.2729 17.8657 43.8312 17.3044 44.5757 16.9303Z" fill="#1D4EA0"/>
<path opacity="0.412" fill-rule="evenodd" clip-rule="evenodd" d="M68.213 17.4915C68.1687 17.8478 67.9825 18.0972 67.6546 18.2398C67.6989 17.8836 67.885 17.6341 68.213 17.4915Z" fill="#1D4EA0"/>
<path fill-rule="evenodd" clip-rule="evenodd" d="M73.6104 17.8656C73.6104 17.9904 73.6104 18.1151 73.6104 18.2398C73.2294 18.6232 72.9192 19.0597 72.6798 19.5493C72.2653 19.9435 71.8931 20.3799 71.5631 20.8588C71.1914 21.2736 70.8192 21.71 70.4464 22.1684C70.2735 22.3908 70.2115 22.6402 70.2603 22.9167C70.092 23.0493 70.03 23.2364 70.0741 23.4779C70.6358 23.5161 71.1942 23.5784 71.7492 23.665C72.1864 24.0094 72.6826 24.2587 73.2382 24.4133C73.4228 24.3811 73.5468 24.4436 73.6104 24.6003C73.8038 24.9803 74.1139 25.2297 74.541 25.3486C74.7121 25.833 75.0223 26.2071 75.4716 26.4711C75.5159 26.8273 75.702 27.0768 76.03 27.2194C76.276 28.0895 76.5241 28.9626 76.7745 29.8384C76.9965 31.8789 76.5623 33.7496 75.4716 35.4507C75.3625 35.4116 75.2695 35.3491 75.1924 35.2636C74.9803 35.7504 74.8252 36.2493 74.7271 36.7602C74.479 37.0721 74.2308 37.3837 73.9827 37.6956C73.6984 37.6819 73.5123 37.8067 73.4243 38.0697C72.7448 38.2865 72.1242 38.5984 71.5631 39.0051C70.0911 39.3033 68.6021 39.4281 67.0962 39.3793C67.0342 39.3793 66.9721 39.3793 66.9101 39.3793C66.1732 38.9166 65.3666 38.6048 64.4905 38.4439C64.1829 38.4139 63.9348 38.2894 63.7461 38.0697C63.2994 37.4331 62.741 36.9342 62.071 36.5731C62.0609 36.1743 61.8748 35.9249 61.5126 35.8248C61.3567 35.7609 61.2945 35.6363 61.3265 35.4507C60.3198 33.217 60.1337 30.9098 60.7681 28.5289C61.1908 28.1338 61.4389 27.6349 61.5126 27.0323C61.7743 26.9438 61.8984 26.7568 61.8849 26.4711C62.2327 26.1841 62.4808 25.81 62.6293 25.3486C62.9573 25.2061 63.1434 24.9565 63.1877 24.6003C63.4494 24.5119 63.5735 24.3248 63.5599 24.0391C63.8216 23.9506 63.9458 23.7636 63.9322 23.4779C64.2601 23.3353 64.4462 23.0858 64.4905 22.7296C64.7522 22.6411 64.8764 22.454 64.8628 22.1684C65.1907 22.0258 65.3768 21.7763 65.4211 21.4201C65.7491 21.2775 65.9352 21.028 65.9795 20.6718C66.2412 20.5833 66.3653 20.3962 66.3517 20.1105C66.6134 20.0221 66.7376 19.835 66.724 19.5493C67.0519 19.4068 67.238 19.1572 67.2823 18.801C67.544 18.7125 67.6682 18.5254 67.6546 18.2398C67.9825 18.0972 68.1686 17.8478 68.2129 17.4915C68.4746 17.403 68.5988 17.2159 68.5852 16.9303C68.7713 16.8055 68.9574 16.6808 69.1435 16.5561C69.2904 16.5032 69.4145 16.4097 69.5158 16.2755C71.3859 16.1208 72.7507 16.152 73.6104 16.369C73.6322 16.7401 73.508 17.0519 73.2382 17.3044C73.4451 17.4476 73.5693 17.6346 73.6104 17.8656ZM69.5158 28.1548C69.7819 28.3488 70.0922 28.4735 70.4464 28.5289C70.5344 28.7919 70.7205 28.9167 71.0047 28.9031C71.1931 29.1597 71.3792 29.4091 71.5631 29.6514C71.8763 30.4251 72.0005 31.2357 71.9353 32.0833C71.9353 32.1456 71.9353 32.2081 71.9353 32.2704C71.6547 32.5849 71.4685 32.959 71.377 33.3929C71.1909 33.4552 71.0667 33.5799 71.0047 33.767C70.5387 33.9698 70.1045 34.2192 69.7019 34.5153C68.5841 34.6294 67.5293 34.4423 66.5379 33.9541C66.4137 33.7047 66.2276 33.5176 65.9795 33.3929C65.9931 33.1072 65.8689 32.9201 65.6073 32.8316C65.6514 32.5901 65.5894 32.403 65.4211 32.2704C65.3374 31.2161 65.5235 30.2182 65.9795 29.2772C66.2276 29.1524 66.4137 28.9654 66.5379 28.716C67.4666 28.2352 68.4594 28.0481 69.5158 28.1548Z" fill="#1D4EA0"/>
<path opacity="0.01" fill-rule="evenodd" clip-rule="evenodd" d="M54.9984 17.4915C55.6573 17.779 56.0295 18.2778 56.1151 18.9881C55.8721 18.4944 55.4998 18.1203 54.9984 17.8657C54.9984 17.7409 54.9984 17.6162 54.9984 17.4915Z" fill="#1D4EA0"/>
<path opacity="0.561" fill-rule="evenodd" clip-rule="evenodd" d="M83.1025 17.8657C82.9607 18.1954 82.7124 18.3824 82.358 18.4269C82.4999 18.0972 82.7481 17.9101 83.1025 17.8657Z" fill="#1D4EA0"/>
<path fill-rule="evenodd" clip-rule="evenodd" d="M87.9416 15.8078C88.0036 15.8078 88.0658 15.8078 88.1278 15.8078C89.6167 15.8702 91.1057 15.9325 92.5946 15.9949C94.5647 16.3299 96.2398 17.2029 97.6199 18.6139C97.9301 19.0504 98.3024 19.4245 98.7366 19.7364C98.9227 19.7987 99.0468 19.9234 99.1088 20.1105C99.0952 20.3962 99.2194 20.5833 99.4811 20.6717C99.4675 20.9574 99.5916 21.1445 99.8533 21.233C99.8397 21.5186 99.9639 21.7057 100.226 21.7942C100.506 22.1087 100.692 22.4828 100.784 22.9166C100.713 23.3278 100.837 23.6397 101.156 23.852C101.156 23.9143 101.156 23.9768 101.156 24.0391C101.168 24.5868 101.292 25.0858 101.528 25.5357C102.157 28.9309 101.413 31.9864 99.2949 34.7024C99.0623 34.688 98.9073 34.5632 98.8296 34.3282C98.7377 34.6339 98.7068 34.9457 98.7366 35.2636C98.4615 35.2146 98.2134 35.2769 97.9921 35.4507C98.031 35.5603 98.0932 35.6538 98.1782 35.7313C97.9106 35.7722 97.6625 35.8658 97.4337 36.0119C97.4726 36.1215 97.5348 36.215 97.6199 36.2925C97.3792 36.3842 97.1309 36.4154 96.8754 36.386C96.8754 36.6354 96.8754 36.885 96.8754 37.1343C96.5782 37.024 96.3299 36.8369 96.1309 36.5731C95.9805 36.6307 95.8564 36.7243 95.7587 36.8537C96.0328 36.9865 96.157 37.2047 96.1309 37.5085C95.8251 37.5122 95.577 37.3874 95.3864 37.1343C94.8217 37.5427 94.2325 37.7298 93.6183 37.6956C93.3821 37.9584 93.289 38.2701 93.3391 38.6309C91.0943 39.14 88.8609 39.1087 86.6388 38.5374C86.8443 38.3258 86.7823 38.1698 86.4527 38.0697C86.1603 38.221 85.85 38.2835 85.5221 38.2568C85.274 38.2568 85.0257 38.2568 84.7776 38.2568C84.4699 38.2268 84.2218 38.1023 84.0331 37.8826C83.9451 37.6196 83.759 37.4948 83.4748 37.5085C83.3867 37.2455 83.2006 37.1207 82.9164 37.1343C82.5356 36.5456 82.0394 36.1092 81.4274 35.8248C81.4274 35.4507 81.2413 35.2636 80.8691 35.2636C80.8248 34.9074 80.6387 34.6578 80.3107 34.5153C80.3243 34.2296 80.2002 34.0425 79.9385 33.9541C79.7691 33.3008 79.459 32.7396 79.0079 32.2704C78.9725 31.6427 78.7864 31.0815 78.4495 30.5867C78.4495 30.0878 78.4495 29.589 78.4495 29.0901C78.3611 27.6311 78.4853 26.1968 78.8218 24.7874C79.1153 24.4228 79.3944 24.0486 79.6593 23.6649C79.6593 23.2908 79.6593 22.9166 79.6593 22.5425C79.7213 22.4802 79.7834 22.4177 79.8454 22.3554C79.8918 22.5657 79.9848 22.7528 80.1246 22.9166C80.1866 22.7919 80.2487 22.6673 80.3107 22.5425C80.1758 22.2868 80.0516 22.0374 79.9385 21.7942C79.9764 21.3854 80.1004 21.0113 80.3107 20.6717C80.9878 19.9283 81.6703 19.18 82.358 18.4268C82.7124 18.3824 82.9607 18.1953 83.1025 17.8656C83.3867 17.8793 83.5728 17.7546 83.6609 17.4915C84.0979 17.4742 84.408 17.2871 84.5915 16.9302C85.7324 16.5896 86.8491 16.2154 87.9416 15.8078ZM91.4779 21.233C91.9313 21.4894 92.4277 21.6765 92.9669 21.7942C93.0549 22.0572 93.241 22.182 93.5252 22.1683C93.6133 22.4314 93.7994 22.5562 94.0836 22.5425C96.3565 24.9488 96.8529 27.6927 95.5725 30.7738C95.3109 30.8623 95.1867 31.0493 95.2003 31.335C95.0142 31.3973 94.89 31.5221 94.8281 31.7092C94.3938 32.021 94.0216 32.3952 93.7113 32.8316C93.3514 32.9457 93.0411 33.1328 92.7807 33.3928C92.3938 33.4809 92.0216 33.6055 91.664 33.767C89.844 34.0856 88.1067 33.8362 86.4527 33.0187C86.2785 32.7429 86.0302 32.5559 85.7082 32.4575C85.6462 32.2704 85.5221 32.1456 85.336 32.0833C85.2783 31.7758 85.0921 31.5887 84.7776 31.5221C84.7311 31.1154 84.5449 30.8035 84.2192 30.5867C84.077 30.1157 83.8909 29.6792 83.6609 29.2772C83.6235 28.7145 83.5615 28.1532 83.4748 27.5935C83.6363 26.5075 83.8846 25.4476 84.2192 24.4132C84.4809 24.3248 84.6051 24.1377 84.5915 23.852C84.9194 23.7095 85.1055 23.4599 85.1498 23.1037C85.274 23.1037 85.336 23.0414 85.336 22.9166C85.7545 22.8081 86.0646 22.5588 86.2666 22.1683C86.6982 22.0763 87.0704 21.8892 87.3833 21.6071C88.7207 21.2709 90.0857 21.1464 91.4779 21.233Z" fill="#1D4EA0"/>
<path fill-rule="evenodd" clip-rule="evenodd" d="M104.692 17.4915C105.379 17.7903 106.03 18.1644 106.647 18.614C106.704 18.9677 106.549 19.2173 106.181 19.3623C106.274 19.4246 106.368 19.487 106.461 19.5493C106.998 19.2266 107.587 19.1019 108.229 19.1752C108.229 19.2375 108.229 19.3 108.229 19.3623C107.7 19.581 107.142 19.768 106.554 19.9235C106.347 19.9128 106.161 19.8505 105.995 19.7364C105.564 18.9947 105.129 18.2465 104.692 17.4915Z" fill="#1D4EA0"/>
<path opacity="0.31" fill-rule="evenodd" clip-rule="evenodd" d="M67.6546 18.2398C67.6681 18.5255 67.544 18.7125 67.2823 18.801C67.2687 18.5154 67.3929 18.3283 67.6546 18.2398Z" fill="#1D4EA0"/>
<path opacity="0.01" fill-rule="evenodd" clip-rule="evenodd" d="M97.6199 18.614C98.1782 18.801 98.5505 19.1752 98.7366 19.7364C98.3024 19.4245 97.9301 19.0504 97.6199 18.614Z" fill="#1D4EA0"/>
<path opacity="0.243" fill-rule="evenodd" clip-rule="evenodd" d="M42.9006 18.614C42.9142 18.8996 42.7901 19.0867 42.5284 19.1752C42.5148 18.8895 42.639 18.7025 42.9006 18.614Z" fill="#1D4EA0"/>
<path opacity="0.408" fill-rule="evenodd" clip-rule="evenodd" d="M111.207 19.1752C110.209 19.17 109.216 19.2324 108.229 19.3623C108.229 19.3 108.229 19.2375 108.229 19.1752C109.25 18.9627 110.242 18.9627 111.207 19.1752Z" fill="#1D4EA0"/>
<path opacity="0.886" fill-rule="evenodd" clip-rule="evenodd" d="M34.3391 16.5562C34.4011 16.5562 34.4633 16.5562 34.5253 16.5562C34.555 16.8654 34.679 17.1148 34.8975 17.3045C35.0389 18.4838 35.1009 19.6685 35.0836 20.8589C35.1335 21.158 35.0713 21.4074 34.8975 21.6072C34.8355 21.6072 34.7734 21.6072 34.7114 21.6072C34.7294 20.8871 34.7916 20.1699 34.8975 19.4558C34.8087 18.7928 34.5604 18.2004 34.153 17.6786C34.3108 17.3216 34.373 16.9474 34.3391 16.5562Z" fill="#1D4EA0"/>
<path opacity="0.424" fill-rule="evenodd" clip-rule="evenodd" d="M67.2824 18.801C67.2381 19.1572 67.0519 19.4068 66.724 19.5493C66.7683 19.1931 66.9544 18.9436 67.2824 18.801Z" fill="#1D4EA0"/>
<path opacity="0.031" fill-rule="evenodd" clip-rule="evenodd" d="M73.6104 18.2398C73.5155 18.8336 73.2052 19.2702 72.6798 19.5493C72.9192 19.0598 73.2294 18.6232 73.6104 18.2398Z" fill="#1D4EA0"/>
<path opacity="0.447" fill-rule="evenodd" clip-rule="evenodd" d="M82.358 18.4269C81.6703 19.18 80.9878 19.9283 80.3107 20.6718C80.7345 19.6846 81.417 18.9363 82.358 18.4269Z" fill="#1D4EA0"/>
<path opacity="0.141" fill-rule="evenodd" clip-rule="evenodd" d="M111.765 18.801C111.933 18.9337 111.995 19.1207 111.951 19.3622C111.653 19.4124 111.405 19.3499 111.207 19.1752C111.519 19.2154 111.705 19.0906 111.765 18.801Z" fill="#1D4EA0"/>
<path opacity="0.392" fill-rule="evenodd" clip-rule="evenodd" d="M34.8975 17.3044C35.4394 18.4953 35.5016 19.6801 35.0836 20.8589C35.1009 19.6685 35.0389 18.4837 34.8975 17.3044Z" fill="#1D4EA0"/>
<path opacity="0.804" fill-rule="evenodd" clip-rule="evenodd" d="M56.1152 18.9881C56.5559 19.4476 56.742 20.0088 56.6735 20.6718C56.3367 20.177 56.1505 19.6157 56.1152 18.9881Z" fill="#1D4EA0"/>
<path opacity="0.012" fill-rule="evenodd" clip-rule="evenodd" d="M72.6798 19.5493C72.4883 20.1837 72.1161 20.6824 71.5631 21.0459C71.5631 20.9836 71.5631 20.9211 71.5631 20.8588C71.8931 20.3799 72.2653 19.9435 72.6798 19.5493Z" fill="#1D4EA0"/>
<path opacity="0.329" fill-rule="evenodd" clip-rule="evenodd" d="M66.724 19.5493C66.7375 19.835 66.6134 20.0221 66.3517 20.1105C66.3381 19.8249 66.4623 19.6378 66.724 19.5493Z" fill="#1D4EA0"/>
<path opacity="0.043" fill-rule="evenodd" clip-rule="evenodd" d="M105.995 19.7364C106.161 19.8505 106.347 19.9128 106.554 19.9235C106.284 20.1826 106.098 20.1203 105.995 19.7364Z" fill="#1D4EA0"/>
<path opacity="0.293" fill-rule="evenodd" clip-rule="evenodd" d="M14.6104 24.9745C14.5484 24.9745 14.4863 24.9745 14.4243 24.9745C11.8186 24.9745 9.21292 24.9745 6.60725 24.9745C6.35909 23.3531 6.35909 21.7319 6.60725 20.1105C9.33701 20.1105 12.0668 20.1105 14.7965 20.1105C14.7965 18.6139 14.7965 17.1173 14.7965 15.6207C10.3917 15.6207 5.98685 15.6207 1.58201 15.6207C1.39614 23.3838 1.3341 31.1784 1.39589 39.0051C1.21002 31.1797 1.14798 23.3226 1.20977 15.4337C5.80073 15.4337 10.3917 15.4337 14.9826 15.4337C14.9237 17.0397 14.9858 18.6298 15.1688 20.2041C12.3156 20.2976 9.46177 20.3288 6.60725 20.2976C6.60725 21.7942 6.60725 23.2908 6.60725 24.7874C9.30779 24.7258 11.9755 24.7881 14.6104 24.9745Z" fill="#1D4EA0"/>
<path opacity="0.878" fill-rule="evenodd" clip-rule="evenodd" d="M1.58203 15.8078C1.58203 15.7455 1.58203 15.6831 1.58203 15.6207C5.98687 15.6207 10.3917 15.6207 14.7965 15.6207C14.7965 17.1173 14.7965 18.6139 14.7965 20.1105C12.0668 20.1105 9.33703 20.1105 6.60727 20.1105C9.24215 19.9242 11.9099 19.8619 14.6104 19.9234C14.6104 18.5516 14.6104 17.1797 14.6104 15.8078C10.2676 15.8078 5.92482 15.8078 1.58203 15.8078Z" fill="#1D4EA0"/>
<path opacity="0.973" fill-rule="evenodd" clip-rule="evenodd" d="M50.3454 20.2976C49.906 20.265 49.4718 20.2028 49.0426 20.1105C48.4226 20.0204 47.9264 20.2074 47.5536 20.6717C47.5536 20.7965 47.4916 20.8588 47.3675 20.8588C47.069 21.006 46.9448 21.2554 46.9953 21.6071C46.9333 21.6071 46.8711 21.6071 46.8091 21.6071C46.8091 21.233 46.8091 20.8588 46.8091 20.4847C47.1689 20.4418 47.4792 20.286 47.7397 20.017C48.5462 19.8922 49.3528 19.8922 50.1593 20.017C50.2628 20.0886 50.3248 20.1822 50.3454 20.2976Z" fill="#1D4EA0"/>
<path opacity="0.086" fill-rule="evenodd" clip-rule="evenodd" d="M49.0426 20.1106C48.5632 20.2954 48.0668 20.4825 47.5536 20.6718C47.9264 20.2075 48.4226 20.0204 49.0426 20.1106Z" fill="#1D4EA0"/>
<path opacity="0.773" fill-rule="evenodd" clip-rule="evenodd" d="M50.3454 20.2976C50.7145 20.2334 50.9628 20.3582 51.0899 20.6717C50.7822 20.6418 50.5341 20.5172 50.3454 20.2976Z" fill="#1D4EA0"/>
<path opacity="0.42" fill-rule="evenodd" clip-rule="evenodd" d="M66.3518 20.1105C66.3653 20.3962 66.2412 20.5833 65.9795 20.6718C65.9659 20.3861 66.0901 20.199 66.3518 20.1105Z" fill="#1D4EA0"/>
<path opacity="0.431" fill-rule="evenodd" clip-rule="evenodd" d="M99.1089 20.1105C99.3705 20.199 99.4947 20.3861 99.4811 20.6718C99.2194 20.5833 99.0953 20.3962 99.1089 20.1105Z" fill="#1D4EA0"/>
<path opacity="0.753" fill-rule="evenodd" clip-rule="evenodd" d="M42.5284 19.1752C42.4201 19.9295 42.1718 20.6155 41.7839 21.233C41.8169 20.4458 42.065 19.76 42.5284 19.1752Z" fill="#1D4EA0"/>
<path opacity="0.651" fill-rule="evenodd" clip-rule="evenodd" d="M65.9795 20.6718C65.9352 21.0279 65.7491 21.2775 65.4211 21.4201C65.4654 21.0639 65.6516 20.8143 65.9795 20.6718Z" fill="#1D4EA0"/>
<path opacity="0.525" fill-rule="evenodd" clip-rule="evenodd" d="M99.4811 20.6718C99.7428 20.7602 99.8669 20.9473 99.8533 21.233C99.5917 21.1445 99.4675 20.9574 99.4811 20.6718Z" fill="#1D4EA0"/>
<path opacity="0.169" fill-rule="evenodd" clip-rule="evenodd" d="M47.3675 20.8588C47.4179 21.2105 47.2938 21.4599 46.9952 21.6071C46.9448 21.2554 47.0689 21.0061 47.3675 20.8588Z" fill="#1D4EA0"/>
<path opacity="0.671" fill-rule="evenodd" clip-rule="evenodd" d="M109.345 21.0459C108.898 21.2831 108.401 21.4079 107.856 21.42C108.292 21.1319 108.788 21.0074 109.345 21.0459Z" fill="#1D4EA0"/>
<path opacity="0.732" fill-rule="evenodd" clip-rule="evenodd" d="M1.58205 15.6207C1.58205 15.6831 1.58205 15.7455 1.58205 15.8078C1.58205 23.4779 1.58205 31.1479 1.58205 38.818C5.92484 38.818 10.2676 38.818 14.6104 38.818C14.6104 37.3837 14.6104 35.9496 14.6104 34.5153C11.9099 34.5768 9.24216 34.5145 6.60728 34.3282C9.33705 34.3282 12.0668 34.3282 14.7966 34.3282C14.7966 35.8871 14.7966 37.4462 14.7966 39.0051C10.3297 39.0051 5.8628 39.0051 1.39593 39.0051C1.33414 31.1784 1.39618 23.3838 1.58205 15.6207Z" fill="#1D4EA0"/>
<path opacity="0.031" fill-rule="evenodd" clip-rule="evenodd" d="M91.4779 21.233C90.0858 21.1464 88.7208 21.2709 87.3833 21.6071C87.5409 21.3329 87.789 21.1768 88.1278 21.1394C89.2821 20.7411 90.3988 20.7724 91.4779 21.233Z" fill="#1D4EA0"/>
<path fill-rule="evenodd" clip-rule="evenodd" d="M111.765 21.233C112.349 21.7305 113.032 22.0423 113.812 22.1684C113.997 22.1362 114.121 22.1987 114.185 22.3555C114.189 22.8566 114.437 23.106 114.929 23.1038C114.973 23.46 115.159 23.7095 115.487 23.8521C115.474 24.1377 115.598 24.3248 115.86 24.4133C116.016 24.4773 116.078 24.6019 116.046 24.7874C116.342 26.267 116.467 27.7636 116.418 29.2772C116.207 30.3265 115.711 31.1996 114.929 31.8963C114.743 31.9586 114.619 32.0834 114.557 32.2704C114.557 32.3952 114.495 32.4575 114.371 32.4575C114.115 32.4281 113.867 32.4594 113.626 32.551C113.831 32.6951 113.831 32.8509 113.626 33.0187C113.018 33.6187 112.273 33.9304 111.393 33.9541C110.129 34.01 108.888 33.8853 107.67 33.58C107.608 33.58 107.546 33.58 107.484 33.58C107.396 33.3169 107.21 33.1922 106.926 33.2058C106.838 32.9428 106.652 32.818 106.368 32.8317C106.306 32.7069 106.243 32.5823 106.181 32.4575C106.037 32.3348 105.913 32.179 105.809 31.9898C106.213 31.7223 106.244 31.4417 105.902 31.148C105.778 31.2728 105.654 31.3974 105.53 31.5221C104.126 29.8875 103.692 27.9544 104.227 25.7228C104.786 25.0054 105.127 24.1948 105.251 23.2908C105.499 23.1661 105.685 22.979 105.809 22.7296C106.332 22.0603 107.015 21.6238 107.856 21.4201C108.401 21.4079 108.898 21.2832 109.345 21.0459C110.186 20.8424 110.992 20.9047 111.765 21.233Z" fill="#1D4EA0"/>
<path opacity="0.843" fill-rule="evenodd" clip-rule="evenodd" d="M80.3107 20.6718C80.1004 21.0113 79.9764 21.3854 79.9384 21.7942C79.7475 22.0473 79.4994 22.2344 79.194 22.3554C79.4283 21.696 79.8005 21.1348 80.3107 20.6718Z" fill="#1D4EA0"/>
<path opacity="0.122" fill-rule="evenodd" clip-rule="evenodd" d="M87.3833 21.6071C87.0704 21.8892 86.6982 22.0763 86.2665 22.1684C86.5292 21.7869 86.9014 21.5998 87.3833 21.6071Z" fill="#1D4EA0"/>
<path opacity="0.357" fill-rule="evenodd" clip-rule="evenodd" d="M99.8533 21.233C100.115 21.3215 100.239 21.5085 100.226 21.7942C99.9639 21.7057 99.8397 21.5186 99.8533 21.233Z" fill="#1D4EA0"/>
<path opacity="0.98" fill-rule="evenodd" clip-rule="evenodd" d="M111.765 21.233C112.575 21.2977 113.258 21.6094 113.812 22.1683C113.032 22.0423 112.349 21.7304 111.765 21.233Z" fill="#1D4EA0"/>
<path opacity="0.416" fill-rule="evenodd" clip-rule="evenodd" d="M65.4212 21.42C65.3769 21.7762 65.1907 22.0258 64.8628 22.1683C64.9071 21.8122 65.0932 21.5626 65.4212 21.42Z" fill="#1D4EA0"/>
<path opacity="0.098" fill-rule="evenodd" clip-rule="evenodd" d="M51.276 20.8588C51.7277 21.2345 51.9138 21.7332 51.8344 22.3554C51.8686 22.8615 51.7445 23.2979 51.4621 23.6649C51.753 22.7011 51.691 21.7658 51.276 20.8588Z" fill="#1D4EA0"/>
<path opacity="0.396" fill-rule="evenodd" clip-rule="evenodd" d="M56.6735 20.6718C57.0372 21.5787 57.0372 22.5141 56.6735 23.4779C56.6735 22.5425 56.6735 21.6071 56.6735 20.6718Z" fill="#1D4EA0"/>
<path opacity="0.051" fill-rule="evenodd" clip-rule="evenodd" d="M71.5631 20.8588C71.5631 20.9211 71.5631 20.9836 71.5631 21.0459C71.2724 21.774 70.8381 22.3975 70.2602 22.9166C70.2115 22.6402 70.2735 22.3908 70.4464 22.1683C70.8192 21.71 71.1914 21.2736 71.5631 20.8588Z" fill="#1D4EA0"/>
<path opacity="0.998" fill-rule="evenodd" clip-rule="evenodd" d="M79.9385 21.7942C80.0516 22.0374 80.1758 22.2868 80.3107 22.5425C80.2487 22.6673 80.1866 22.7919 80.1246 22.9166C79.9848 22.7528 79.8918 22.5657 79.8454 22.3554C79.7834 22.4177 79.7213 22.4802 79.6593 22.5425C79.6593 22.9166 79.6593 23.2908 79.6593 23.6649C79.3944 24.0486 79.1153 24.4228 78.8217 24.7874C78.4852 26.1968 78.3611 27.6311 78.4495 29.0901C78.2651 27.8781 78.2031 26.6308 78.2634 25.3486C78.6325 24.7315 78.8186 24.0454 78.8217 23.2908C79.0881 23.0513 79.2122 22.7395 79.194 22.3554C79.4994 22.2344 79.7475 22.0473 79.9385 21.7942Z" fill="#1D4EA0"/>
<path opacity="0.29" fill-rule="evenodd" clip-rule="evenodd" d="M92.9669 21.7942C93.2511 21.7806 93.4372 21.9053 93.5252 22.1684C93.241 22.182 93.0549 22.0573 92.9669 21.7942Z" fill="#1D4EA0"/>
<path opacity="0.224" fill-rule="evenodd" clip-rule="evenodd" d="M41.7839 21.233C41.7839 21.6071 41.7839 21.9813 41.7839 22.3554C43.397 22.3554 45.0099 22.3554 46.623 22.3554C45.1062 22.5412 43.5552 22.6035 41.97 22.5425C41.7742 22.5704 41.5881 22.5393 41.4117 22.449C41.456 22.0612 41.5799 21.6558 41.7839 21.233Z" fill="#1D4EA0"/>
<path opacity="0.408" fill-rule="evenodd" clip-rule="evenodd" d="M93.5252 22.1684C93.8094 22.1547 93.9955 22.2795 94.0836 22.5425C93.7994 22.5562 93.6132 22.4314 93.5252 22.1684Z" fill="#1D4EA0"/>
<path opacity="0.067" fill-rule="evenodd" clip-rule="evenodd" d="M34.7114 21.6071C34.7733 21.6071 34.8355 21.6071 34.8975 21.6071C34.8301 22.3593 34.4579 22.9829 33.7808 23.4779C34.1891 22.9065 34.4994 22.2828 34.7114 21.6071Z" fill="#1D4EA0"/>
<path opacity="0.01" fill-rule="evenodd" clip-rule="evenodd" d="M46.8091 21.6071C46.8711 21.6071 46.9333 21.6071 46.9953 21.6071C47.0398 21.9751 46.9778 22.3182 46.8091 22.636C45.1633 22.7902 43.5502 22.7589 41.97 22.5425C43.5552 22.6035 45.1062 22.5412 46.623 22.3554C46.7969 22.1556 46.859 21.9062 46.8091 21.6071Z" fill="#1D4EA0"/>
<path opacity="0.318" fill-rule="evenodd" clip-rule="evenodd" d="M64.8627 22.1684C64.8763 22.4541 64.7522 22.6411 64.4905 22.7296C64.4769 22.444 64.6011 22.2569 64.8627 22.1684Z" fill="#1D4EA0"/>
<path opacity="0.694" fill-rule="evenodd" clip-rule="evenodd" d="M22.9858 20.6718C23.5758 21.6084 24.0722 22.6061 24.4747 23.665C23.5871 22.8785 23.0909 21.8808 22.9858 20.6718Z" fill="#1D4EA0"/>
<path opacity="0.01" fill-rule="evenodd" clip-rule="evenodd" d="M86.2665 22.1684C86.0646 22.5588 85.7545 22.8082 85.3359 22.9167C85.5379 22.5263 85.848 22.2769 86.2665 22.1684Z" fill="#1D4EA0"/>
<path opacity="0.039" fill-rule="evenodd" clip-rule="evenodd" d="M79.194 22.3555C79.2122 22.7395 79.0881 23.0514 78.8218 23.2908C78.8035 22.9068 78.9277 22.5949 79.194 22.3555Z" fill="#1D4EA0"/>
<path opacity="0.988" fill-rule="evenodd" clip-rule="evenodd" d="M114.185 22.3555C114.495 22.5425 114.743 22.7919 114.929 23.1038C114.437 23.106 114.189 22.8566 114.185 22.3555Z" fill="#1D4EA0"/>
<path opacity="0.424" fill-rule="evenodd" clip-rule="evenodd" d="M64.4905 22.7296C64.4463 23.0858 64.2601 23.3354 63.9322 23.4779C63.9765 23.1217 64.1626 22.8722 64.4905 22.7296Z" fill="#1D4EA0"/>
<path opacity="0.439" fill-rule="evenodd" clip-rule="evenodd" d="M105.809 22.7296C105.685 22.979 105.499 23.1661 105.251 23.2908C105.251 22.9167 105.437 22.7296 105.809 22.7296Z" fill="#1D4EA0"/>
<path opacity="0.431" fill-rule="evenodd" clip-rule="evenodd" d="M70.2602 22.9167C70.7047 23.2347 71.2011 23.4843 71.7492 23.665C71.1942 23.5784 70.6358 23.5161 70.0741 23.4779C70.03 23.2364 70.092 23.0493 70.2602 22.9167Z" fill="#1D4EA0"/>
<path opacity="0.01" fill-rule="evenodd" clip-rule="evenodd" d="M85.1499 23.1038C85.1056 23.46 84.9194 23.7095 84.5915 23.8521C84.6358 23.4959 84.8219 23.2463 85.1499 23.1038Z" fill="#1D4EA0"/>
<path opacity="0.675" fill-rule="evenodd" clip-rule="evenodd" d="M114.929 23.1038C115.257 23.2463 115.443 23.4959 115.487 23.8521C115.159 23.7095 114.973 23.46 114.929 23.1038Z" fill="#1D4EA0"/>
<path opacity="0.78" fill-rule="evenodd" clip-rule="evenodd" d="M100.784 22.9167C100.977 23.1842 101.101 23.4961 101.156 23.8521C100.837 23.6397 100.713 23.3279 100.784 22.9167Z" fill="#1D4EA0"/>
<path opacity="0.31" fill-rule="evenodd" clip-rule="evenodd" d="M63.9322 23.4779C63.9458 23.7636 63.8216 23.9506 63.56 24.0391C63.5464 23.7535 63.6705 23.5664 63.9322 23.4779Z" fill="#1D4EA0"/>
<path opacity="0.212" fill-rule="evenodd" clip-rule="evenodd" d="M71.7492 23.665C72.3548 23.72 72.8512 23.9693 73.2382 24.4133C72.6826 24.2588 72.1864 24.0094 71.7492 23.665Z" fill="#1D4EA0"/>
<path opacity="0.682" fill-rule="evenodd" clip-rule="evenodd" d="M24.847 24.0391C25.2656 24.1476 25.5756 24.397 25.7776 24.7874C25.359 24.6789 25.0489 24.4295 24.847 24.0391Z" fill="#1D4EA0"/>
<path opacity="0.976" fill-rule="evenodd" clip-rule="evenodd" d="M24.4748 23.665C25.3782 23.8614 26.0607 24.3603 26.5221 25.1616C26.2145 25.1316 25.9664 25.0071 25.7776 24.7874C25.5757 24.397 25.2656 24.1476 24.847 24.0391C24.6609 23.9768 24.5368 23.8521 24.4748 23.665Z" fill="#1D4EA0"/>
<path opacity="0.992" fill-rule="evenodd" clip-rule="evenodd" d="M33.4085 23.665C33.2844 23.8521 33.1604 24.0391 33.0363 24.2262C32.8945 24.5558 32.6462 24.7429 32.2918 24.7874C32.4409 24.499 32.5029 24.1873 32.4779 23.8521C32.7973 23.8279 33.1076 23.7656 33.4085 23.665Z" fill="#1D4EA0"/>
<path opacity="0.01" fill-rule="evenodd" clip-rule="evenodd" d="M33.7807 23.4779C33.7188 23.9144 33.4705 24.1639 33.0363 24.2262C33.1604 24.0391 33.2844 23.8521 33.4085 23.665C33.5326 23.6027 33.6566 23.5402 33.7807 23.4779Z" fill="#1D4EA0"/>
<path opacity="0.678" fill-rule="evenodd" clip-rule="evenodd" d="M78.8218 23.2908C78.8186 24.0455 78.6325 24.7315 78.2634 25.3487C78.2666 24.594 78.4527 23.908 78.8218 23.2908Z" fill="#1D4EA0"/>
<path opacity="0.576" fill-rule="evenodd" clip-rule="evenodd" d="M51.4622 23.665C51.5388 24.1276 51.3527 24.377 50.9038 24.4133C51.0922 24.1566 51.2783 23.9072 51.4622 23.665Z" fill="#1D4EA0"/>
<path opacity="0.102" fill-rule="evenodd" clip-rule="evenodd" d="M84.5915 23.8521C84.6051 24.1377 84.481 24.3248 84.2193 24.4133C84.2057 24.1276 84.3298 23.9405 84.5915 23.8521Z" fill="#1D4EA0"/>
<path opacity="0.29" fill-rule="evenodd" clip-rule="evenodd" d="M115.487 23.8521C115.749 23.9405 115.873 24.1276 115.86 24.4133C115.598 24.3248 115.474 24.1377 115.487 23.8521Z" fill="#1D4EA0"/>
<path opacity="0.384" fill-rule="evenodd" clip-rule="evenodd" d="M63.56 24.0391C63.5735 24.3248 63.4494 24.5119 63.1877 24.6003C63.1741 24.3147 63.2983 24.1276 63.56 24.0391Z" fill="#1D4EA0"/>
<path opacity="0.267" fill-rule="evenodd" clip-rule="evenodd" d="M104.692 24.0391C104.706 24.3248 104.582 24.5119 104.32 24.6003C104.307 24.3147 104.431 24.1276 104.692 24.0391Z" fill="#1D4EA0"/>
<path opacity="0.125" fill-rule="evenodd" clip-rule="evenodd" d="M56.6735 23.4779C56.6744 24.1751 56.4261 24.7364 55.929 25.1616C55.929 25.0368 55.929 24.9122 55.929 24.7874C56.1771 24.351 56.4254 23.9144 56.6735 23.4779Z" fill="#1D4EA0"/>
<path opacity="0.725" fill-rule="evenodd" clip-rule="evenodd" d="M101.156 24.0391C101.443 24.4765 101.567 24.9754 101.528 25.5357C101.292 25.0858 101.168 24.5869 101.156 24.0391Z" fill="#1D4EA0"/>
<path opacity="0.38" fill-rule="evenodd" clip-rule="evenodd" d="M24.2886 25.5357C23.9361 25.4332 23.626 25.2461 23.358 24.9745C23.2311 25.1135 23.1069 25.2381 22.9858 25.3486C22.934 25.0033 23.0582 24.7537 23.358 24.6003C23.7342 24.8538 24.0444 25.1655 24.2886 25.5357Z" fill="#1D4EA0"/>
<path opacity="0.255" fill-rule="evenodd" clip-rule="evenodd" d="M35.2697 25.9099C35.0568 25.6105 34.8396 25.2987 34.6183 24.9745C34.547 25.0785 34.4539 25.1408 34.3391 25.1616C34.3233 24.8819 34.4472 24.6948 34.7114 24.6003C35.0514 24.9721 35.2375 25.4087 35.2697 25.9099Z" fill="#1D4EA0"/>
<path fill-rule="evenodd" clip-rule="evenodd" d="M105.251 23.2908C105.127 24.1948 104.786 25.0054 104.227 25.7228C103.692 27.9544 104.126 29.8875 105.53 31.5221C105.654 31.3973 105.778 31.2728 105.902 31.148C106.244 31.4417 106.213 31.7223 105.809 31.9898C105.913 32.1789 106.037 32.3348 106.181 32.4575C106.057 32.4575 105.933 32.4575 105.809 32.4575C105.022 31.8115 104.463 31.0007 104.134 30.0255C104.152 29.6415 104.028 29.3296 103.762 29.0902C103.762 29.0279 103.762 28.9654 103.762 28.9031C103.748 27.7752 103.81 26.6528 103.948 25.5357C103.93 25.1517 104.054 24.8398 104.32 24.6004C104.582 24.5119 104.706 24.3248 104.692 24.0391C104.737 23.6829 104.923 23.4334 105.251 23.2908Z" fill="#1D4EA0"/>
<path opacity="0.471" fill-rule="evenodd" clip-rule="evenodd" d="M63.1877 24.6003C63.1434 24.9565 62.9573 25.2061 62.6293 25.3486C62.6736 24.9925 62.8597 24.7429 63.1877 24.6003Z" fill="#1D4EA0"/>
<path opacity="0.412" fill-rule="evenodd" clip-rule="evenodd" d="M73.6104 24.6003C74.0299 24.7171 74.3402 24.9664 74.541 25.3486C74.1139 25.2297 73.8038 24.9803 73.6104 24.6003Z" fill="#1D4EA0"/>
<path opacity="0.043" fill-rule="evenodd" clip-rule="evenodd" d="M32.2918 24.7874C32.1879 25.0287 32.0018 25.1846 31.7334 25.2551C30.3561 25.8438 28.9911 25.9374 27.6388 25.5357C29.2646 25.6977 30.8155 25.4483 32.2918 24.7874Z" fill="#1D4EA0"/>
<path fill-rule="evenodd" clip-rule="evenodd" d="M55.929 24.7874C55.929 24.9122 55.929 25.0368 55.929 25.1616C55.6673 25.2501 55.5432 25.4371 55.5568 25.7228C55.4097 25.9649 55.2236 26.1832 54.9984 26.3776C55.1019 26.4492 55.1639 26.5427 55.1845 26.6582C55.1845 26.7205 55.1845 26.7829 55.1845 26.8452C54.9992 26.8292 54.8441 26.8916 54.7192 27.0323C54.6444 26.7756 54.5514 26.5263 54.4401 26.284C54.6262 26.1592 54.8123 26.0346 54.9984 25.9099C54.4721 25.2181 54.5341 25.0933 55.1845 25.5357C55.3226 25.2349 55.3537 24.923 55.2776 24.6003C55.4658 24.7569 55.683 24.8192 55.929 24.7874Z" fill="#1D4EA0"/>
<path opacity="0.016" fill-rule="evenodd" clip-rule="evenodd" d="M55.929 25.1616C55.9426 25.4472 55.8185 25.6343 55.5568 25.7228C55.5432 25.4371 55.6673 25.25 55.929 25.1616Z" fill="#1D4EA0"/>
<path opacity="0.596" fill-rule="evenodd" clip-rule="evenodd" d="M74.541 25.3486C74.9903 25.6126 75.3006 25.9867 75.4716 26.4711C75.0223 26.2071 74.7121 25.833 74.541 25.3486Z" fill="#1D4EA0"/>
<path fill-rule="evenodd" clip-rule="evenodd" d="M24.2886 25.5357C24.3882 25.8998 24.6363 26.0868 25.0331 26.0969C25.2178 26.0648 25.3417 26.1272 25.4054 26.284C26.3654 27.0536 27.4821 27.4278 28.7555 27.4065C29.1034 27.4052 29.4136 27.3429 29.6861 27.2194C30.0146 27.0396 30.3869 26.9771 30.8028 27.0323C31.27 27.1157 31.6422 26.9912 31.9196 26.6582C32.5522 26.6378 33.0486 26.3884 33.4085 25.9099C33.8271 25.8014 34.1372 25.552 34.3391 25.1616C34.454 25.1408 34.547 25.0785 34.6183 24.9745C34.8396 25.2987 35.0568 25.6105 35.2697 25.9099C35.199 26.3211 35.3231 26.6329 35.642 26.8452C35.5712 27.2564 35.6954 27.5683 36.0142 27.7806C35.9435 28.1918 36.0676 28.5037 36.3864 28.716C36.3157 29.1272 36.4399 29.439 36.7587 29.6514C36.9165 30.6913 37.2887 31.6267 37.8754 32.4575C38.0314 32.5215 38.0935 32.6461 38.0615 32.8316C38.0615 33.0187 38.0615 33.2058 38.0615 33.3929C38.0615 33.8918 38.0615 34.3905 38.0615 34.8895C38.2476 34.8895 38.4338 34.8895 38.6199 34.8895C38.7369 35.2571 38.8611 35.6312 38.9921 36.0119C38.4014 36.5787 38.5255 36.9216 39.3644 37.0408C39.4732 37.2844 39.5972 37.5027 39.7366 37.6956C39.78 37.9878 39.9041 38.2372 40.1088 38.4439C38.5073 38.8126 36.8322 38.9374 35.0836 38.818C35.0836 38.6932 35.0216 38.6309 34.8975 38.6309C34.7415 38.567 34.6793 38.4424 34.7114 38.2568C34.4813 36.9086 34.0471 35.6301 33.4085 34.4218C30.3986 34.2669 27.4207 34.2981 24.4748 34.5153C24.0722 34.6766 23.7 34.739 23.358 34.7024C23.5047 35.0445 23.4117 35.3564 23.0789 35.6378C23.0478 35.8871 23.0169 36.1367 22.9858 36.3861C23.0811 36.8885 23.1122 37.3875 23.0789 37.8827C22.8425 37.4456 22.5633 37.4456 22.2413 37.8827C22.4701 38.0288 22.7182 38.1223 22.9858 38.1633C22.83 38.3524 22.768 38.5707 22.7997 38.818C21.1527 38.879 19.5396 38.8167 17.9606 38.6309C18.2026 37.9582 18.3887 37.2722 18.5189 36.5731C19.3539 35.1186 19.9742 33.5597 20.3801 31.8963C20.699 31.6839 20.8231 31.3721 20.7524 30.9609C21.0712 30.7486 21.1953 30.4367 21.1246 30.0255C21.4434 29.8132 21.5676 29.5013 21.4968 29.0901C21.8157 28.8778 21.9398 28.5659 21.8691 28.1548C22.3035 27.8412 22.4896 27.4048 22.4274 26.8452C22.8619 26.5317 23.048 26.0953 22.9858 25.5357C22.9858 25.4734 22.9858 25.4109 22.9858 25.3486C23.107 25.2381 23.2311 25.1135 23.358 24.9745C23.6261 25.2461 23.9361 25.4332 24.2886 25.5357Z" fill="#1D4EA0"/>
<path opacity="0.478" fill-rule="evenodd" clip-rule="evenodd" d="M24.2886 25.5357C24.6106 25.6341 24.8589 25.8212 25.0331 26.0969C24.6363 26.0868 24.3882 25.8998 24.2886 25.5357Z" fill="#1D4EA0"/>
<path opacity="0.408" fill-rule="evenodd" clip-rule="evenodd" d="M34.3391 25.1616C34.1372 25.552 33.8271 25.8014 33.4085 25.9099C33.6104 25.5194 33.9205 25.2701 34.3391 25.1616Z" fill="#1D4EA0"/>
<path opacity="0.502" fill-rule="evenodd" clip-rule="evenodd" d="M26.5221 25.1616C26.9684 25.1165 27.3406 25.2413 27.6388 25.5357C27.1925 25.5808 26.8203 25.456 26.5221 25.1616Z" fill="#1D4EA0"/>
<path opacity="0.216" fill-rule="evenodd" clip-rule="evenodd" d="M50.9038 24.4133C50.7679 24.7023 50.5198 24.8581 50.1593 24.881C49.3551 24.9743 48.5486 25.0055 47.7397 24.9745C47.5553 26.1866 47.4933 27.4338 47.5536 28.716C48.4842 28.716 49.4148 28.716 50.3454 28.716C50.7897 28.7931 51.1619 28.9801 51.4621 29.2772C50.1215 28.9511 48.7567 28.8266 47.3675 28.9031C47.3675 27.5312 47.3675 26.1592 47.3675 24.7874C48.5747 24.8658 49.7534 24.741 50.9038 24.4133Z" fill="#1D4EA0"/>
<path opacity="0.525" fill-rule="evenodd" clip-rule="evenodd" d="M33.4085 25.9099C33.0486 26.3884 32.5522 26.6378 31.9196 26.6582C32.3657 26.3411 32.8619 26.0917 33.4085 25.9099Z" fill="#1D4EA0"/>
<path opacity="0.851" fill-rule="evenodd" clip-rule="evenodd" d="M62.6293 25.3486C62.4808 25.81 62.2327 26.1841 61.8848 26.4711C61.949 25.9664 62.1971 25.5922 62.6293 25.3486Z" fill="#1D4EA0"/>
<path opacity="0.769" fill-rule="evenodd" clip-rule="evenodd" d="M22.9858 25.5357C23.048 26.0952 22.8618 26.5317 22.4274 26.8452C22.466 26.3325 22.6521 25.896 22.9858 25.5357Z" fill="#1D4EA0"/>
<path opacity="0.251" fill-rule="evenodd" clip-rule="evenodd" d="M25.4053 26.284C26.7627 26.8961 28.1897 27.208 29.6861 27.2194C29.4136 27.3428 29.1034 27.4051 28.7555 27.4064C27.4821 27.4278 26.3653 27.0536 25.4053 26.284Z" fill="#1D4EA0"/>
<path opacity="0.675" fill-rule="evenodd" clip-rule="evenodd" d="M35.2697 25.9099C35.5361 26.1493 35.6602 26.4612 35.642 26.8452C35.3232 26.6329 35.199 26.321 35.2697 25.9099Z" fill="#1D4EA0"/>
<path opacity="0.02" fill-rule="evenodd" clip-rule="evenodd" d="M55.1846 26.8453C55.1846 26.783 55.1846 26.7205 55.1846 26.6582C55.4688 26.6445 55.6549 26.7693 55.7429 27.0323C55.5365 27.0217 55.3504 26.9594 55.1846 26.8453Z" fill="#1D4EA0"/>
<path opacity="0.71" fill-rule="evenodd" clip-rule="evenodd" d="M31.9196 26.6581C31.6423 26.9911 31.27 27.1157 30.8029 27.0323C31.1219 26.8007 31.4941 26.6759 31.9196 26.6581Z" fill="#1D4EA0"/>
<path opacity="0.833" fill-rule="evenodd" clip-rule="evenodd" d="M47.7397 24.9745C47.7397 26.1592 47.7397 27.3442 47.7397 28.5289C48.6448 28.4692 49.5135 28.5315 50.3454 28.716C49.4148 28.716 48.4842 28.716 47.5536 28.716C47.4933 27.4338 47.5553 26.1865 47.7397 24.9745Z" fill="#1D4EA0"/>
<path opacity="0.388" fill-rule="evenodd" clip-rule="evenodd" d="M61.8848 26.4711C61.8984 26.7567 61.7743 26.9438 61.5126 27.0323C61.499 26.7466 61.6232 26.5596 61.8848 26.4711Z" fill="#1D4EA0"/>
<path opacity="0.4" fill-rule="evenodd" clip-rule="evenodd" d="M75.4716 26.4711C75.7996 26.6136 75.9857 26.8632 76.03 27.2194C75.702 27.0768 75.5159 26.8273 75.4716 26.4711Z" fill="#1D4EA0"/>
<path opacity="0.235" fill-rule="evenodd" clip-rule="evenodd" d="M103.948 25.5357C103.81 26.6527 103.748 27.7752 103.762 28.9031C103.638 28.5025 103.576 28.0659 103.576 27.5935C103.55 26.8551 103.674 26.1691 103.948 25.5357Z" fill="#1D4EA0"/>
<path opacity="0.01" fill-rule="evenodd" clip-rule="evenodd" d="M55.7429 27.0323C56.166 27.1178 56.4141 27.3672 56.4874 27.7806C56.1448 27.6118 55.8967 27.3623 55.7429 27.0323Z" fill="#1D4EA0"/>
<path opacity="0.769" fill-rule="evenodd" clip-rule="evenodd" d="M22.4274 26.8452C22.4896 27.4048 22.3035 27.8412 21.8691 28.1547C21.95 27.6577 22.1362 27.221 22.4274 26.8452Z" fill="#1D4EA0"/>
<path opacity="0.671" fill-rule="evenodd" clip-rule="evenodd" d="M35.6419 26.8452C35.8349 27.1127 35.9591 27.4246 36.0142 27.7806C35.6954 27.5683 35.5712 27.2564 35.6419 26.8452Z" fill="#1D4EA0"/>
<path opacity="0.38" fill-rule="evenodd" clip-rule="evenodd" d="M84.2193 24.4133C83.8846 25.4476 83.6363 26.5076 83.4748 27.5935C83.5615 28.1533 83.6235 28.7145 83.6609 29.2772C83.0651 27.5733 83.2512 25.9521 84.2193 24.4133Z" fill="#1D4EA0"/>
<path opacity="0.812" fill-rule="evenodd" clip-rule="evenodd" d="M116.046 24.7874C116.751 26.249 116.875 27.7456 116.418 29.2772C116.467 27.7636 116.342 26.267 116.046 24.7874Z" fill="#1D4EA0"/>
<path opacity="0.431" fill-rule="evenodd" clip-rule="evenodd" d="M78.2634 25.3486C78.2031 26.6308 78.2651 27.8781 78.4495 29.0901C78.4495 29.5891 78.4495 30.0878 78.4495 30.5867C77.9148 28.84 77.8528 27.094 78.2634 25.3486Z" fill="#1D4EA0"/>
<path opacity="0.824" fill-rule="evenodd" clip-rule="evenodd" d="M76.03 27.2194C76.5934 27.9185 76.9034 28.7291 76.9606 29.6513C76.9606 29.7136 76.9606 29.7761 76.9606 29.8384C76.8986 29.8384 76.8364 29.8384 76.7744 29.8384C76.5241 28.9625 76.276 28.0894 76.03 27.2194Z" fill="#1D4EA0"/>
<path opacity="0.451" fill-rule="evenodd" clip-rule="evenodd" d="M56.4874 27.7806C56.8153 27.9232 57.0014 28.1727 57.0457 28.5289C56.7178 28.3864 56.5317 28.1368 56.4874 27.7806Z" fill="#1D4EA0"/>
<path opacity="0.753" fill-rule="evenodd" clip-rule="evenodd" d="M61.5126 27.0323C61.4389 27.6349 61.1908 28.1338 60.7681 28.5289C60.8228 27.9201 61.0709 27.4212 61.5126 27.0323Z" fill="#1D4EA0"/>
<path opacity="0.18" fill-rule="evenodd" clip-rule="evenodd" d="M69.5158 28.1548C68.4593 28.0481 67.4666 28.2352 66.5378 28.716C66.7703 28.4099 67.0806 28.1916 67.4684 28.0612C68.1865 27.9097 68.8688 27.9409 69.5158 28.1548Z" fill="#1D4EA0"/>
<path opacity="0.808" fill-rule="evenodd" clip-rule="evenodd" d="M69.5157 28.1547C69.9403 28.0756 70.2505 28.2004 70.4463 28.5289C70.0922 28.4735 69.7819 28.3487 69.5157 28.1547Z" fill="#1D4EA0"/>
<path opacity="0.71" fill-rule="evenodd" clip-rule="evenodd" d="M36.0142 27.7806C36.2805 28.0201 36.4047 28.3319 36.3864 28.716C36.0676 28.5037 35.9435 28.1918 36.0142 27.7806Z" fill="#1D4EA0"/>
<path opacity="0.706" fill-rule="evenodd" clip-rule="evenodd" d="M21.8691 28.1548C21.9398 28.566 21.8156 28.8778 21.4968 29.0902C21.5519 28.7342 21.6761 28.4223 21.8691 28.1548Z" fill="#1D4EA0"/>
<path opacity="0.271" fill-rule="evenodd" clip-rule="evenodd" d="M70.4464 28.5289C70.7306 28.5152 70.9167 28.64 71.0047 28.9031C70.7205 28.9167 70.5344 28.7919 70.4464 28.5289Z" fill="#1D4EA0"/>
<path opacity="0.933" fill-rule="evenodd" clip-rule="evenodd" d="M6.60724 24.9745C9.21292 24.9745 11.8186 24.9745 14.4243 24.9745C14.4243 26.4711 14.4243 27.9677 14.4243 29.4643C11.8186 29.4643 9.21292 29.4643 6.60724 29.4643C9.11796 29.278 11.6616 29.2157 14.2382 29.2772C14.2382 27.9054 14.2382 26.5334 14.2382 25.1616C11.6616 25.2231 9.11796 25.1608 6.60724 24.9745Z" fill="#1D4EA0"/>
<path opacity="0.678" fill-rule="evenodd" clip-rule="evenodd" d="M36.3864 28.716C36.5794 28.9835 36.7036 29.2954 36.7587 29.6514C36.4399 29.439 36.3157 29.1272 36.3864 28.716Z" fill="#1D4EA0"/>
<path opacity="0.454" fill-rule="evenodd" clip-rule="evenodd" d="M14.4243 24.9745C14.4864 24.9745 14.5484 24.9745 14.6104 24.9745C14.7921 26.5139 14.7611 28.0728 14.5174 29.6514C11.9809 29.6272 9.40625 29.6585 6.7934 29.7449C6.61069 31.1942 6.54865 32.6595 6.60728 34.1412C6.60728 34.2035 6.60728 34.2659 6.60728 34.3282C6.54525 34.3282 6.4832 34.3282 6.42116 34.3282C6.36473 32.6911 6.42676 31.0698 6.60728 29.4643C9.21296 29.4643 11.8186 29.4643 14.4243 29.4643C14.4243 27.9677 14.4243 26.4711 14.4243 24.9745Z" fill="#1D4EA0"/>
<path opacity="0.298" fill-rule="evenodd" clip-rule="evenodd" d="M51.4622 29.2772C51.9585 29.402 52.2686 29.7137 52.3928 30.2126C52.0205 29.9632 51.7103 29.6514 51.4622 29.2772Z" fill="#1D4EA0"/>
<path opacity="0.686" fill-rule="evenodd" clip-rule="evenodd" d="M21.4969 29.0901C21.5676 29.5013 21.4435 29.8132 21.1246 30.0255C21.1797 29.6695 21.3039 29.3577 21.4969 29.0901Z" fill="#1D4EA0"/>
<path opacity="0.071" fill-rule="evenodd" clip-rule="evenodd" d="M65.9795 29.2772C65.5235 30.2182 65.3374 31.2161 65.4211 32.2704C65.2084 31.6201 65.1773 30.9343 65.3281 30.2126C65.4578 29.8227 65.675 29.5109 65.9795 29.2772Z" fill="#1D4EA0"/>
<path opacity="0.255" fill-rule="evenodd" clip-rule="evenodd" d="M103.762 29.0901C104.028 29.3296 104.152 29.6415 104.134 30.0255C103.868 29.7861 103.744 29.4742 103.762 29.0901Z" fill="#1D4EA0"/>
<path opacity="0.188" fill-rule="evenodd" clip-rule="evenodd" d="M71.5631 29.6514C71.8032 29.7558 71.9582 29.9428 72.0284 30.2126C72.1788 30.8724 72.1477 31.4959 71.9354 32.0833C72.0005 31.2357 71.8764 30.4251 71.5631 29.6514Z" fill="#1D4EA0"/>
<path opacity="0.851" fill-rule="evenodd" clip-rule="evenodd" d="M83.6609 29.2772C83.8909 29.6792 84.077 30.1157 84.2192 30.5867C83.9866 30.5723 83.8315 30.4476 83.7539 30.2126C83.662 29.9069 83.6311 29.5951 83.6609 29.2772Z" fill="#1D4EA0"/>
<path opacity="0.733" fill-rule="evenodd" clip-rule="evenodd" d="M36.7587 29.6514C37.2735 30.5151 37.6457 31.4505 37.8754 32.4575C37.2887 31.6267 36.9165 30.6913 36.7587 29.6514Z" fill="#1D4EA0"/>
<path opacity="0.298" fill-rule="evenodd" clip-rule="evenodd" d="M57.0457 28.5289C57.511 29.1201 57.7591 29.8061 57.7902 30.5868C57.6661 30.3997 57.5421 30.2126 57.418 30.0255C57.1853 29.5567 57.0613 29.0578 57.0457 28.5289Z" fill="#1D4EA0"/>
<path opacity="0.718" fill-rule="evenodd" clip-rule="evenodd" d="M21.1246 30.0255C21.1953 30.4367 21.0712 30.7486 20.7524 30.9609C20.8075 30.6049 20.9316 30.293 21.1246 30.0255Z" fill="#1D4EA0"/>
<path opacity="0.858" fill-rule="evenodd" clip-rule="evenodd" d="M6.60723 29.4643C6.42671 31.0698 6.36467 32.6911 6.42111 34.3282C6.29721 33.5513 6.23515 32.7405 6.23499 31.8963C6.23646 31.0129 6.36052 30.2023 6.60723 29.4643Z" fill="#1D4EA0"/>
<path opacity="0.337" fill-rule="evenodd" clip-rule="evenodd" d="M76.9605 29.6514C77.3611 31.0374 77.2991 32.4405 76.7744 33.8606C76.8364 33.9228 76.8986 33.9853 76.9605 34.0476C76.7281 34.418 76.48 34.7609 76.2161 35.0765C76.8639 33.3964 77.1122 31.6504 76.9605 29.8384C76.9605 29.7761 76.9605 29.7137 76.9605 29.6514Z" fill="#1D4EA0"/>
<path opacity="0.067" fill-rule="evenodd" clip-rule="evenodd" d="M84.2192 30.5867C84.5449 30.8036 84.7311 31.1154 84.7776 31.5221C84.4519 31.3053 84.2658 30.9934 84.2192 30.5867Z" fill="#1D4EA0"/>
<path opacity="0.01" fill-rule="evenodd" clip-rule="evenodd" d="M78.4495 30.5867C78.7864 31.0815 78.9725 31.6428 79.0079 32.2704C78.671 31.7756 78.4849 31.2144 78.4495 30.5867Z" fill="#1D4EA0"/>
<path opacity="0.506" fill-rule="evenodd" clip-rule="evenodd" d="M95.5726 30.7738C95.5862 31.0595 95.462 31.2465 95.2003 31.335C95.1868 31.0494 95.3109 30.8623 95.5726 30.7738Z" fill="#1D4EA0"/>
<path opacity="0.718" fill-rule="evenodd" clip-rule="evenodd" d="M20.7523 30.9609C20.8231 31.3721 20.6989 31.6839 20.3801 31.8963C20.3619 31.5122 20.486 31.2003 20.7523 30.9609Z" fill="#1D4EA0"/>
<path opacity="0.027" fill-rule="evenodd" clip-rule="evenodd" d="M52.3928 30.2126C52.6857 30.5123 52.8099 30.8864 52.765 31.335C52.8212 31.8138 52.759 32.2504 52.5789 32.6446C52.6027 31.825 52.5407 31.0142 52.3928 30.2126Z" fill="#1D4EA0"/>
<path opacity="0.01" fill-rule="evenodd" clip-rule="evenodd" d="M84.7776 31.5221C85.0921 31.5887 85.2783 31.7758 85.3359 32.0833C85.0214 32.0167 84.8353 31.8296 84.7776 31.5221Z" fill="#1D4EA0"/>
<path opacity="0.01" fill-rule="evenodd" clip-rule="evenodd" d="M114.929 31.8962C114.929 32.1456 114.805 32.2704 114.557 32.2704C114.619 32.0833 114.743 31.9585 114.929 31.8962Z" fill="#1D4EA0"/>
<path opacity="0.523" fill-rule="evenodd" clip-rule="evenodd" d="M46.4369 32.6445C44.8396 32.4631 43.2265 32.4008 41.5978 32.4575C41.6614 32.3007 41.7854 32.2382 41.97 32.2704C43.4013 32.158 44.8281 32.1267 46.2508 32.1769C46.3907 32.3024 46.4529 32.4582 46.4369 32.6445Z" fill="#1D4EA0"/>
<path opacity="0.975" fill-rule="evenodd" clip-rule="evenodd" d="M57.418 30.0255C57.5421 30.2126 57.6661 30.3997 57.7902 30.5867C58.0383 31.3973 58.0383 32.2081 57.7902 33.0187C57.5736 33.6755 57.3874 34.3613 57.2318 35.0765C57.2021 35.3858 57.0781 35.6351 56.8596 35.8248C56.7355 35.9496 56.6115 36.0742 56.4874 36.199C56.6227 35.2818 56.9019 34.4087 57.3249 33.5799C57.418 32.3967 57.4489 31.2119 57.418 30.0255Z" fill="#1D4EA0"/>
<path opacity="0.944" fill-rule="evenodd" clip-rule="evenodd" d="M41.5978 32.4575C43.2265 32.4008 44.8396 32.4631 46.4369 32.6446C46.3731 33.0156 46.4972 33.2651 46.8092 33.3929C46.993 33.6351 47.1792 33.8845 47.3675 34.1412C47.514 34.4412 47.7621 34.566 48.112 34.5153C48.1898 34.6504 48.3138 34.7439 48.4842 34.7959C49.1016 34.8891 49.7219 34.9203 50.3454 34.8895C50.0097 35.0133 49.6374 35.0756 49.2287 35.0766C48.4573 35.0395 47.7128 34.9147 46.9953 34.7024C46.9953 34.8895 46.9953 35.0766 46.9953 35.2636C46.6517 35.3156 46.4034 35.1909 46.2508 34.8895C46.4762 34.6612 46.4762 34.4429 46.2508 34.2347C46.4012 34.1771 46.5253 34.0836 46.623 33.9541C46.2065 33.6252 46.0204 33.1886 46.0647 32.6446C44.5757 32.6446 43.0868 32.6446 41.5978 32.6446C41.5978 32.8317 41.5978 33.0187 41.5978 33.2058C41.9306 33.1525 42.2408 33.2148 42.5284 33.3929C42.3749 33.5586 42.1887 33.6209 41.97 33.58C41.9658 33.9728 42.0899 34.3157 42.3423 34.6089C42.2217 34.8783 42.1597 35.1589 42.1562 35.4507C41.5503 34.5151 41.3642 33.5173 41.5978 32.4575Z" fill="#1D4EA0"/>
<path opacity="0.98" fill-rule="evenodd" clip-rule="evenodd" d="M114.371 32.4575C114.229 32.7871 113.981 32.9742 113.626 33.0187C113.831 32.8509 113.831 32.695 113.626 32.551C113.867 32.4593 114.115 32.4281 114.371 32.4575Z" fill="#1D4EA0"/>
<path opacity="0.502" fill-rule="evenodd" clip-rule="evenodd" d="M41.97 32.2704C41.7854 32.2382 41.6614 32.3007 41.5978 32.4575C41.3642 33.5173 41.5503 34.5151 42.1561 35.4507C42.2181 35.7 42.2803 35.9496 42.3423 36.199C42.0378 35.9653 41.8206 35.6535 41.6908 35.2636C41.2991 34.2438 41.144 33.2149 41.2255 32.1769C41.517 32.0337 41.7651 32.065 41.97 32.2704Z" fill="#1D4EA0"/>
<path opacity="0.224" fill-rule="evenodd" clip-rule="evenodd" d="M79.0079 32.2704C79.459 32.7396 79.7691 33.3008 79.9385 33.9541C79.4873 33.4849 79.1772 32.9237 79.0079 32.2704Z" fill="#1D4EA0"/>
<path opacity="0.012" fill-rule="evenodd" clip-rule="evenodd" d="M85.7082 32.4575C86.0302 32.5559 86.2785 32.7429 86.4527 33.0187C86.0559 33.0086 85.8078 32.8215 85.7082 32.4575Z" fill="#1D4EA0"/>
<path opacity="0.839" fill-rule="evenodd" clip-rule="evenodd" d="M94.8281 31.7092C94.642 32.2704 94.2697 32.6445 93.7114 32.8316C94.0216 32.3952 94.3939 32.021 94.8281 31.7092Z" fill="#1D4EA0"/>
<path opacity="0.459" fill-rule="evenodd" clip-rule="evenodd" d="M105.809 32.4575C105.933 32.4575 106.057 32.4575 106.181 32.4575C106.243 32.5822 106.306 32.7068 106.368 32.8316C106.083 32.8453 105.897 32.7205 105.809 32.4575Z" fill="#1D4EA0"/>
<path opacity="0.957" fill-rule="evenodd" clip-rule="evenodd" d="M52.765 31.335C52.9768 31.8596 53.0079 32.4208 52.858 33.0187C52.7795 33.379 52.5623 33.5661 52.2066 33.5799C52.2797 33.2462 52.4037 32.9345 52.5788 32.6445C52.759 32.2504 52.8212 31.8137 52.765 31.335Z" fill="#1D4EA0"/>
<path opacity="0.082" fill-rule="evenodd" clip-rule="evenodd" d="M60.7682 28.5289C60.1337 30.9098 60.3198 33.217 61.3265 35.4507C60.7948 34.8809 60.4536 34.1949 60.3029 33.3929C59.8541 31.6877 60.0092 30.0663 60.7682 28.5289Z" fill="#1D4EA0"/>
<path opacity="0.482" fill-rule="evenodd" clip-rule="evenodd" d="M106.367 32.8316C106.652 32.818 106.838 32.9428 106.926 33.2058C106.642 33.2194 106.456 33.0947 106.367 32.8316Z" fill="#1D4EA0"/>
<path opacity="0.012" fill-rule="evenodd" clip-rule="evenodd" d="M38.0615 32.8317C38.3803 33.044 38.5045 33.3558 38.4338 33.767C38.3096 33.6423 38.1857 33.5177 38.0615 33.3929C38.0615 33.2058 38.0615 33.0187 38.0615 32.8317Z" fill="#1D4EA0"/>
<path opacity="0.773" fill-rule="evenodd" clip-rule="evenodd" d="M46.4369 32.6445C46.6554 32.8342 46.7794 33.0836 46.8092 33.3928C46.4972 33.2651 46.3731 33.0155 46.4369 32.6445Z" fill="#1D4EA0"/>
<path opacity="0.22" fill-rule="evenodd" clip-rule="evenodd" d="M65.6073 32.8317C65.869 32.9202 65.9931 33.1072 65.9795 33.3929C65.7178 33.3044 65.5937 33.1173 65.6073 32.8317Z" fill="#1D4EA0"/>
<path opacity="0.816" fill-rule="evenodd" clip-rule="evenodd" d="M71.9353 32.2704C72.0226 32.8116 71.8365 33.1857 71.377 33.3928C71.4685 32.959 71.6546 32.5849 71.9353 32.2704Z" fill="#1D4EA0"/>
<path opacity="0.984" fill-rule="evenodd" clip-rule="evenodd" d="M76.7744 29.8384C76.8364 29.8384 76.8986 29.8384 76.9606 29.8384C77.1122 31.6504 76.864 33.3964 76.2161 35.0765C75.8762 35.3846 75.6279 35.7588 75.4716 36.199C75.2235 36.3861 74.9752 36.5731 74.7271 36.7602C74.8252 36.2493 74.9802 35.7504 75.1924 35.2636C75.2695 35.3491 75.3625 35.4116 75.4716 35.4507C76.5623 33.7496 76.9965 31.8789 76.7744 29.8384Z" fill="#1D4EA0"/>
<path opacity="0.988" fill-rule="evenodd" clip-rule="evenodd" d="M93.7114 32.8317C93.5543 33.2543 93.244 33.4413 92.7808 33.3929C93.0411 33.1329 93.3514 32.9458 93.7114 32.8317Z" fill="#1D4EA0"/>
<path opacity="0.122" fill-rule="evenodd" clip-rule="evenodd" d="M106.926 33.2058C107.21 33.1921 107.396 33.3169 107.484 33.5799C107.2 33.5936 107.014 33.4688 106.926 33.2058Z" fill="#1D4EA0"/>
<path opacity="0.071" fill-rule="evenodd" clip-rule="evenodd" d="M57.7902 33.0187C57.8598 33.7945 57.6737 34.4805 57.2319 35.0765C57.3875 34.3613 57.5736 33.6755 57.7902 33.0187Z" fill="#1D4EA0"/>
<path opacity="0.824" fill-rule="evenodd" clip-rule="evenodd" d="M107.67 33.58C108.888 33.8853 110.129 34.01 111.393 33.9541C110.559 34.1689 109.69 34.2001 108.787 34.0476C108.373 33.9418 108.001 33.7857 107.67 33.58Z" fill="#1D4EA0"/>
<path opacity="0.22" fill-rule="evenodd" clip-rule="evenodd" d="M86.4527 33.0187C88.1067 33.8362 89.844 34.0856 91.6641 33.767C90.2542 34.2635 88.8272 34.2322 87.3833 33.6734C86.9954 33.543 86.6852 33.3247 86.4527 33.0187Z" fill="#1D4EA0"/>
<path opacity="0.012" fill-rule="evenodd" clip-rule="evenodd" d="M79.9385 33.9541C80.2002 34.0426 80.3243 34.2297 80.3107 34.5153C80.0491 34.4268 79.9249 34.2398 79.9385 33.9541Z" fill="#1D4EA0"/>
<path opacity="0.364" fill-rule="evenodd" clip-rule="evenodd" d="M34.7114 38.2568C34.2491 37.044 33.7527 35.828 33.2224 34.6088C30.4306 34.4841 27.6388 34.4841 24.847 34.6088C24.624 35.1072 24.3759 35.5749 24.1025 36.0119C24.1182 35.483 24.2421 34.9841 24.4748 34.5153C27.4207 34.2981 30.3986 34.2669 33.4085 34.4218C34.0471 35.6301 34.4813 36.9085 34.7114 38.2568Z" fill="#1D4EA0"/>
<path opacity="0.682" fill-rule="evenodd" clip-rule="evenodd" d="M38.4337 33.767C38.7001 34.0065 38.8242 34.3183 38.806 34.7024C38.4872 34.4901 38.363 34.1782 38.4337 33.767Z" fill="#1D4EA0"/>
<path opacity="0.09" fill-rule="evenodd" clip-rule="evenodd" d="M47.3675 34.1412C47.6751 34.1711 47.9232 34.2957 48.112 34.5153C47.7621 34.566 47.514 34.4412 47.3675 34.1412Z" fill="#1D4EA0"/>
<path opacity="0.314" fill-rule="evenodd" clip-rule="evenodd" d="M52.2066 33.58C52.0637 34.1528 51.6914 34.4644 51.0899 34.5153C51.4547 34.2055 51.8269 33.8937 52.2066 33.58Z" fill="#1D4EA0"/>
<path opacity="0.804" fill-rule="evenodd" clip-rule="evenodd" d="M71.0047 33.767C70.7747 34.3509 70.3405 34.6004 69.7019 34.5153C70.1045 34.2192 70.5387 33.9698 71.0047 33.767Z" fill="#1D4EA0"/>
<path opacity="0.051" fill-rule="evenodd" clip-rule="evenodd" d="M66.5378 33.9541C67.5293 34.4424 68.584 34.6294 69.7019 34.5153C68.9926 34.7295 68.2481 34.7608 67.4684 34.6089C67.0806 34.4785 66.7703 34.2602 66.5378 33.9541Z" fill="#1D4EA0"/>
<path opacity="0.702" fill-rule="evenodd" clip-rule="evenodd" d="M20.3801 31.8962C19.9742 33.5597 19.3539 35.1186 18.5189 36.5731C18.9969 34.9426 19.6172 33.3837 20.3801 31.8962Z" fill="#1D4EA0"/>
<path fill-rule="evenodd" clip-rule="evenodd" d="M38.0615 33.3929C38.1857 33.5177 38.3096 33.6423 38.4338 33.767C38.363 34.1782 38.4872 34.4901 38.806 34.7024C39.0723 34.9419 39.1965 35.2537 39.1782 35.6378C39.2264 36.1564 39.4126 36.5928 39.7366 36.9473C39.7366 37.1967 39.7366 37.4462 39.7366 37.6956C39.5972 37.5027 39.4732 37.2844 39.3644 37.0408C38.5255 36.9217 38.4014 36.5788 38.9921 36.0119C38.8611 35.6312 38.737 35.2571 38.6199 34.8895C38.4338 34.8895 38.2476 34.8895 38.0615 34.8895C38.0615 34.3906 38.0615 33.8918 38.0615 33.3929Z" fill="#1D4EA0"/>
<path opacity="0.075" fill-rule="evenodd" clip-rule="evenodd" d="M48.112 34.5153C49.1046 34.7647 50.0973 34.7647 51.0899 34.5153C50.9012 34.7349 50.6531 34.8595 50.3454 34.8895C49.7219 34.9203 49.1016 34.8891 48.4842 34.7959C48.3138 34.7439 48.1898 34.6504 48.112 34.5153Z" fill="#1D4EA0"/>
<path opacity="0.01" fill-rule="evenodd" clip-rule="evenodd" d="M80.3107 34.5153C80.6387 34.6579 80.8248 34.9074 80.8691 35.2636C80.5411 35.1211 80.355 34.8715 80.3107 34.5153Z" fill="#1D4EA0"/>
<path opacity="0.608" fill-rule="evenodd" clip-rule="evenodd" d="M80.8691 35.2636C81.2413 35.2636 81.4274 35.4507 81.4274 35.8248C81.1793 35.7001 80.9932 35.513 80.8691 35.2636Z" fill="#1D4EA0"/>
<path opacity="0.999" fill-rule="evenodd" clip-rule="evenodd" d="M24.4748 34.5153C24.2421 34.9841 24.1182 35.4831 24.1026 36.0119C23.9877 36.0327 23.8947 36.095 23.8234 36.199C23.6106 36.812 23.4554 37.4356 23.3581 38.0697C23.4022 38.3113 23.3402 38.4983 23.172 38.631C21.4174 39.0541 19.6182 39.1166 17.7745 38.818C17.7975 38.7045 17.8595 38.6422 17.9606 38.631C19.5396 38.8167 21.1527 38.879 22.7997 38.818C22.7681 38.5707 22.83 38.3524 22.9858 38.1633C22.7182 38.1223 22.4701 38.0288 22.2414 37.8827C22.5633 37.4457 22.8425 37.4457 23.0789 37.8827C23.1122 37.3875 23.0811 36.8886 22.9858 36.3861C23.0169 36.1367 23.0478 35.8871 23.0789 35.6378C23.4117 35.3564 23.5047 35.0446 23.3581 34.7024C23.7 34.7391 24.0722 34.6766 24.4748 34.5153Z" fill="#1D4EA0"/>
<path opacity="0.082" fill-rule="evenodd" clip-rule="evenodd" d="M76.2161 35.0765C76.1519 35.5813 75.9038 35.9554 75.4716 36.199C75.628 35.7588 75.8762 35.3847 76.2161 35.0765Z" fill="#1D4EA0"/>
<path fill-rule="evenodd" clip-rule="evenodd" d="M99.2949 34.7024C98.6785 35.6961 97.872 36.5067 96.8754 37.1344C96.8754 36.885 96.8754 36.6354 96.8754 36.3861C97.1309 36.4154 97.3792 36.3842 97.6198 36.2925C97.5348 36.2151 97.4726 36.1215 97.4337 36.0119C97.6625 35.8658 97.9106 35.7723 98.1782 35.7313C98.0931 35.6539 98.031 35.5603 97.9921 35.4507C98.2134 35.2769 98.4615 35.2146 98.7366 35.2636C98.7068 34.9458 98.7377 34.6339 98.8296 34.3282C98.9072 34.5632 99.0623 34.688 99.2949 34.7024Z" fill="#1D4EA0"/>
<path opacity="0.922" fill-rule="evenodd" clip-rule="evenodd" d="M106.74 35.2636C106.554 35.2636 106.368 35.2636 106.181 35.2636C106.221 35.5777 106.097 35.7648 105.809 35.8248C105.877 34.9903 106.187 34.8032 106.74 35.2636Z" fill="#1D4EA0"/>
<path fill-rule="evenodd" clip-rule="evenodd" d="M106.74 35.2636C107.4 35.3815 108.02 35.5685 108.601 35.8248C109.416 36.1449 110.285 36.2695 111.207 36.199C111.207 36.5731 111.207 36.9473 111.207 37.3214C110.932 37.2724 110.683 37.3347 110.462 37.5085C110.62 37.8656 110.682 38.2398 110.648 38.631C110.68 38.8165 110.618 38.9411 110.462 39.0051C110.276 39.0051 110.09 39.0051 109.904 39.0051C109.904 39.2545 109.904 39.504 109.904 39.7534C109.718 39.7534 109.532 39.7534 109.345 39.7534C109.345 40.1276 109.345 40.5017 109.345 40.8759C109.046 41.5402 108.611 42.1014 108.043 42.5595C107.794 42.5595 107.546 42.5595 107.298 42.5595C107.339 42.7793 107.277 42.9664 107.112 43.1208C106.206 43.3299 105.896 43.8288 106.181 44.6174C105.871 44.6174 105.561 44.6174 105.251 44.6174C105.251 44.8667 105.251 45.1163 105.251 45.3657C105.003 45.3657 104.754 45.3657 104.506 45.3657C104.506 45.615 104.506 45.8646 104.506 46.114C104.21 46.513 103.838 46.8246 103.39 47.0493C102.924 46.8013 102.428 46.7077 101.901 46.7687C102.064 47.0224 102.127 47.303 102.087 47.6105C101.839 47.6105 101.59 47.6105 101.342 47.6105C101.355 47.8835 101.293 48.1329 101.156 48.3588C100.864 48.1768 100.554 48.1456 100.226 48.2653C99.7344 48.5562 99.238 48.8368 98.7366 49.1071C98.6655 48.281 98.4794 47.5327 98.1782 46.8623C97.9921 46.1138 97.806 45.3655 97.6199 44.6174C97.5949 44.2821 97.6569 43.9704 97.806 43.682C97.9718 43.5679 98.1579 43.5056 98.3643 43.4949C98.6486 43.5086 98.8347 43.3838 98.9227 43.1208C99.1831 42.8607 99.4934 42.6736 99.8533 42.5595C100.138 42.5732 100.324 42.4484 100.412 42.1854C100.83 42.0769 101.14 41.8275 101.342 41.4371C101.528 41.1252 101.776 40.8759 102.087 40.6888C102.521 40.6265 102.769 40.3769 102.831 39.9405C103.017 39.6286 103.265 39.3793 103.576 39.1922C103.964 38.9892 104.212 38.6775 104.32 38.2568C104.582 38.1683 104.706 37.9812 104.692 37.6956C104.954 37.6071 105.078 37.42 105.065 37.1344C105.094 36.8251 105.218 36.5758 105.437 36.3861C105.699 36.2976 105.823 36.1105 105.809 35.8248C106.097 35.7648 106.221 35.5777 106.181 35.2636C106.368 35.2636 106.554 35.2636 106.74 35.2636Z" fill="#1D4EA0"/>
<path opacity="0.059" fill-rule="evenodd" clip-rule="evenodd" d="M111.579 35.8249C111.728 35.5658 111.852 35.597 111.951 35.9184C111.938 36.0615 111.876 36.155 111.765 36.199C111.797 36.0134 111.735 35.8888 111.579 35.8249Z" fill="#1D4EA0"/>
<path opacity="0.482" fill-rule="evenodd" clip-rule="evenodd" d="M61.5126 35.8248C61.8748 35.9249 62.0609 36.1743 62.071 36.5731C61.7967 36.398 61.6105 36.1485 61.5126 35.8248Z" fill="#1D4EA0"/>
<path opacity="0.635" fill-rule="evenodd" clip-rule="evenodd" d="M81.4274 35.8248C82.0394 36.1092 82.5356 36.5456 82.9164 37.1344C82.3089 36.8362 81.8125 36.3997 81.4274 35.8248Z" fill="#1D4EA0"/>
<path opacity="0.192" fill-rule="evenodd" clip-rule="evenodd" d="M105.809 35.8248C105.823 36.1105 105.699 36.2976 105.437 36.3861C105.423 36.1004 105.547 35.9133 105.809 35.8248Z" fill="#1D4EA0"/>
<path opacity="0.608" fill-rule="evenodd" clip-rule="evenodd" d="M62.071 36.5731C62.741 36.9342 63.2994 37.4331 63.7461 38.0697C63.076 37.7087 62.5177 37.2097 62.071 36.5731Z" fill="#1D4EA0"/>
<path opacity="0.227" fill-rule="evenodd" clip-rule="evenodd" d="M39.1782 35.6378C39.5023 35.9923 39.6884 36.4287 39.7366 36.9473C39.4125 36.5928 39.2264 36.1563 39.1782 35.6378Z" fill="#1D4EA0"/>
<path opacity="0.01" fill-rule="evenodd" clip-rule="evenodd" d="M42.3423 36.199C42.5284 36.2613 42.6525 36.386 42.7145 36.5731C42.7765 36.6979 42.8387 36.8225 42.9006 36.9473C42.5385 36.8472 42.3523 36.5978 42.3423 36.199Z" fill="#1D4EA0"/>
<path opacity="0.02" fill-rule="evenodd" clip-rule="evenodd" d="M56.8596 35.8248C56.3355 37.1211 55.4049 37.994 54.0678 38.4439C54.9861 37.8333 55.7926 37.085 56.4874 36.199C56.6115 36.0742 56.7355 35.9496 56.8596 35.8248Z" fill="#1D4EA0"/>
<path opacity="0.01" fill-rule="evenodd" clip-rule="evenodd" d="M24.1025 36.0119C24.05 36.7939 23.8019 37.4799 23.358 38.0697C23.4554 37.4355 23.6106 36.812 23.8233 36.199C23.8946 36.095 23.9877 36.0327 24.1025 36.0119Z" fill="#1D4EA0"/>
<path opacity="0.02" fill-rule="evenodd" clip-rule="evenodd" d="M75.4716 36.199C75.2855 37.0096 74.7891 37.5085 73.9827 37.6956C74.2308 37.3837 74.479 37.0721 74.7271 36.7602C74.9752 36.5731 75.2235 36.386 75.4716 36.199Z" fill="#1D4EA0"/>
<path opacity="0.01" fill-rule="evenodd" clip-rule="evenodd" d="M43.0867 37.1343C43.2729 37.1966 43.397 37.3214 43.459 37.5085C43.2109 37.5085 43.0867 37.3837 43.0867 37.1343Z" fill="#1D4EA0"/>
<path opacity="0.314" fill-rule="evenodd" clip-rule="evenodd" d="M82.9164 37.1344C83.2006 37.1207 83.3867 37.2455 83.4747 37.5085C83.1905 37.5222 83.0044 37.3974 82.9164 37.1344Z" fill="#1D4EA0"/>
<path fill-rule="evenodd" clip-rule="evenodd" d="M108.601 35.8248C109.594 35.8248 110.586 35.8248 111.579 35.8248C111.735 35.8888 111.797 36.0134 111.765 36.199C111.604 36.8365 111.387 37.4602 111.114 38.0697C111.043 38.3395 110.888 38.5266 110.648 38.631C110.682 38.2398 110.62 37.8656 110.462 37.5085C110.683 37.3347 110.932 37.2724 111.207 37.3214C111.207 36.9473 111.207 36.5731 111.207 36.199C110.285 36.2695 109.416 36.1449 108.601 35.8248Z" fill="#1D4EA0"/>
<path opacity="0.404" fill-rule="evenodd" clip-rule="evenodd" d="M105.065 37.1343C105.078 37.42 104.954 37.6071 104.692 37.6956C104.679 37.4099 104.803 37.2228 105.065 37.1343Z" fill="#1D4EA0"/>
<path opacity="0.992" fill-rule="evenodd" clip-rule="evenodd" d="M42.7145 36.5731C43.6096 37.2419 44.5402 37.8654 45.5063 38.4439C45.2582 38.4439 45.01 38.4439 44.7619 38.4439C44.6738 38.1808 44.4877 38.0561 44.2035 38.0697C43.8491 38.0252 43.6008 37.8381 43.459 37.5085C43.397 37.3214 43.2729 37.1966 43.0868 37.1343C42.9626 37.1343 42.9007 37.072 42.9007 36.9473C42.8387 36.8225 42.7765 36.6979 42.7145 36.5731Z" fill="#1D4EA0"/>
<path opacity="0.224" fill-rule="evenodd" clip-rule="evenodd" d="M83.4748 37.5085C83.759 37.4949 83.9451 37.6196 84.0332 37.8827C83.7489 37.8963 83.5628 37.7715 83.4748 37.5085Z" fill="#1D4EA0"/>
<path fill-rule="evenodd" clip-rule="evenodd" d="M96.8754 37.1343C93.759 39.4256 90.3469 40.0492 86.6388 39.0051C86.2666 38.7557 85.8943 38.5062 85.5221 38.2568C85.85 38.2835 86.1603 38.2211 86.4527 38.0697C86.7823 38.1698 86.8443 38.3258 86.6388 38.5374C88.8609 39.1087 91.0943 39.14 93.3391 38.6309C93.2891 38.2701 93.3821 37.9584 93.6183 37.6956C94.2325 37.7298 94.8218 37.5427 95.3864 37.1343C95.577 37.3875 95.8251 37.5122 96.1309 37.5085C96.157 37.2047 96.0328 36.9866 95.7587 36.8537C95.8564 36.7243 95.9805 36.6307 96.1309 36.5731C96.3299 36.8369 96.5782 37.024 96.8754 37.1343Z" fill="#1D4EA0"/>
<path opacity="0.024" fill-rule="evenodd" clip-rule="evenodd" d="M73.9827 37.6956C73.8946 37.9586 73.7085 38.0834 73.4243 38.0697C73.5124 37.8067 73.6985 37.6819 73.9827 37.6956Z" fill="#1D4EA0"/>
<path opacity="0.765" fill-rule="evenodd" clip-rule="evenodd" d="M39.7366 36.9473C40.0654 37.376 40.2516 37.8748 40.2949 38.4439C40.233 38.4439 40.1708 38.4439 40.1088 38.4439C39.9041 38.2371 39.7799 37.9878 39.7366 37.6956C39.7366 37.4462 39.7366 37.1966 39.7366 36.9473Z" fill="#1D4EA0"/>
<path opacity="0.486" fill-rule="evenodd" clip-rule="evenodd" d="M104.692 37.6956C104.706 37.9812 104.582 38.1683 104.32 38.2568C104.307 37.9711 104.431 37.784 104.692 37.6956Z" fill="#1D4EA0"/>
<path opacity="0.227" fill-rule="evenodd" clip-rule="evenodd" d="M44.2035 38.0697C44.4877 38.0561 44.6738 38.1809 44.7619 38.4439C44.4776 38.4575 44.2915 38.3328 44.2035 38.0697Z" fill="#1D4EA0"/>
<path opacity="0.82" fill-rule="evenodd" clip-rule="evenodd" d="M84.7776 38.2568C85.0257 38.2568 85.274 38.2568 85.5221 38.2568C85.8943 38.5062 86.2665 38.7558 86.6388 39.0051C85.9321 38.9355 85.3118 38.686 84.7776 38.2568Z" fill="#1D4EA0"/>
<path opacity="0.804" fill-rule="evenodd" clip-rule="evenodd" d="M44.7618 38.4438C45.0099 38.4438 45.2582 38.4438 45.5063 38.4438C46.1732 38.7918 46.8555 39.1037 47.5536 39.3792C46.5203 39.3235 45.5897 39.0118 44.7618 38.4438Z" fill="#1D4EA0"/>
<path opacity="0.212" fill-rule="evenodd" clip-rule="evenodd" d="M73.4243 38.0697C72.913 38.5761 72.2927 38.8878 71.5631 39.0051C72.1243 38.5984 72.7448 38.2865 73.4243 38.0697Z" fill="#1D4EA0"/>
<path opacity="0.875" fill-rule="evenodd" clip-rule="evenodd" d="M40.1089 38.4438C40.1708 38.4438 40.233 38.4438 40.295 38.4438C40.295 38.6309 40.295 38.818 40.295 39.0051C38.524 39.0662 36.787 39.0039 35.0836 38.818C36.8322 38.9374 38.5073 38.8126 40.1089 38.4438Z" fill="#1D4EA0"/>
<path opacity="0.69" fill-rule="evenodd" clip-rule="evenodd" d="M64.4905 38.4438C65.3666 38.6047 66.1732 38.9166 66.9101 39.3792C65.9925 39.3218 65.1861 39.0101 64.4905 38.4438Z" fill="#1D4EA0"/>
<path opacity="0.49" fill-rule="evenodd" clip-rule="evenodd" d="M104.32 38.2568C104.212 38.6776 103.964 38.9892 103.576 39.1922C103.684 38.7715 103.932 38.4598 104.32 38.2568Z" fill="#1D4EA0"/>
<path opacity="0.11" fill-rule="evenodd" clip-rule="evenodd" d="M6.60723 34.3282C6.60723 34.266 6.60723 34.2035 6.60723 34.1412C9.39903 34.1412 12.1908 34.1412 14.9826 34.1412C14.9826 35.8248 14.9826 37.5085 14.9826 39.1922C10.6569 39.131 6.34512 39.1933 2.04729 39.3793C1.80489 39.2698 1.58775 39.1452 1.39587 39.0051C5.86275 39.0051 10.3296 39.0051 14.7965 39.0051C14.7965 37.4462 14.7965 35.8871 14.7965 34.3282C12.0667 34.3282 9.33699 34.3282 6.60723 34.3282Z" fill="#1D4EA0"/>
<path opacity="0.31" fill-rule="evenodd" clip-rule="evenodd" d="M18.5189 36.5731C18.3887 37.2722 18.2026 37.9582 17.9606 38.6309C17.8595 38.6422 17.7975 38.7045 17.7745 38.818C19.6182 39.1166 21.4174 39.0541 23.1719 38.6309C23.1719 38.818 23.1719 39.0051 23.1719 39.1922C21.2488 39.1922 19.3254 39.1922 17.4022 39.1922C17.6687 38.2609 18.0409 37.388 18.5189 36.5731Z" fill="#1D4EA0"/>
<path opacity="0.315" fill-rule="evenodd" clip-rule="evenodd" d="M40.2949 38.4438C40.4608 38.5862 40.5849 38.7733 40.6672 39.0051C38.7479 39.192 36.8247 39.2543 34.8975 39.1921C34.8975 39.0051 34.8975 38.818 34.8975 38.6309C35.0216 38.6309 35.0836 38.6932 35.0836 38.818C36.787 39.0039 38.524 39.0662 40.2949 39.0051C40.2949 38.818 40.2949 38.6309 40.2949 38.4438Z" fill="#1D4EA0"/>
<path opacity="0.067" fill-rule="evenodd" clip-rule="evenodd" d="M53.3233 38.8181C52.716 39.2049 52.0335 39.392 51.276 39.3793C51.9157 39.109 52.598 38.9219 53.3233 38.8181Z" fill="#1D4EA0"/>
<path opacity="0.205" fill-rule="evenodd" clip-rule="evenodd" d="M71.5631 39.0051C70.0955 39.7577 68.6066 39.8825 67.0962 39.3793C68.6021 39.4281 70.091 39.3033 71.5631 39.0051Z" fill="#1D4EA0"/>
<path opacity="0.988" fill-rule="evenodd" clip-rule="evenodd" d="M110.462 39.0051C110.183 39.6923 109.811 40.3158 109.345 40.8759C109.345 40.5017 109.345 40.1276 109.345 39.7534C109.532 39.7534 109.718 39.7534 109.904 39.7534C109.904 39.5041 109.904 39.2545 109.904 39.0051C110.09 39.0051 110.276 39.0051 110.462 39.0051Z" fill="#1D4EA0"/>
<path opacity="0.682" fill-rule="evenodd" clip-rule="evenodd" d="M102.831 39.9405C102.769 40.3769 102.521 40.6265 102.087 40.6888C102.273 40.3769 102.521 40.1276 102.831 39.9405Z" fill="#1D4EA0"/>
<path opacity="0.016" fill-rule="evenodd" clip-rule="evenodd" d="M90.9196 41.4371C91.4131 41.4202 91.8474 41.5448 92.2224 41.8112C91.7288 41.828 91.2946 41.7034 90.9196 41.4371Z" fill="#1D4EA0"/>
<path opacity="0.851" fill-rule="evenodd" clip-rule="evenodd" d="M88.8723 41.4371C88.2581 41.8378 87.5756 42.0872 86.825 42.1854C87.4131 41.7177 88.0956 41.4683 88.8723 41.4371Z" fill="#1D4EA0"/>
<path fill-rule="evenodd" clip-rule="evenodd" d="M90.9195 41.437C91.2946 41.7034 91.7288 41.828 92.2224 41.8112C92.53 41.8411 92.7781 41.9657 92.9669 42.1853C93.1176 42.7739 93.4899 43.0857 94.0836 43.1207C94.0836 43.3078 94.0836 43.4949 94.0836 43.6819C93.828 43.6526 93.5798 43.6838 93.3391 43.7755C93.6371 43.8266 93.9163 43.9201 94.1766 44.0561C94.5165 43.8052 94.7337 43.8988 94.8281 44.3367C94.4579 44.6379 94.3959 44.9808 94.6419 45.3656C94.4875 46.1081 94.3635 46.8564 94.2697 47.6105C94.4558 47.6105 94.6419 47.6105 94.8281 47.6105C94.8697 47.1827 94.9939 46.7775 95.2003 46.3945C95.1253 46.119 95.0011 45.8696 94.8281 45.6462C95.1322 45.5538 95.4424 45.5228 95.7587 45.5527C95.7088 45.8518 95.7709 46.1012 95.9448 46.301C96.0689 46.4881 96.1929 46.6751 96.317 46.8622C96.6323 48.2348 96.4462 49.5443 95.7587 50.7908C95.4836 50.7418 95.2355 50.8041 95.0142 50.9779C94.6732 51.491 94.4871 52.0522 94.4558 52.6615C94.0642 52.6056 93.692 52.6679 93.3391 52.8486C93.4558 53.0202 93.518 53.2072 93.5252 53.4098C93.0435 53.8074 92.4852 54.0567 91.8501 54.1581C90.7945 54.2068 89.7397 54.2691 88.6861 54.3452C88.0719 53.9445 87.3894 53.6951 86.6388 53.5969C86.5507 53.3339 86.3646 53.2091 86.0804 53.2228C85.6462 52.6615 85.1498 52.1626 84.5915 51.7262C84.4837 51.1966 84.2356 50.7601 83.847 50.4166C83.847 50.1673 83.847 49.9177 83.847 49.6683C83.847 48.4211 83.847 47.1741 83.847 45.9268C83.9471 45.6243 84.0091 45.3125 84.0331 44.9915C84.2948 44.903 84.4189 44.7159 84.4053 44.4302C84.8502 44.17 85.1604 43.7959 85.3359 43.3078C85.895 42.9924 86.3912 42.6182 86.8249 42.1853C87.5755 42.0871 88.258 41.8378 88.8722 41.437C89.5735 41.1963 90.256 41.1963 90.9195 41.437Z" fill="#1D4EA0"/>
<path opacity="0.859" fill-rule="evenodd" clip-rule="evenodd" d="M101.342 41.4371C101.14 41.8275 100.83 42.0769 100.412 42.1854C100.614 41.7949 100.924 41.5456 101.342 41.4371Z" fill="#1D4EA0"/>
<path opacity="0.71" fill-rule="evenodd" clip-rule="evenodd" d="M100.412 42.1854C100.324 42.4484 100.138 42.5732 99.8533 42.5595C99.9414 42.2965 100.127 42.1717 100.412 42.1854Z" fill="#1D4EA0"/>
<path opacity="0.459" fill-rule="evenodd" clip-rule="evenodd" d="M86.8249 42.1854C86.3912 42.6183 85.895 42.9924 85.3359 43.3078C85.6734 42.7191 86.1698 42.3449 86.8249 42.1854Z" fill="#1D4EA0"/>
<path opacity="0.729" fill-rule="evenodd" clip-rule="evenodd" d="M98.9227 43.1208C98.8347 43.3838 98.6486 43.5086 98.3644 43.4949C98.4524 43.2319 98.6385 43.1071 98.9227 43.1208Z" fill="#1D4EA0"/>
<path fill-rule="evenodd" clip-rule="evenodd" d="M108.043 42.5595C107.558 43.3585 106.938 44.0443 106.181 44.6173C105.896 43.8288 106.206 43.3299 107.112 43.1207C107.277 42.9664 107.339 42.7793 107.298 42.5595C107.546 42.5595 107.794 42.5595 108.043 42.5595Z" fill="#1D4EA0"/>
<path opacity="0.678" fill-rule="evenodd" clip-rule="evenodd" d="M85.336 43.3078C85.1605 43.7959 84.8502 44.17 84.4054 44.4302C84.5865 43.9373 84.8968 43.5632 85.336 43.3078Z" fill="#1D4EA0"/>
<path opacity="0.808" fill-rule="evenodd" clip-rule="evenodd" d="M97.806 43.6819C97.6569 43.9704 97.5949 44.2821 97.6199 44.6173C97.066 44.1736 97.128 43.8617 97.806 43.6819Z" fill="#1D4EA0"/>
<path fill-rule="evenodd" clip-rule="evenodd" d="M92.9669 42.1854C94.4164 42.8944 95.4089 44.0168 95.9448 45.5527C95.9448 45.8021 95.9448 46.0516 95.9448 46.301C95.7709 46.1012 95.7088 45.8518 95.7587 45.5527C95.4424 45.5228 95.1322 45.5538 94.8281 45.6462C95.0011 45.8696 95.1253 46.119 95.2003 46.3945C94.9939 46.7775 94.8697 47.1827 94.8281 47.6105C94.6419 47.6105 94.4558 47.6105 94.2697 47.6105C94.3635 46.8564 94.4875 46.1081 94.6419 45.3656C94.3959 44.9808 94.4579 44.6379 94.8281 44.3367C94.7337 43.8988 94.5165 43.8052 94.1766 44.0561C93.9163 43.9201 93.6371 43.8266 93.3391 43.7755C93.5798 43.6838 93.828 43.6526 94.0836 43.682C94.0836 43.4949 94.0836 43.3078 94.0836 43.1207C93.4899 43.0858 93.1176 42.7739 92.9669 42.1854Z" fill="#1D4EA0"/>
<path opacity="0.157" fill-rule="evenodd" clip-rule="evenodd" d="M84.4053 44.4303C84.4189 44.716 84.2948 44.903 84.0331 44.9915C84.0195 44.7059 84.1437 44.5188 84.4053 44.4303Z" fill="#1D4EA0"/>
<path opacity="0.98" fill-rule="evenodd" clip-rule="evenodd" d="M106.181 44.6174C105.738 45.2499 105.18 45.7486 104.506 46.114C104.506 45.8646 104.506 45.615 104.506 45.3657C104.754 45.3657 105.003 45.3657 105.251 45.3657C105.251 45.1163 105.251 44.8667 105.251 44.6174C105.561 44.6174 105.871 44.6174 106.181 44.6174Z" fill="#1D4EA0"/>
<path opacity="0.067" fill-rule="evenodd" clip-rule="evenodd" d="M84.0331 44.9915C84.0091 45.3125 83.9471 45.6244 83.847 45.9269C83.785 45.9269 83.7228 45.9269 83.6609 45.9269C83.6426 45.5428 83.7668 45.231 84.0331 44.9915Z" fill="#1D4EA0"/>
<path opacity="0.529" fill-rule="evenodd" clip-rule="evenodd" d="M95.9448 45.5527C96.2098 45.9297 96.3338 46.3661 96.317 46.8623C96.1929 46.6752 96.0689 46.4881 95.9448 46.301C95.9448 46.0517 95.9448 45.8021 95.9448 45.5527Z" fill="#1D4EA0"/>
<path opacity="0.983" fill-rule="evenodd" clip-rule="evenodd" d="M83.6609 45.9269C83.7229 45.9269 83.785 45.9269 83.847 45.9269C83.847 47.1741 83.847 48.4211 83.847 49.6684C83.7229 49.419 83.5989 49.1694 83.4748 48.9201C83.2222 47.9078 83.2842 46.91 83.6609 45.9269Z" fill="#1D4EA0"/>
<path opacity="0.992" fill-rule="evenodd" clip-rule="evenodd" d="M103.39 47.0493C102.708 47.5797 101.963 48.0161 101.156 48.3589C101.293 48.1329 101.355 47.8835 101.342 47.6106C101.59 47.6106 101.839 47.6106 102.087 47.6106C102.127 47.303 102.064 47.0224 101.901 46.7687C102.428 46.7077 102.924 46.8013 103.39 47.0493Z" fill="#1D4EA0"/>
<path opacity="0.945" fill-rule="evenodd" clip-rule="evenodd" d="M98.1782 46.8622C98.4794 47.5327 98.6655 48.281 98.7366 49.1071C99.238 48.8368 99.7344 48.5562 100.226 48.2653C100.554 48.1456 100.864 48.1768 101.156 48.3588C100.304 48.9429 99.3729 49.3795 98.3644 49.6684C98.1961 49.5357 98.1341 49.3487 98.1782 49.1071C98.1782 48.3588 98.1782 47.6105 98.1782 46.8622Z" fill="#1D4EA0"/>
<path opacity="0.086" fill-rule="evenodd" clip-rule="evenodd" d="M83.4747 48.92C83.5989 49.1694 83.7228 49.419 83.847 49.6683C83.847 49.9177 83.847 50.1673 83.847 50.4166C83.5604 49.9793 83.4364 49.4803 83.4747 48.92Z" fill="#1D4EA0"/>
<path opacity="0.024" fill-rule="evenodd" clip-rule="evenodd" d="M98.1782 49.1071C98.1341 49.3486 98.1961 49.5357 98.3644 49.6683C98.1835 49.9024 98.0593 49.8401 97.9921 49.4813C98.0001 49.3099 98.0621 49.1851 98.1782 49.1071Z" fill="#1D4EA0"/>
<path opacity="0.275" fill-rule="evenodd" clip-rule="evenodd" d="M83.847 50.4167C84.2356 50.7602 84.4837 51.1966 84.5915 51.7262C84.2028 51.3827 83.9547 50.9463 83.847 50.4167Z" fill="#1D4EA0"/>
<path fill-rule="evenodd" clip-rule="evenodd" d="M95.7586 50.7908C95.4679 51.5189 95.0337 52.1425 94.4558 52.6616C94.4871 52.0523 94.6732 51.4911 95.0142 50.9779C95.2355 50.8041 95.4836 50.7418 95.7586 50.7908Z" fill="#1D4EA0"/>
<path opacity="0.01" fill-rule="evenodd" clip-rule="evenodd" d="M84.5915 51.7262C85.1499 52.1626 85.6462 52.6616 86.0805 53.2228C85.3979 52.9109 84.9018 52.4122 84.5915 51.7262Z" fill="#1D4EA0"/>
<path fill-rule="evenodd" clip-rule="evenodd" d="M94.4558 52.6616C94.1869 52.954 93.8768 53.2033 93.5252 53.4099C93.518 53.2073 93.4558 53.0202 93.3391 52.8486C93.692 52.6679 94.0642 52.6056 94.4558 52.6616Z" fill="#1D4EA0"/>
<path opacity="0.302" fill-rule="evenodd" clip-rule="evenodd" d="M86.0804 53.2228C86.3646 53.2092 86.5508 53.3339 86.6388 53.597C86.3546 53.6106 86.1685 53.4858 86.0804 53.2228Z" fill="#1D4EA0"/>
<path opacity="0.859" fill-rule="evenodd" clip-rule="evenodd" d="M86.6388 53.5969C87.3894 53.6951 88.0719 53.9445 88.6861 54.3452C87.9094 54.314 87.2269 54.0646 86.6388 53.5969Z" fill="#1D4EA0"/>
<path opacity="0.247" fill-rule="evenodd" clip-rule="evenodd" d="M91.8501 54.1581C91.2512 54.4301 90.5998 54.5549 89.8959 54.5323C89.4564 54.5315 89.0533 54.4692 88.6861 54.3452C89.7397 54.2691 90.7945 54.2068 91.8501 54.1581Z" fill="#1D4EA0"/>
</svg>
