<svg width="118" height="55" viewBox="0 0 118 55" fill="none" xmlns="http://www.w3.org/2000/svg">
<path opacity="0.776" fill-rule="evenodd" clip-rule="evenodd" d="M89.2445 0.654908C88.6104 0.949422 87.928 1.1365 87.1971 1.21613C87.8045 0.829219 88.487 0.642144 89.2445 0.654908Z" fill="#333461"/>
<path opacity="0.729" fill-rule="evenodd" clip-rule="evenodd" d="M86.8249 1.40335C86.7369 1.66644 86.5507 1.79116 86.2665 1.7775C86.3546 1.51442 86.5407 1.3897 86.8249 1.40335Z" fill="#333461"/>
<path fill-rule="evenodd" clip-rule="evenodd" d="M94.642 2.71278C94.6863 3.06905 94.8724 3.31847 95.2003 3.46108C95.526 3.67798 95.7122 3.98975 95.7587 4.39645C96.1819 5.60168 96.3681 6.84884 96.3171 8.13795C96.2022 8.15866 96.1092 8.22101 96.0379 8.32503C95.9454 8.75713 95.9145 9.19365 95.9448 9.63455C95.4512 9.75643 95.1411 10.0682 95.0142 10.5699C94.9051 10.5308 94.8121 10.4684 94.735 10.3828C94.5528 10.7234 94.2736 10.9416 93.8975 11.0376C94.6055 11.3172 94.5435 11.473 93.7114 11.5053C93.6494 11.8794 93.5872 12.2536 93.5253 12.6277C92.877 13.1397 92.1325 13.4515 91.2918 13.5631C89.9663 13.624 88.6634 13.4993 87.3833 13.189C87.0756 13.1591 86.8275 13.0344 86.6388 12.8148C86.5508 12.5517 86.3647 12.427 86.0805 12.4407C85.6462 11.8794 85.1499 11.3806 84.5915 10.9441C84.6051 10.6584 84.4809 10.4714 84.2193 10.3828C83.4085 9.05445 83.1604 7.6202 83.4748 6.08013C83.8117 5.58532 83.9978 5.02409 84.0331 4.39645C84.3172 4.28333 84.5033 4.06507 84.5915 3.74169C84.7679 3.65137 84.9541 3.62019 85.1499 3.64816C85.2118 3.27401 85.274 2.89986 85.336 2.52571C85.7546 2.41724 86.0646 2.16781 86.2666 1.77741C86.5508 1.79106 86.7369 1.66634 86.8249 1.40326C86.8886 1.24644 87.0126 1.18408 87.1972 1.21618C87.9281 1.13655 88.6104 0.949472 89.2445 0.654958C91.399 0.341079 93.1982 1.02702 94.642 2.71278Z" fill="#333461"/>
<path opacity="0.808" fill-rule="evenodd" clip-rule="evenodd" d="M86.2665 1.77734C86.0646 2.16775 85.7545 2.41718 85.3359 2.52564C85.5379 2.13524 85.848 1.88581 86.2665 1.77734Z" fill="#333461"/>
<path opacity="0.804" fill-rule="evenodd" clip-rule="evenodd" d="M94.642 2.71289C94.9699 2.8555 95.156 3.10492 95.2003 3.46119C94.8724 3.31858 94.6863 3.06916 94.642 2.71289Z" fill="#333461"/>
<path opacity="0.973" fill-rule="evenodd" clip-rule="evenodd" d="M85.336 2.52539C85.274 2.89954 85.2118 3.27369 85.1499 3.64784C84.9541 3.61987 84.7679 3.65106 84.5915 3.74138C84.5033 4.06475 84.3172 4.28301 84.0331 4.39614C84.2846 3.64006 84.719 3.01648 85.336 2.52539Z" fill="#333461"/>
<path opacity="0.914" fill-rule="evenodd" clip-rule="evenodd" d="M95.7587 4.39648C96.457 5.57539 96.6431 6.82256 96.317 8.13798C96.368 6.84887 96.1819 5.60171 95.7587 4.39648Z" fill="#333461"/>
<path opacity="0.741" fill-rule="evenodd" clip-rule="evenodd" d="M84.0332 4.39648C83.9978 5.02412 83.8117 5.58534 83.4748 6.08016C83.48 5.44104 83.6661 4.87981 84.0332 4.39648Z" fill="#333461"/>
<path opacity="0.047" fill-rule="evenodd" clip-rule="evenodd" d="M98.7366 5.51827C98.4241 5.47808 98.238 5.60281 98.1782 5.89242C98.01 5.75978 97.948 5.57271 97.9921 5.33119C98.2897 5.28109 98.5378 5.34345 98.7366 5.51827Z" fill="#333461"/>
<path opacity="0.996" fill-rule="evenodd" clip-rule="evenodd" d="M99.481 5.89258C100.502 6.24929 101.432 6.74815 102.273 7.38918C101.172 7.21873 100.18 6.81342 99.2949 6.17319C99.3984 6.10162 99.4604 6.00808 99.481 5.89258Z" fill="#333461"/>
<path opacity="0.973" fill-rule="evenodd" clip-rule="evenodd" d="M102.273 7.38965C102.833 7.6084 103.33 7.92019 103.762 8.32502C103.029 8.35402 102.533 8.04224 102.273 7.38965Z" fill="#333461"/>
<path opacity="0.894" fill-rule="evenodd" clip-rule="evenodd" d="M96.317 8.1377C96.3554 8.698 96.2314 9.19686 95.9448 9.63429C95.9145 9.1934 95.9454 8.75688 96.0379 8.32477C96.1091 8.22076 96.2022 8.1584 96.317 8.1377Z" fill="#333461"/>
<path fill-rule="evenodd" clip-rule="evenodd" d="M98.7366 5.51906C99.0442 5.54892 99.2923 5.67364 99.4811 5.89321C99.4604 6.00871 99.3984 6.10225 99.2949 6.17382C100.18 6.81405 101.172 7.21937 102.273 7.38981C102.533 8.0424 103.029 8.35418 103.762 8.32519C104.44 8.75866 105.061 9.25753 105.623 9.82178C105.623 10.1959 105.809 10.383 106.181 10.383C106.367 10.4454 106.492 10.5701 106.554 10.7572C106.725 11.2415 107.035 11.6157 107.484 11.8796C107.753 12.7013 108.249 13.3249 108.973 13.7504C108.96 14.036 109.084 14.2231 109.345 14.3116C109.332 14.5972 109.456 14.7843 109.718 14.8728C110.043 15.0897 110.229 15.4015 110.276 15.8082C110.262 16.0938 110.387 16.2809 110.648 16.3694C111.161 17.1021 111.534 17.9127 111.765 18.8014C111.705 19.091 111.519 19.2157 111.207 19.1755C110.242 18.963 109.25 18.963 108.229 19.1755C107.587 19.1022 106.998 19.227 106.461 19.5497C106.367 19.4874 106.274 19.4249 106.181 19.3626C106.549 19.2176 106.704 18.9681 106.647 18.6143C106.03 18.1647 105.379 17.7906 104.692 17.4919C104.66 17.1192 104.785 16.8074 105.065 16.5565C104.906 15.9742 104.689 15.9119 104.413 16.3694C104.322 16.1275 104.291 15.878 104.32 15.6211C103.795 15.6555 103.485 15.4061 103.39 14.8728C102.887 14.6124 102.391 14.3629 101.901 14.1245C101.759 13.7948 101.511 13.6077 101.156 13.5633C100.97 13.5009 100.846 13.3762 100.784 13.1891C100.411 12.2393 99.728 11.8028 98.7366 11.8796C98.6485 11.6165 98.4624 11.4918 98.1782 11.5055C97.779 11.461 97.4687 11.2739 97.2476 10.9442C97.4362 10.5651 97.6223 10.191 97.806 9.82178C98.1155 9.45914 98.2395 9.02264 98.1782 8.51226C98.1782 7.63924 98.1782 6.76623 98.1782 5.89321C98.238 5.6036 98.4241 5.47888 98.7366 5.51906Z" fill="#333461"/>
<path opacity="0.682" fill-rule="evenodd" clip-rule="evenodd" d="M98.1783 8.51172C98.2395 9.0221 98.1155 9.4586 97.806 9.82124C97.8472 9.34097 97.9713 8.90446 98.1783 8.51172Z" fill="#333461"/>
<path opacity="0.608" fill-rule="evenodd" clip-rule="evenodd" d="M105.623 9.82129C105.871 9.94601 106.057 10.1331 106.181 10.3825C105.809 10.3825 105.623 10.1954 105.623 9.82129Z" fill="#333461"/>
<path fill-rule="evenodd" clip-rule="evenodd" d="M95.9448 9.63477C95.4904 10.9234 94.684 11.9211 93.5252 12.628C93.5872 12.2538 93.6493 11.8797 93.7113 11.5055C94.5435 11.4733 94.6054 11.3174 93.8974 11.0378C94.2736 10.9419 94.5528 10.7236 94.735 10.3831C94.812 10.4686 94.9051 10.531 95.0142 10.5701C95.1411 10.0684 95.4512 9.75664 95.9448 9.63477Z" fill="#333461"/>
<path opacity="0.102" fill-rule="evenodd" clip-rule="evenodd" d="M84.2193 10.3828C84.481 10.4713 84.6051 10.6584 84.5915 10.944C84.3298 10.8555 84.2057 10.6685 84.2193 10.3828Z" fill="#333461"/>
<path opacity="0.655" fill-rule="evenodd" clip-rule="evenodd" d="M106.554 10.7568C107.003 11.0208 107.313 11.3949 107.484 11.8793C107.035 11.6154 106.725 11.2412 106.554 10.7568Z" fill="#333461"/>
<path opacity="0.01" fill-rule="evenodd" clip-rule="evenodd" d="M84.5915 10.9443C85.1499 11.3808 85.6462 11.8797 86.0805 12.4409C85.3979 12.1291 84.9018 11.6303 84.5915 10.9443Z" fill="#333461"/>
<path opacity="0.263" fill-rule="evenodd" clip-rule="evenodd" d="M98.1782 11.5049C98.4624 11.4913 98.6485 11.616 98.7366 11.8791C98.4524 11.8927 98.2663 11.768 98.1782 11.5049Z" fill="#333461"/>
<path fill-rule="evenodd" clip-rule="evenodd" d="M98.7366 11.8797C99.728 11.8029 100.411 12.2394 100.784 13.1892C100.36 13.0118 99.9879 12.7624 99.6672 12.4409C99.5791 12.1779 99.393 12.0531 99.1088 12.0668C98.9242 12.0989 98.8002 12.0365 98.7366 11.8797Z" fill="#333461"/>
<path opacity="0.314" fill-rule="evenodd" clip-rule="evenodd" d="M99.1088 12.0664C99.393 12.0528 99.5792 12.1775 99.6672 12.4406C99.383 12.4542 99.1969 12.3295 99.1088 12.0664Z" fill="#333461"/>
<path opacity="0.965" fill-rule="evenodd" clip-rule="evenodd" d="M107.484 11.8789C108.159 12.3643 108.655 12.9879 108.973 13.7497C108.249 13.3242 107.753 12.7006 107.484 11.8789Z" fill="#333461"/>
<path opacity="0.333" fill-rule="evenodd" clip-rule="evenodd" d="M86.0804 12.4405C86.3646 12.4268 86.5508 12.5515 86.6388 12.8146C86.3546 12.8283 86.1685 12.7035 86.0804 12.4405Z" fill="#333461"/>
<path opacity="0.09" fill-rule="evenodd" clip-rule="evenodd" d="M28.1971 13.376C29.4443 13.0591 30.623 13.2462 31.7334 13.9372C31.1213 13.7737 30.5007 13.649 29.8722 13.563C29.3535 13.3803 28.7951 13.318 28.1971 13.376Z" fill="#333461"/>
<path opacity="0.545" fill-rule="evenodd" clip-rule="evenodd" d="M28.1971 13.3755C28.7951 13.3175 29.3535 13.3798 29.8722 13.5625C28.6649 13.4973 27.4862 13.6221 26.3359 13.9367C26.8721 13.5289 27.4925 13.3418 28.1971 13.3755Z" fill="#333461"/>
<path opacity="0.302" fill-rule="evenodd" clip-rule="evenodd" d="M87.3833 13.1885C88.6634 13.4988 89.9663 13.6235 91.2918 13.5626C90.3955 13.7777 89.4649 13.8089 88.5 13.6562C88.0623 13.6112 87.69 13.4553 87.3833 13.1885Z" fill="#333461"/>
<path opacity="0.698" fill-rule="evenodd" clip-rule="evenodd" d="M101.156 13.5625C101.511 13.6069 101.759 13.794 101.901 14.1237C101.546 14.0793 101.298 13.8922 101.156 13.5625Z" fill="#333461"/>
<path fill-rule="evenodd" clip-rule="evenodd" d="M29.8722 13.5627C30.5008 13.6486 31.1213 13.7733 31.7334 13.9368C31.9181 13.9047 32.042 13.9671 32.1057 14.1239C32.7152 14.6731 33.3358 15.2343 33.9669 15.8076C34.0103 16.0998 34.1344 16.3492 34.3391 16.5559C34.373 16.9471 34.3108 17.3213 34.153 17.6783C34.5604 18.2001 34.8087 18.7925 34.8975 19.4555C34.7916 20.1696 34.7294 20.8869 34.7114 21.6069C34.4994 22.2826 34.1891 22.9063 33.7808 23.4776C33.6566 23.5399 33.5327 23.6024 33.4085 23.6647C33.1076 23.7654 32.7973 23.8277 32.4779 23.8518C32.5029 24.187 32.4409 24.4987 32.2918 24.7872C30.8155 25.4481 29.2646 25.6975 27.6388 25.5355C27.3406 25.241 26.9684 25.1162 26.5221 25.1613C26.0607 24.3601 25.3782 23.8612 24.4748 23.6647C24.0722 22.6059 23.5758 21.6082 22.9858 20.6715C22.7455 19.9043 22.7455 19.156 22.9858 18.4266C23.3845 17.8092 23.6326 17.1233 23.7303 16.3688C24.0582 16.2262 24.2444 15.9768 24.2887 15.6205C24.4748 15.6205 24.6609 15.6205 24.847 15.6205C24.8345 15.3476 24.8965 15.0982 25.0331 14.8722C25.3875 14.8278 25.6358 14.6407 25.7776 14.311C26.0618 14.3246 26.2479 14.1999 26.336 13.9368C27.4862 13.6222 28.6649 13.4975 29.8722 13.5627Z" fill="#333461"/>
<path opacity="0.573" fill-rule="evenodd" clip-rule="evenodd" d="M26.3359 13.9375C26.2479 14.2006 26.0618 14.3253 25.7776 14.3117C25.8656 14.0486 26.0517 13.9239 26.3359 13.9375Z" fill="#333461"/>
<path opacity="0.608" fill-rule="evenodd" clip-rule="evenodd" d="M108.973 13.75C109.235 13.8385 109.359 14.0256 109.345 14.3112C109.084 14.2227 108.96 14.0356 108.973 13.75Z" fill="#333461"/>
<path opacity="0.612" fill-rule="evenodd" clip-rule="evenodd" d="M25.7776 14.3115C25.6358 14.6412 25.3875 14.8283 25.0331 14.8727C25.175 14.543 25.4232 14.356 25.7776 14.3115Z" fill="#333461"/>
<path opacity="0.416" fill-rule="evenodd" clip-rule="evenodd" d="M32.1057 14.124C32.9625 14.4243 33.5831 14.9856 33.9669 15.8077C33.3357 15.2344 32.7152 14.6732 32.1057 14.124Z" fill="#333461"/>
<path opacity="0.549" fill-rule="evenodd" clip-rule="evenodd" d="M109.345 14.3115C109.607 14.4 109.731 14.5871 109.718 14.8727C109.456 14.7842 109.332 14.5972 109.345 14.3115Z" fill="#333461"/>
<path opacity="0.941" fill-rule="evenodd" clip-rule="evenodd" d="M25.0331 14.8721C24.8965 15.098 24.8345 15.3475 24.847 15.6204C24.6609 15.6204 24.4748 15.6204 24.2886 15.6204C24.4565 15.276 24.7048 15.0266 25.0331 14.8721Z" fill="#333461"/>
<path opacity="0.124" fill-rule="evenodd" clip-rule="evenodd" d="M47.7397 15.6206C48.7606 15.4051 49.8152 15.3739 50.9038 15.527C51.4541 15.5793 51.9503 15.7352 52.3927 15.9947C50.8554 15.7195 49.3043 15.5948 47.7397 15.6206Z" fill="#333461"/>
<path opacity="0.01" fill-rule="evenodd" clip-rule="evenodd" d="M103.017 15.2471C103.279 15.3356 103.403 15.5227 103.39 15.8083C103.128 15.7198 103.004 15.5327 103.017 15.2471Z" fill="#333461"/>
<path fill-rule="evenodd" clip-rule="evenodd" d="M1.58203 15.8076C5.92482 15.8076 10.2676 15.8076 14.6104 15.8076C14.6104 17.1795 14.6104 18.5514 14.6104 19.9233C11.9099 19.8617 9.24215 19.924 6.60727 20.1103C6.35911 21.7317 6.35911 23.3529 6.60727 24.9743C9.11799 25.1606 11.6616 25.2229 14.2382 25.1614C14.2382 26.5332 14.2382 27.9052 14.2382 29.277C11.6616 29.2155 9.11799 29.2778 6.60727 29.4641C6.36057 30.2021 6.2365 31.0127 6.23503 31.8961C6.2352 32.7403 6.29725 33.5511 6.42115 34.328C6.48318 34.328 6.54523 34.328 6.60727 34.328C9.24215 34.5144 11.9099 34.5766 14.6104 34.5151C14.6104 35.9494 14.6104 37.3835 14.6104 38.8178C10.2676 38.8178 5.92482 38.8178 1.58203 38.8178C1.58203 31.1478 1.58203 23.4777 1.58203 15.8076Z" fill="#333461"/>
<path opacity="0.565" fill-rule="evenodd" clip-rule="evenodd" d="M47.7397 15.6211C47.3675 15.8082 46.9952 15.9952 46.623 16.1823C46.2629 16.3038 45.8906 16.3662 45.5063 16.3694C46.1735 15.938 46.918 15.6886 47.7397 15.6211Z" fill="#333461"/>
<path opacity="0.263" fill-rule="evenodd" clip-rule="evenodd" d="M74.7272 16.7434C74.7292 16.4595 74.8532 16.2413 75.0994 16.0886C73.0999 15.9374 71.1146 15.9686 69.1436 16.1822C71.1194 15.8123 73.1667 15.6876 75.2855 15.808C75.3278 16.2631 75.1416 16.5749 74.7272 16.7434Z" fill="#333461"/>
<path opacity="0.878" fill-rule="evenodd" clip-rule="evenodd" d="M88.1277 15.8075C88.6828 15.6831 89.272 15.6207 89.8959 15.6204C90.8432 15.5911 91.7428 15.7158 92.5946 15.9945C91.1057 15.9322 89.6167 15.8698 88.1277 15.8075Z" fill="#333461"/>
<path opacity="0.451" fill-rule="evenodd" clip-rule="evenodd" d="M24.2886 15.6211C24.2443 15.9774 24.0582 16.2268 23.7303 16.3694C23.7746 16.0131 23.9607 15.7637 24.2886 15.6211Z" fill="#333461"/>
<path fill-rule="evenodd" clip-rule="evenodd" d="M54.9984 17.866C55.4998 18.1206 55.8721 18.4948 56.1151 18.9884C56.1505 19.6161 56.3366 20.1773 56.6735 20.6721C56.6735 21.6075 56.6735 22.5429 56.6735 23.4782C56.4254 23.9147 56.1771 24.3513 55.929 24.7878C55.683 24.8196 55.4658 24.7573 55.2776 24.6007C55.3537 24.9234 55.3226 25.2353 55.1845 25.5361C54.534 25.0936 54.4721 25.2184 54.9984 25.9102C54.8123 26.035 54.6262 26.1596 54.4401 26.2844C54.5513 26.5266 54.6444 26.776 54.7192 27.0327C54.8441 26.892 54.9992 26.8295 55.1845 26.8456C55.3504 26.9597 55.5365 27.022 55.7429 27.0327C55.8966 27.3627 56.1447 27.6122 56.4874 27.781C56.5317 28.1372 56.7178 28.3867 57.0457 28.5293C57.0614 29.0581 57.1853 29.5571 57.418 30.0259C57.4489 31.2123 57.418 32.397 57.3249 33.5803C56.9019 34.409 56.6227 35.2821 56.4874 36.1993C55.7926 37.0853 54.9861 37.8336 54.0678 38.4442C53.8791 38.6639 53.631 38.7884 53.3233 38.8184C52.598 38.9222 51.9157 39.1093 51.276 39.3796C50.0536 39.6245 48.8129 39.6245 47.5536 39.3796C46.8555 39.104 46.1732 38.7922 45.5063 38.4442C44.5401 37.8658 43.6095 37.2423 42.7145 36.5735C42.6525 36.3864 42.5284 36.2616 42.3423 36.1993C42.2803 35.95 42.2181 35.7004 42.1561 35.451C42.1597 35.1592 42.2217 34.8786 42.3423 34.6092C42.0899 34.3161 41.9657 33.9731 41.97 33.5803C42.1887 33.6213 42.3748 33.559 42.5284 33.3932C42.2408 33.2151 41.9306 33.1528 41.5978 33.2061C41.5978 33.0191 41.5978 32.832 41.5978 32.6449C43.0867 32.6449 44.5757 32.6449 46.0647 32.6449C46.0204 33.1889 46.2065 33.6256 46.623 33.9544C46.5253 34.0839 46.4012 34.1774 46.2508 34.235C46.4762 34.4433 46.4762 34.6616 46.2508 34.8898C46.4034 35.1912 46.6517 35.316 46.9953 35.264C46.9953 35.0769 46.9953 34.8898 46.9953 34.7027C47.7127 34.9151 48.4572 35.0398 49.2287 35.0769C49.6374 35.0759 50.0097 35.0137 50.3454 34.8898C50.6531 34.8599 50.9012 34.7353 51.0899 34.5157C51.6914 34.4648 52.0637 34.1531 52.2066 33.5803C52.5623 33.5664 52.7795 33.3794 52.858 33.0191C53.0079 32.4212 52.9768 31.8599 52.765 31.3354C52.8098 30.8868 52.6857 30.5126 52.3927 30.2129C52.2686 29.714 51.9585 29.4023 51.4621 29.2776C51.1619 28.9805 50.7897 28.7934 50.3454 28.7163C49.5135 28.5319 48.6448 28.4696 47.7397 28.5293C47.7397 27.3445 47.7397 26.1596 47.7397 24.9748C48.5486 25.0059 49.3551 24.9747 50.1593 24.8813C50.5198 24.8585 50.7679 24.7026 50.9038 24.4136C51.3527 24.3773 51.5388 24.128 51.4621 23.6653C51.7445 23.2983 51.8686 22.8618 51.8344 22.3558C51.9138 21.7336 51.7277 21.2348 51.276 20.8592C51.1519 20.8592 51.0899 20.7969 51.0899 20.6721C50.9628 20.3586 50.7145 20.2338 50.3454 20.298C50.3248 20.1825 50.2628 20.089 50.1593 20.0174C49.3528 19.8926 48.5462 19.8926 47.7397 20.0174C47.4792 20.2864 47.1689 20.4422 46.8091 20.485C46.8091 20.8592 46.8091 21.2333 46.8091 21.6075C46.859 21.9066 46.7969 22.156 46.623 22.3558C45.0099 22.3558 43.397 22.3558 41.7839 22.3558C41.7839 21.9816 41.7839 21.6075 41.7839 21.2333C42.1718 20.6158 42.4201 19.9298 42.5284 19.1755C42.7901 19.087 42.9142 18.9 42.9006 18.6143C43.521 18.1154 44.0793 17.5542 44.5757 16.9306C45.0127 16.9134 45.3228 16.7263 45.5063 16.3694C45.8906 16.3662 46.2629 16.3038 46.623 16.1823C48.4288 15.902 50.2278 15.9332 52.0205 16.2759C51.7495 16.3549 51.6564 16.5108 51.7413 16.7435C52.4089 16.5064 53.0603 16.5688 53.6956 16.9306C53.5714 17.0553 53.4475 17.1801 53.3233 17.3048C53.588 17.5007 53.8672 17.5007 54.1609 17.3048C54.5219 17.3902 54.8011 17.5773 54.9984 17.866Z" fill="#333461"/>
<path opacity="0.388" fill-rule="evenodd" clip-rule="evenodd" d="M33.9669 15.8076C34.2948 15.9502 34.4809 16.1997 34.5252 16.5559C34.4632 16.5559 34.4011 16.5559 34.3391 16.5559C34.1344 16.3492 34.0102 16.0998 33.9669 15.8076Z" fill="#333461"/>
<path opacity="0.349" fill-rule="evenodd" clip-rule="evenodd" d="M52.3928 15.9949C52.7749 15.9766 53.0851 16.1013 53.3234 16.3691C52.9413 16.3874 52.631 16.2627 52.3928 15.9949Z" fill="#333461"/>
<path fill-rule="evenodd" clip-rule="evenodd" d="M101.901 14.124C102.391 14.3625 102.887 14.6119 103.39 14.8723C103.485 15.4056 103.795 15.6551 104.32 15.6206C104.291 15.8776 104.322 16.127 104.413 16.3689C104.689 15.9114 104.906 15.9737 105.065 16.556C104.785 16.807 104.66 17.1188 104.692 17.4914C104.215 16.9713 103.781 16.41 103.39 15.8077C103.403 15.5221 103.279 15.335 103.017 15.2465C102.583 14.9347 102.211 14.5605 101.901 14.124Z" fill="#333461"/>
<path opacity="0.282" fill-rule="evenodd" clip-rule="evenodd" d="M110.276 15.8076C110.538 15.8961 110.662 16.0832 110.648 16.3688C110.387 16.2803 110.262 16.0933 110.276 15.8076Z" fill="#333461"/>
<path opacity="0.996" fill-rule="evenodd" clip-rule="evenodd" d="M47.7398 15.6205C49.3043 15.5947 50.8554 15.7194 52.3928 15.9946C52.631 16.2624 52.9413 16.3871 53.3234 16.3688C53.631 16.3987 53.8791 16.5234 54.0678 16.7429C54.1559 17.006 54.342 17.1308 54.6262 17.1171C54.8123 17.1794 54.9365 17.3042 54.9984 17.4912C54.9984 17.616 54.9984 17.7407 54.9984 17.8654C54.8012 17.5767 54.522 17.3896 54.1609 17.3042C53.8672 17.5001 53.588 17.5001 53.3234 17.3042C53.4475 17.1794 53.5715 17.0547 53.6956 16.93C53.0604 16.5682 52.409 16.5058 51.7413 16.7429C51.6565 16.5102 51.7495 16.3543 52.0205 16.2753C50.2278 15.9326 48.4288 15.9014 46.623 16.1817C46.9953 15.9946 47.3675 15.8076 47.7398 15.6205Z" fill="#333461"/>
<path opacity="0.624" fill-rule="evenodd" clip-rule="evenodd" d="M87.9416 15.8076C86.8491 16.2152 85.7324 16.5894 84.5915 16.9301C85.6071 16.2988 86.7239 15.9246 87.9416 15.8076Z" fill="#333461"/>
<path opacity="0.424" fill-rule="evenodd" clip-rule="evenodd" d="M69.1436 16.1816C69.1436 16.3064 69.1436 16.4311 69.1436 16.5558C68.9574 16.6805 68.7713 16.8052 68.5852 16.9299C68.6295 16.5737 68.8156 16.3242 69.1436 16.1816Z" fill="#333461"/>
<path opacity="0.533" fill-rule="evenodd" clip-rule="evenodd" d="M45.5063 16.3691C45.3228 16.726 45.0127 16.9131 44.5757 16.9304C44.7914 16.6029 45.1017 16.4159 45.5063 16.3691Z" fill="#333461"/>
<path opacity="0.012" fill-rule="evenodd" clip-rule="evenodd" d="M54.0678 16.7432C54.352 16.7295 54.5381 16.8543 54.6262 17.1173C54.342 17.131 54.1558 17.0063 54.0678 16.7432Z" fill="#333461"/>
<path fill-rule="evenodd" clip-rule="evenodd" d="M74.7272 16.7429C74.3992 16.8855 74.2131 17.135 74.1688 17.4912C73.9827 17.616 73.7966 17.7407 73.6104 17.8654C73.5693 17.6344 73.4452 17.4473 73.2382 17.3042C73.5081 17.0516 73.6322 16.7398 73.6104 16.3688C72.7507 16.1517 71.3859 16.1205 69.5158 16.2752C69.4145 16.4094 69.2904 16.5029 69.1436 16.5559C69.1436 16.4311 69.1436 16.3064 69.1436 16.1817C71.1146 15.9681 73.0999 15.937 75.0994 16.0882C74.8532 16.2408 74.7292 16.4591 74.7272 16.7429Z" fill="#333461"/>
<path opacity="0.01" fill-rule="evenodd" clip-rule="evenodd" d="M34.5252 16.5557C34.8237 16.7029 34.9479 16.9523 34.8974 17.304C34.6789 17.1143 34.555 16.8649 34.5252 16.5557Z" fill="#333461"/>
<path opacity="0.01" fill-rule="evenodd" clip-rule="evenodd" d="M74.7271 16.7432C74.6828 17.0994 74.4967 17.3489 74.1688 17.4915C74.2131 17.1352 74.3992 16.8858 74.7271 16.7432Z" fill="#333461"/>
<path opacity="0.325" fill-rule="evenodd" clip-rule="evenodd" d="M68.5852 16.9307C68.5987 17.2163 68.4746 17.4034 68.2129 17.4919C68.1993 17.2062 68.3235 17.0192 68.5852 16.9307Z" fill="#333461"/>
<path opacity="0.565" fill-rule="evenodd" clip-rule="evenodd" d="M84.5915 16.9307C84.408 17.2875 84.0979 17.4746 83.6609 17.4919C83.8766 17.1645 84.1869 16.9774 84.5915 16.9307Z" fill="#333461"/>
<path opacity="0.627" fill-rule="evenodd" clip-rule="evenodd" d="M23.7303 16.3691C23.6325 17.1236 23.3844 17.8095 22.9858 18.427C23.0169 17.6462 23.265 16.9603 23.7303 16.3691Z" fill="#333461"/>
<path opacity="0.01" fill-rule="evenodd" clip-rule="evenodd" d="M74.1688 17.4912C74.1245 17.8475 73.9384 18.0969 73.6104 18.2395C73.6104 18.1148 73.6104 17.9901 73.6104 17.8654C73.7965 17.7406 73.9827 17.6159 74.1688 17.4912Z" fill="#333461"/>
<path opacity="0.635" fill-rule="evenodd" clip-rule="evenodd" d="M83.6609 17.4912C83.5729 17.7543 83.3867 17.8791 83.1025 17.8654C83.1906 17.6023 83.3767 17.4776 83.6609 17.4912Z" fill="#333461"/>
<path opacity="0.627" fill-rule="evenodd" clip-rule="evenodd" d="M44.5757 16.9307C44.0793 17.5542 43.521 18.1155 42.9006 18.6143C43.2729 17.866 43.8312 17.3048 44.5757 16.9307Z" fill="#333461"/>
<path opacity="0.412" fill-rule="evenodd" clip-rule="evenodd" d="M68.213 17.4912C68.1687 17.8475 67.9825 18.0969 67.6546 18.2395C67.6989 17.8832 67.885 17.6338 68.213 17.4912Z" fill="#333461"/>
<path fill-rule="evenodd" clip-rule="evenodd" d="M73.6104 17.8654C73.6104 17.9901 73.6104 18.1148 73.6104 18.2396C73.2294 18.623 72.9192 19.0595 72.6798 19.5491C72.2653 19.9432 71.8931 20.3797 71.5631 20.8586C71.1914 21.2733 70.8192 21.7098 70.4464 22.1681C70.2735 22.3906 70.2115 22.6399 70.2603 22.9164C70.092 23.0491 70.03 23.2361 70.0741 23.4776C70.6358 23.5158 71.1942 23.5781 71.7492 23.6647C72.1864 24.0091 72.6826 24.2585 73.2382 24.413C73.4228 24.3808 73.5468 24.4433 73.6104 24.6001C73.8038 24.98 74.1139 25.2294 74.541 25.3484C74.7121 25.8327 75.0223 26.2069 75.4716 26.4708C75.5159 26.827 75.702 27.0766 76.03 27.2191C76.276 28.0892 76.5241 28.9623 76.7745 29.8382C76.9965 31.8786 76.5623 33.7494 75.4716 35.4504C75.3625 35.4113 75.2695 35.3489 75.1924 35.2634C74.9803 35.7501 74.8252 36.2491 74.7271 36.76C74.479 37.0718 74.2308 37.3835 73.9827 37.6953C73.6984 37.6817 73.5123 37.8065 73.4243 38.0695C72.7448 38.2863 72.1242 38.5982 71.5631 39.0049C70.0911 39.3031 68.6021 39.4278 67.0962 39.379C67.0342 39.379 66.9721 39.379 66.9101 39.379C66.1732 38.9164 65.3666 38.6045 64.4905 38.4436C64.1829 38.4137 63.9348 38.2891 63.7461 38.0695C63.2994 37.4329 62.741 36.9339 62.071 36.5729C62.0609 36.174 61.8748 35.9247 61.5126 35.8246C61.3567 35.7606 61.2945 35.636 61.3265 35.4504C60.3198 33.2168 60.1337 30.9096 60.7681 28.5287C61.1908 28.1336 61.4389 27.6346 61.5126 27.0321C61.7743 26.9436 61.8984 26.7565 61.8849 26.4708C62.2327 26.1839 62.4808 25.8097 62.6293 25.3484C62.9573 25.2058 63.1434 24.9563 63.1877 24.6001C63.4494 24.5116 63.5735 24.3245 63.5599 24.0389C63.8216 23.9504 63.9458 23.7633 63.9322 23.4776C64.2601 23.3351 64.4462 23.0855 64.4905 22.7293C64.7522 22.6409 64.8764 22.4538 64.8628 22.1681C65.1907 22.0256 65.3768 21.776 65.4211 21.4198C65.7491 21.2773 65.9352 21.0277 65.9795 20.6715C66.2412 20.583 66.3653 20.396 66.3517 20.1103C66.6134 20.0218 66.7376 19.8347 66.724 19.5491C67.0519 19.4065 67.238 19.157 67.2823 18.8008C67.544 18.7123 67.6682 18.5252 67.6546 18.2396C67.9825 18.0969 68.1686 17.8475 68.2129 17.4913C68.4746 17.4027 68.5988 17.2157 68.5852 16.93C68.7713 16.8053 68.9574 16.6806 69.1435 16.5559C69.2904 16.503 69.4145 16.4094 69.5158 16.2753C71.3859 16.1206 72.7507 16.1518 73.6104 16.3688C73.6322 16.7399 73.508 17.0517 73.2382 17.3042C73.4451 17.4473 73.5693 17.6344 73.6104 17.8654ZM69.5158 28.1545C69.7819 28.3485 70.0922 28.4733 70.4464 28.5287C70.5344 28.7917 70.7205 28.9165 71.0047 28.9028C71.1931 29.1595 71.3792 29.4089 71.5631 29.6511C71.8763 30.4249 72.0005 31.2355 71.9353 32.0831C71.9353 32.1454 71.9353 32.2079 71.9353 32.2702C71.6547 32.5846 71.4685 32.9588 71.377 33.3926C71.1909 33.4549 71.0667 33.5797 71.0047 33.7668C70.5387 33.9696 70.1045 34.2189 69.7019 34.5151C68.5841 34.6292 67.5293 34.4421 66.5379 33.9538C66.4137 33.7045 66.2276 33.5174 65.9795 33.3926C65.9931 33.107 65.8689 32.9199 65.6073 32.8314C65.6514 32.5899 65.5894 32.4028 65.4211 32.2702C65.3374 31.2158 65.5235 30.218 65.9795 29.277C66.2276 29.1522 66.4137 28.9651 66.5379 28.7157C67.4666 28.235 68.4594 28.0479 69.5158 28.1545Z" fill="#333461"/>
<path opacity="0.01" fill-rule="evenodd" clip-rule="evenodd" d="M54.9984 17.4912C55.6573 17.7787 56.0295 18.2775 56.1151 18.9878C55.8721 18.4941 55.4998 18.12 54.9984 17.8654C54.9984 17.7406 54.9984 17.6159 54.9984 17.4912Z" fill="#333461"/>
<path opacity="0.561" fill-rule="evenodd" clip-rule="evenodd" d="M83.1025 17.8652C82.9607 18.1949 82.7124 18.382 82.358 18.4265C82.4999 18.0968 82.7481 17.9097 83.1025 17.8652Z" fill="#333461"/>
<path fill-rule="evenodd" clip-rule="evenodd" d="M87.9416 15.8076C88.0036 15.8076 88.0658 15.8076 88.1278 15.8076C89.6167 15.87 91.1057 15.9323 92.5946 15.9947C94.5647 16.3297 96.2398 17.2028 97.6199 18.6137C97.9301 19.0502 98.3024 19.4243 98.7366 19.7362C98.9227 19.7985 99.0468 19.9233 99.1088 20.1103C99.0952 20.396 99.2194 20.5831 99.4811 20.6716C99.4675 20.9572 99.5916 21.1443 99.8533 21.2328C99.8397 21.5185 99.9639 21.7055 100.226 21.794C100.506 22.1085 100.692 22.4826 100.784 22.9165C100.713 23.3277 100.837 23.6395 101.156 23.8518C101.156 23.9141 101.156 23.9766 101.156 24.0389C101.168 24.5867 101.292 25.0856 101.528 25.5355C102.157 28.9307 101.413 31.9862 99.2949 34.7022C99.0623 34.6878 98.9073 34.563 98.8296 34.328C98.7377 34.6337 98.7068 34.9456 98.7366 35.2634C98.4615 35.2144 98.2134 35.2767 97.9921 35.4505C98.031 35.5601 98.0932 35.6536 98.1782 35.7311C97.9106 35.7721 97.6625 35.8656 97.4337 36.0117C97.4726 36.1213 97.5348 36.2149 97.6199 36.2923C97.3792 36.384 97.1309 36.4152 96.8754 36.3858C96.8754 36.6352 96.8754 36.8848 96.8754 37.1341C96.5782 37.0238 96.3299 36.8367 96.1309 36.5729C95.9805 36.6305 95.8564 36.7241 95.7587 36.8535C96.0328 36.9864 96.157 37.2045 96.1309 37.5083C95.8251 37.512 95.577 37.3873 95.3864 37.1341C94.8217 37.5425 94.2325 37.7296 93.6183 37.6954C93.3821 37.9582 93.289 38.2699 93.3391 38.6307C91.0943 39.1398 88.8609 39.1085 86.6388 38.5372C86.8443 38.3256 86.7823 38.1696 86.4527 38.0695C86.1603 38.2209 85.85 38.2833 85.5221 38.2566C85.274 38.2566 85.0257 38.2566 84.7776 38.2566C84.4699 38.2267 84.2218 38.1021 84.0331 37.8824C83.9451 37.6194 83.759 37.4946 83.4748 37.5083C83.3867 37.2453 83.2006 37.1205 82.9164 37.1341C82.5356 36.5454 82.0394 36.109 81.4274 35.8246C81.4274 35.4505 81.2413 35.2634 80.8691 35.2634C80.8248 34.9072 80.6387 34.6576 80.3107 34.5151C80.3243 34.2294 80.2002 34.0424 79.9385 33.9539C79.7691 33.3006 79.459 32.7394 79.0079 32.2702C78.9725 31.6426 78.7864 31.0813 78.4495 30.5865C78.4495 30.0876 78.4495 29.5889 78.4495 29.0899C78.3611 27.6309 78.4853 26.1966 78.8218 24.7872C79.1153 24.4226 79.3944 24.0485 79.6593 23.6648C79.6593 23.2906 79.6593 22.9165 79.6593 22.5423C79.7213 22.48 79.7834 22.4175 79.8454 22.3552C79.8918 22.5655 79.9848 22.7526 80.1246 22.9165C80.1866 22.7917 80.2487 22.6671 80.3107 22.5423C80.1758 22.2866 80.0516 22.0372 79.9385 21.794C79.9764 21.3853 80.1004 21.0111 80.3107 20.6716C80.9878 19.9281 81.6703 19.1798 82.358 18.4267C82.7124 18.3822 82.9607 18.1951 83.1025 17.8654C83.3867 17.8791 83.5728 17.7544 83.6609 17.4913C84.0979 17.474 84.408 17.2869 84.5915 16.9301C85.7324 16.5894 86.8491 16.2152 87.9416 15.8076ZM91.4779 21.2328C91.9313 21.4893 92.4277 21.6763 92.9669 21.794C93.0549 22.057 93.241 22.1818 93.5252 22.1682C93.6133 22.4312 93.7994 22.556 94.0836 22.5423C96.3565 24.9487 96.8529 27.6925 95.5725 30.7736C95.3109 30.8621 95.1867 31.0492 95.2003 31.3348C95.0142 31.3971 94.89 31.5219 94.8281 31.709C94.3938 32.0208 94.0216 32.395 93.7113 32.8314C93.3514 32.9455 93.0411 33.1326 92.7807 33.3927C92.3938 33.4808 92.0216 33.6054 91.664 33.7668C89.844 34.0854 88.1067 33.836 86.4527 33.0185C86.2785 32.7428 86.0302 32.5557 85.7082 32.4573C85.6462 32.2702 85.5221 32.1454 85.336 32.0831C85.2783 31.7756 85.0921 31.5885 84.7776 31.5219C84.7311 31.1152 84.5449 30.8033 84.2192 30.5865C84.077 30.1155 83.8909 29.679 83.6609 29.277C83.6235 28.7143 83.5615 28.1531 83.4748 27.5933C83.6363 26.5074 83.8846 25.4474 84.2192 24.4131C84.4809 24.3246 84.6051 24.1375 84.5915 23.8518C84.9194 23.7093 85.1055 23.4597 85.1498 23.1035C85.274 23.1035 85.336 23.0412 85.336 22.9165C85.7545 22.808 86.0646 22.5586 86.2666 22.1682C86.6982 22.0761 87.0704 21.889 87.3833 21.6069C88.7207 21.2708 90.0857 21.1462 91.4779 21.2328Z" fill="#333461"/>
<path fill-rule="evenodd" clip-rule="evenodd" d="M104.692 17.4912C105.379 17.79 106.03 18.1641 106.647 18.6137C106.704 18.9674 106.549 19.217 106.181 19.362C106.274 19.4243 106.368 19.4867 106.461 19.549C106.998 19.2263 107.587 19.1016 108.229 19.1749C108.229 19.2372 108.229 19.2997 108.229 19.362C107.7 19.5806 107.142 19.7677 106.554 19.9232C106.347 19.9125 106.161 19.8502 105.995 19.7361C105.564 18.9944 105.129 18.2462 104.692 17.4912Z" fill="#333461"/>
<path opacity="0.31" fill-rule="evenodd" clip-rule="evenodd" d="M67.6546 18.2402C67.6681 18.5259 67.544 18.713 67.2823 18.8015C67.2687 18.5158 67.3929 18.3287 67.6546 18.2402Z" fill="#333461"/>
<path opacity="0.01" fill-rule="evenodd" clip-rule="evenodd" d="M97.6199 18.6143C98.1782 18.8013 98.5505 19.1755 98.7366 19.7367C98.3024 19.4249 97.9301 19.0507 97.6199 18.6143Z" fill="#333461"/>
<path opacity="0.243" fill-rule="evenodd" clip-rule="evenodd" d="M42.9006 18.6143C42.9142 18.8999 42.7901 19.087 42.5284 19.1755C42.5148 18.8898 42.639 18.7028 42.9006 18.6143Z" fill="#333461"/>
<path opacity="0.408" fill-rule="evenodd" clip-rule="evenodd" d="M111.207 19.175C110.209 19.1698 109.216 19.2323 108.229 19.3621C108.229 19.2998 108.229 19.2373 108.229 19.175C109.25 18.9625 110.242 18.9625 111.207 19.175Z" fill="#333461"/>
<path opacity="0.886" fill-rule="evenodd" clip-rule="evenodd" d="M34.3391 16.5557C34.4011 16.5557 34.4633 16.5557 34.5253 16.5557C34.555 16.8649 34.679 17.1143 34.8975 17.304C35.0389 18.4833 35.1009 19.668 35.0836 20.8584C35.1335 21.1575 35.0713 21.4069 34.8975 21.6067C34.8355 21.6067 34.7734 21.6067 34.7114 21.6067C34.7294 20.8866 34.7916 20.1694 34.8975 19.4553C34.8087 18.7923 34.5604 18.1999 34.153 17.6781C34.3108 17.3211 34.373 16.9469 34.3391 16.5557Z" fill="#333461"/>
<path opacity="0.424" fill-rule="evenodd" clip-rule="evenodd" d="M67.2824 18.8008C67.2381 19.157 67.0519 19.4065 66.724 19.5491C66.7683 19.1929 66.9544 18.9433 67.2824 18.8008Z" fill="#333461"/>
<path opacity="0.031" fill-rule="evenodd" clip-rule="evenodd" d="M73.6104 18.2402C73.5155 18.834 73.2052 19.2706 72.6798 19.5498C72.9192 19.0602 73.2294 18.6237 73.6104 18.2402Z" fill="#333461"/>
<path opacity="0.447" fill-rule="evenodd" clip-rule="evenodd" d="M82.358 18.4268C81.6703 19.1799 80.9878 19.9282 80.3107 20.6717C80.7345 19.6845 81.417 18.9362 82.358 18.4268Z" fill="#333461"/>
<path opacity="0.141" fill-rule="evenodd" clip-rule="evenodd" d="M111.765 18.8008C111.933 18.9334 111.995 19.1205 111.951 19.362C111.653 19.4121 111.405 19.3497 111.207 19.1749C111.519 19.2152 111.705 19.0904 111.765 18.8008Z" fill="#333461"/>
<path opacity="0.392" fill-rule="evenodd" clip-rule="evenodd" d="M34.8975 17.3047C35.4394 18.4955 35.5016 19.6804 35.0836 20.8591C35.1009 19.6688 35.0389 18.484 34.8975 17.3047Z" fill="#333461"/>
<path opacity="0.804" fill-rule="evenodd" clip-rule="evenodd" d="M56.1152 18.9883C56.5559 19.4477 56.742 20.009 56.6735 20.672C56.3367 20.1771 56.1505 19.6159 56.1152 18.9883Z" fill="#333461"/>
<path opacity="0.012" fill-rule="evenodd" clip-rule="evenodd" d="M72.6798 19.5498C72.4883 20.1842 72.1161 20.6829 71.5631 21.0464C71.5631 20.9841 71.5631 20.9216 71.5631 20.8593C71.8931 20.3804 72.2653 19.944 72.6798 19.5498Z" fill="#333461"/>
<path opacity="0.329" fill-rule="evenodd" clip-rule="evenodd" d="M66.724 19.5498C66.7375 19.8355 66.6134 20.0225 66.3517 20.111C66.3381 19.8254 66.4623 19.6383 66.724 19.5498Z" fill="#333461"/>
<path opacity="0.043" fill-rule="evenodd" clip-rule="evenodd" d="M105.995 19.7363C106.161 19.8504 106.347 19.9127 106.554 19.9234C106.284 20.1825 106.098 20.1202 105.995 19.7363Z" fill="#333461"/>
<path opacity="0.293" fill-rule="evenodd" clip-rule="evenodd" d="M14.6104 24.9744C14.5484 24.9744 14.4863 24.9744 14.4243 24.9744C11.8186 24.9744 9.21292 24.9744 6.60725 24.9744C6.35909 23.353 6.35909 21.7318 6.60725 20.1105C9.33701 20.1105 12.0668 20.1105 14.7965 20.1105C14.7965 18.6139 14.7965 17.1173 14.7965 15.6207C10.3917 15.6207 5.98685 15.6207 1.58201 15.6207C1.39614 23.3837 1.3341 31.1784 1.39589 39.005C1.21002 31.1797 1.14798 23.3225 1.20977 15.4336C5.80073 15.4336 10.3917 15.4336 14.9826 15.4336C14.9237 17.0396 14.9858 18.6298 15.1688 20.204C12.3156 20.2975 9.46177 20.3288 6.60725 20.2975C6.60725 21.7941 6.60725 23.2907 6.60725 24.7873C9.30779 24.7258 11.9755 24.7881 14.6104 24.9744Z" fill="#333461"/>
<path opacity="0.878" fill-rule="evenodd" clip-rule="evenodd" d="M1.58203 15.8082C1.58203 15.7458 1.58203 15.6834 1.58203 15.6211C5.98687 15.6211 10.3917 15.6211 14.7965 15.6211C14.7965 17.1177 14.7965 18.6143 14.7965 20.1109C12.0668 20.1109 9.33703 20.1109 6.60727 20.1109C9.24215 19.9246 11.9099 19.8623 14.6104 19.9238C14.6104 18.5519 14.6104 17.18 14.6104 15.8082C10.2676 15.8082 5.92482 15.8082 1.58203 15.8082Z" fill="#333461"/>
<path opacity="0.973" fill-rule="evenodd" clip-rule="evenodd" d="M50.3454 20.298C49.906 20.2655 49.4718 20.2032 49.0426 20.1109C48.4226 20.0208 47.9264 20.2079 47.5536 20.6722C47.5536 20.797 47.4916 20.8592 47.3675 20.8592C47.069 21.0065 46.9448 21.2558 46.9953 21.6075C46.9333 21.6075 46.8711 21.6075 46.8091 21.6075C46.8091 21.2334 46.8091 20.8592 46.8091 20.4851C47.1689 20.4423 47.4792 20.2864 47.7397 20.0174C48.5462 19.8926 49.3528 19.8926 50.1593 20.0174C50.2628 20.0891 50.3248 20.1826 50.3454 20.298Z" fill="#333461"/>
<path opacity="0.086" fill-rule="evenodd" clip-rule="evenodd" d="M49.0426 20.1109C48.5632 20.2957 48.0668 20.4828 47.5536 20.6721C47.9264 20.2078 48.4226 20.0207 49.0426 20.1109Z" fill="#333461"/>
<path opacity="0.773" fill-rule="evenodd" clip-rule="evenodd" d="M50.3454 20.2976C50.7145 20.2334 50.9628 20.3582 51.0899 20.6717C50.7822 20.6418 50.5341 20.5172 50.3454 20.2976Z" fill="#333461"/>
<path opacity="0.42" fill-rule="evenodd" clip-rule="evenodd" d="M66.3518 20.1104C66.3653 20.396 66.2412 20.5831 65.9795 20.6716C65.9659 20.3859 66.0901 20.1988 66.3518 20.1104Z" fill="#333461"/>
<path opacity="0.431" fill-rule="evenodd" clip-rule="evenodd" d="M99.1089 20.1104C99.3705 20.1988 99.4947 20.3859 99.4811 20.6716C99.2194 20.5831 99.0953 20.396 99.1089 20.1104Z" fill="#333461"/>
<path opacity="0.753" fill-rule="evenodd" clip-rule="evenodd" d="M42.5284 19.1748C42.4201 19.9291 42.1718 20.6151 41.7839 21.2326C41.8169 20.4454 42.065 19.7596 42.5284 19.1748Z" fill="#333461"/>
<path opacity="0.651" fill-rule="evenodd" clip-rule="evenodd" d="M65.9795 20.6719C65.9352 21.0281 65.7491 21.2776 65.4211 21.4202C65.4654 21.064 65.6516 20.8144 65.9795 20.6719Z" fill="#333461"/>
<path opacity="0.525" fill-rule="evenodd" clip-rule="evenodd" d="M99.4811 20.6719C99.7428 20.7604 99.8669 20.9474 99.8533 21.2331C99.5917 21.1446 99.4675 20.9575 99.4811 20.6719Z" fill="#333461"/>
<path opacity="0.169" fill-rule="evenodd" clip-rule="evenodd" d="M47.3675 20.8584C47.4179 21.2101 47.2938 21.4595 46.9952 21.6067C46.9448 21.255 47.0689 21.0056 47.3675 20.8584Z" fill="#333461"/>
<path opacity="0.671" fill-rule="evenodd" clip-rule="evenodd" d="M109.345 21.0459C108.898 21.2831 108.401 21.4079 107.856 21.42C108.292 21.1319 108.788 21.0074 109.345 21.0459Z" fill="#333461"/>
<path opacity="0.732" fill-rule="evenodd" clip-rule="evenodd" d="M1.58205 15.6211C1.58205 15.6834 1.58205 15.7458 1.58205 15.8082C1.58205 23.4782 1.58205 31.1483 1.58205 38.8184C5.92484 38.8184 10.2676 38.8184 14.6104 38.8184C14.6104 37.3841 14.6104 35.95 14.6104 34.5157C11.9099 34.5772 9.24216 34.5149 6.60728 34.3286C9.33705 34.3286 12.0668 34.3286 14.7966 34.3286C14.7966 35.8875 14.7966 37.4466 14.7966 39.0054C10.3297 39.0054 5.8628 39.0054 1.39593 39.0054C1.33414 31.1788 1.39618 23.3841 1.58205 15.6211Z" fill="#333461"/>
<path opacity="0.031" fill-rule="evenodd" clip-rule="evenodd" d="M91.4779 21.2328C90.0858 21.1462 88.7208 21.2708 87.3833 21.607C87.5409 21.3327 87.789 21.1767 88.1278 21.1393C89.2821 20.741 90.3988 20.7723 91.4779 21.2328Z" fill="#333461"/>
<path fill-rule="evenodd" clip-rule="evenodd" d="M111.765 21.2327C112.349 21.7301 113.032 22.0419 113.812 22.168C113.997 22.1359 114.121 22.1983 114.185 22.3551C114.189 22.8563 114.437 23.1056 114.929 23.1034C114.973 23.4596 115.159 23.7092 115.487 23.8517C115.474 24.1374 115.598 24.3244 115.86 24.4129C116.016 24.4769 116.078 24.6015 116.046 24.7871C116.342 26.2667 116.467 27.7633 116.418 29.2769C116.207 30.3262 115.711 31.1993 114.929 31.8959C114.743 31.9582 114.619 32.083 114.557 32.2701C114.557 32.3948 114.495 32.4571 114.371 32.4571C114.115 32.4278 113.867 32.459 113.626 32.5507C113.831 32.6947 113.831 32.8506 113.626 33.0184C113.018 33.6183 112.273 33.93 111.393 33.9537C110.129 34.0097 108.888 33.8849 107.67 33.5796C107.608 33.5796 107.546 33.5796 107.484 33.5796C107.396 33.3166 107.21 33.1918 106.926 33.2054C106.838 32.9424 106.652 32.8176 106.368 32.8313C106.306 32.7065 106.243 32.5819 106.181 32.4571C106.037 32.3344 105.913 32.1786 105.809 31.9895C106.213 31.7219 106.244 31.4413 105.902 31.1476C105.778 31.2724 105.654 31.397 105.53 31.5218C104.126 29.8871 103.692 27.9541 104.227 25.7225C104.786 25.005 105.127 24.1944 105.251 23.2905C105.499 23.1657 105.685 22.9786 105.809 22.7293C106.332 22.0599 107.015 21.6235 107.856 21.4197C108.401 21.4076 108.898 21.2828 109.345 21.0456C110.186 20.842 110.992 20.9043 111.765 21.2327Z" fill="#333461"/>
<path opacity="0.843" fill-rule="evenodd" clip-rule="evenodd" d="M80.3107 20.6719C80.1004 21.0114 79.9764 21.3856 79.9384 21.7943C79.7475 22.0474 79.4994 22.2345 79.194 22.3555C79.4283 21.6961 79.8005 21.1349 80.3107 20.6719Z" fill="#333461"/>
<path opacity="0.122" fill-rule="evenodd" clip-rule="evenodd" d="M87.3833 21.6076C87.0704 21.8897 86.6982 22.0768 86.2665 22.1689C86.5292 21.7874 86.9014 21.6003 87.3833 21.6076Z" fill="#333461"/>
<path opacity="0.357" fill-rule="evenodd" clip-rule="evenodd" d="M99.8533 21.2334C100.115 21.3219 100.239 21.509 100.226 21.7946C99.9639 21.7061 99.8397 21.5191 99.8533 21.2334Z" fill="#333461"/>
<path opacity="0.98" fill-rule="evenodd" clip-rule="evenodd" d="M111.765 21.2334C112.575 21.2981 113.258 21.6098 113.812 22.1688C113.032 22.0427 112.349 21.7308 111.765 21.2334Z" fill="#333461"/>
<path opacity="0.416" fill-rule="evenodd" clip-rule="evenodd" d="M65.4212 21.4199C65.3769 21.7761 65.1907 22.0257 64.8628 22.1682C64.9071 21.812 65.0932 21.5625 65.4212 21.4199Z" fill="#333461"/>
<path opacity="0.098" fill-rule="evenodd" clip-rule="evenodd" d="M51.276 20.8584C51.7277 21.234 51.9138 21.7328 51.8344 22.355C51.8686 22.861 51.7445 23.2975 51.4621 23.6645C51.753 22.7007 51.691 21.7653 51.276 20.8584Z" fill="#333461"/>
<path opacity="0.396" fill-rule="evenodd" clip-rule="evenodd" d="M56.6735 20.6719C57.0372 21.5788 57.0372 22.5142 56.6735 23.478C56.6735 22.5426 56.6735 21.6072 56.6735 20.6719Z" fill="#333461"/>
<path opacity="0.051" fill-rule="evenodd" clip-rule="evenodd" d="M71.5631 20.8584C71.5631 20.9207 71.5631 20.9832 71.5631 21.0455C71.2724 21.7736 70.8381 22.3971 70.2602 22.9162C70.2115 22.6397 70.2735 22.3904 70.4464 22.1679C70.8192 21.7096 71.1914 21.2731 71.5631 20.8584Z" fill="#333461"/>
<path opacity="0.998" fill-rule="evenodd" clip-rule="evenodd" d="M79.9385 21.7939C80.0516 22.0371 80.1758 22.2865 80.3107 22.5422C80.2487 22.667 80.1866 22.7916 80.1246 22.9164C79.9848 22.7525 79.8918 22.5654 79.8454 22.3552C79.7834 22.4175 79.7213 22.4799 79.6593 22.5422C79.6593 22.9164 79.6593 23.2905 79.6593 23.6647C79.3944 24.0484 79.1153 24.4225 78.8217 24.7871C78.4852 26.1966 78.3611 27.6309 78.4495 29.0899C78.2651 27.8778 78.2031 26.6306 78.2634 25.3484C78.6325 24.7312 78.8186 24.0452 78.8217 23.2905C79.0881 23.0511 79.2122 22.7392 79.194 22.3552C79.4994 22.2341 79.7475 22.0471 79.9385 21.7939Z" fill="#333461"/>
<path opacity="0.29" fill-rule="evenodd" clip-rule="evenodd" d="M92.9669 21.794C93.2511 21.7803 93.4372 21.9051 93.5252 22.1681C93.241 22.1818 93.0549 22.057 92.9669 21.794Z" fill="#333461"/>
<path opacity="0.224" fill-rule="evenodd" clip-rule="evenodd" d="M41.7839 21.2334C41.7839 21.6075 41.7839 21.9817 41.7839 22.3558C43.397 22.3558 45.0099 22.3558 46.623 22.3558C45.1062 22.5416 43.5552 22.6039 41.97 22.5429C41.7742 22.5708 41.5881 22.5397 41.4117 22.4494C41.456 22.0616 41.5799 21.6562 41.7839 21.2334Z" fill="#333461"/>
<path opacity="0.408" fill-rule="evenodd" clip-rule="evenodd" d="M93.5252 22.168C93.8094 22.1543 93.9955 22.2791 94.0836 22.5422C93.7994 22.5558 93.6132 22.431 93.5252 22.168Z" fill="#333461"/>
<path opacity="0.067" fill-rule="evenodd" clip-rule="evenodd" d="M34.7114 21.6074C34.7733 21.6074 34.8355 21.6074 34.8975 21.6074C34.8301 22.3596 34.4579 22.9832 33.7808 23.4782C34.1891 22.9068 34.4994 22.2831 34.7114 21.6074Z" fill="#333461"/>
<path opacity="0.01" fill-rule="evenodd" clip-rule="evenodd" d="M46.8091 21.6074C46.8711 21.6074 46.9333 21.6074 46.9953 21.6074C47.0398 21.9754 46.9778 22.3185 46.8091 22.6363C45.1633 22.7905 43.5502 22.7592 41.97 22.5428C43.5552 22.6038 45.1062 22.5415 46.623 22.3557C46.7969 22.1559 46.859 21.9066 46.8091 21.6074Z" fill="#333461"/>
<path opacity="0.318" fill-rule="evenodd" clip-rule="evenodd" d="M64.8627 22.168C64.8763 22.4536 64.7522 22.6407 64.4905 22.7292C64.4769 22.4435 64.6011 22.2565 64.8627 22.168Z" fill="#333461"/>
<path opacity="0.694" fill-rule="evenodd" clip-rule="evenodd" d="M22.9858 20.6719C23.5758 21.6086 24.0722 22.6062 24.4747 23.6651C23.5871 22.8786 23.0909 21.8809 22.9858 20.6719Z" fill="#333461"/>
<path opacity="0.01" fill-rule="evenodd" clip-rule="evenodd" d="M86.2665 22.168C86.0646 22.5584 85.7545 22.8078 85.3359 22.9163C85.5379 22.5258 85.848 22.2765 86.2665 22.168Z" fill="#333461"/>
<path opacity="0.039" fill-rule="evenodd" clip-rule="evenodd" d="M79.194 22.3555C79.2122 22.7395 79.0881 23.0514 78.8218 23.2908C78.8035 22.9068 78.9277 22.5949 79.194 22.3555Z" fill="#333461"/>
<path opacity="0.988" fill-rule="evenodd" clip-rule="evenodd" d="M114.185 22.3555C114.495 22.5425 114.743 22.7919 114.929 23.1038C114.437 23.106 114.189 22.8566 114.185 22.3555Z" fill="#333461"/>
<path opacity="0.424" fill-rule="evenodd" clip-rule="evenodd" d="M64.4905 22.7295C64.4463 23.0857 64.2601 23.3352 63.9322 23.4778C63.9765 23.1216 64.1626 22.872 64.4905 22.7295Z" fill="#333461"/>
<path opacity="0.439" fill-rule="evenodd" clip-rule="evenodd" d="M105.809 22.7295C105.685 22.9789 105.499 23.1659 105.251 23.2907C105.251 22.9166 105.437 22.7295 105.809 22.7295Z" fill="#333461"/>
<path opacity="0.431" fill-rule="evenodd" clip-rule="evenodd" d="M70.2602 22.917C70.7047 23.235 71.2011 23.4846 71.7492 23.6653C71.1942 23.5787 70.6358 23.5164 70.0741 23.4782C70.03 23.2367 70.092 23.0496 70.2602 22.917Z" fill="#333461"/>
<path opacity="0.01" fill-rule="evenodd" clip-rule="evenodd" d="M85.1499 23.1035C85.1056 23.4597 84.9194 23.7093 84.5915 23.8518C84.6358 23.4956 84.8219 23.2461 85.1499 23.1035Z" fill="#333461"/>
<path opacity="0.675" fill-rule="evenodd" clip-rule="evenodd" d="M114.929 23.1035C115.257 23.2461 115.443 23.4956 115.487 23.8518C115.159 23.7093 114.973 23.4597 114.929 23.1035Z" fill="#333461"/>
<path opacity="0.78" fill-rule="evenodd" clip-rule="evenodd" d="M100.784 22.917C100.977 23.1845 101.101 23.4964 101.156 23.8524C100.837 23.64 100.713 23.3282 100.784 22.917Z" fill="#333461"/>
<path opacity="0.31" fill-rule="evenodd" clip-rule="evenodd" d="M63.9322 23.4775C63.9458 23.7632 63.8216 23.9503 63.56 24.0388C63.5464 23.7531 63.6705 23.566 63.9322 23.4775Z" fill="#333461"/>
<path opacity="0.212" fill-rule="evenodd" clip-rule="evenodd" d="M71.7492 23.665C72.3548 23.72 72.8512 23.9694 73.2382 24.4133C72.6826 24.2588 72.1864 24.0094 71.7492 23.665Z" fill="#333461"/>
<path opacity="0.682" fill-rule="evenodd" clip-rule="evenodd" d="M24.847 24.0391C25.2656 24.1476 25.5756 24.3969 25.7776 24.7874C25.359 24.6789 25.0489 24.4295 24.847 24.0391Z" fill="#333461"/>
<path opacity="0.976" fill-rule="evenodd" clip-rule="evenodd" d="M24.4748 23.665C25.3782 23.8615 26.0607 24.3604 26.5221 25.1616C26.2145 25.1317 25.9664 25.0071 25.7776 24.7875C25.5757 24.3971 25.2656 24.1477 24.847 24.0392C24.6609 23.9769 24.5368 23.8521 24.4748 23.665Z" fill="#333461"/>
<path opacity="0.992" fill-rule="evenodd" clip-rule="evenodd" d="M33.4085 23.665C33.2844 23.8521 33.1604 24.0392 33.0363 24.2263C32.8945 24.5559 32.6462 24.743 32.2918 24.7875C32.4409 24.499 32.5029 24.1874 32.4779 23.8521C32.7973 23.828 33.1076 23.7657 33.4085 23.665Z" fill="#333461"/>
<path opacity="0.01" fill-rule="evenodd" clip-rule="evenodd" d="M33.7807 23.4775C33.7188 23.914 33.4705 24.1635 33.0363 24.2258C33.1604 24.0388 33.2844 23.8517 33.4085 23.6646C33.5326 23.6023 33.6566 23.5398 33.7807 23.4775Z" fill="#333461"/>
<path opacity="0.678" fill-rule="evenodd" clip-rule="evenodd" d="M78.8218 23.291C78.8186 24.0457 78.6325 24.7317 78.2634 25.3488C78.2666 24.5942 78.4527 23.9082 78.8218 23.291Z" fill="#333461"/>
<path opacity="0.576" fill-rule="evenodd" clip-rule="evenodd" d="M51.4622 23.665C51.5388 24.1277 51.3527 24.377 50.9038 24.4133C51.0922 24.1567 51.2783 23.9073 51.4622 23.665Z" fill="#333461"/>
<path opacity="0.102" fill-rule="evenodd" clip-rule="evenodd" d="M84.5915 23.8516C84.6051 24.1372 84.481 24.3243 84.2193 24.4128C84.2057 24.1271 84.3298 23.94 84.5915 23.8516Z" fill="#333461"/>
<path opacity="0.29" fill-rule="evenodd" clip-rule="evenodd" d="M115.487 23.8516C115.749 23.94 115.873 24.1271 115.86 24.4128C115.598 24.3243 115.474 24.1372 115.487 23.8516Z" fill="#333461"/>
<path opacity="0.384" fill-rule="evenodd" clip-rule="evenodd" d="M63.56 24.0391C63.5735 24.3247 63.4494 24.5118 63.1877 24.6003C63.1741 24.3146 63.2983 24.1275 63.56 24.0391Z" fill="#333461"/>
<path opacity="0.267" fill-rule="evenodd" clip-rule="evenodd" d="M104.692 24.0391C104.706 24.3247 104.582 24.5118 104.32 24.6003C104.307 24.3146 104.431 24.1275 104.692 24.0391Z" fill="#333461"/>
<path opacity="0.125" fill-rule="evenodd" clip-rule="evenodd" d="M56.6735 23.4775C56.6744 24.1748 56.4261 24.736 55.929 25.1612C55.929 25.0364 55.929 24.9118 55.929 24.7871C56.1771 24.3506 56.4254 23.914 56.6735 23.4775Z" fill="#333461"/>
<path opacity="0.725" fill-rule="evenodd" clip-rule="evenodd" d="M101.156 24.0391C101.443 24.4764 101.567 24.9754 101.528 25.5357C101.292 25.0857 101.168 24.5868 101.156 24.0391Z" fill="#333461"/>
<path opacity="0.38" fill-rule="evenodd" clip-rule="evenodd" d="M24.2886 25.536C23.9361 25.4334 23.626 25.2464 23.358 24.9747C23.2311 25.1137 23.1069 25.2383 22.9858 25.3489C22.934 25.0035 23.0582 24.754 23.358 24.6006C23.7342 24.8541 24.0444 25.1657 24.2886 25.536Z" fill="#333461"/>
<path opacity="0.255" fill-rule="evenodd" clip-rule="evenodd" d="M35.2697 25.9101C35.0568 25.6108 34.8396 25.2989 34.6183 24.9747C34.547 25.0787 34.4539 25.141 34.3391 25.1618C34.3233 24.8821 34.4472 24.6951 34.7114 24.6006C35.0514 24.9723 35.2375 25.4089 35.2697 25.9101Z" fill="#333461"/>
<path fill-rule="evenodd" clip-rule="evenodd" d="M105.251 23.291C105.127 24.195 104.786 25.0056 104.227 25.723C103.692 27.9546 104.126 29.8876 105.53 31.5223C105.654 31.3975 105.778 31.2729 105.902 31.1482C106.244 31.4419 106.213 31.7225 105.809 31.99C105.913 32.1791 106.037 32.335 106.181 32.4577C106.057 32.4577 105.933 32.4577 105.809 32.4577C105.022 31.8117 104.463 31.0009 104.134 30.0257C104.152 29.6416 104.028 29.3298 103.762 29.0903C103.762 29.028 103.762 28.9656 103.762 28.9033C103.748 27.7754 103.81 26.6529 103.948 25.5359C103.93 25.1518 104.054 24.84 104.32 24.6005C104.582 24.5121 104.706 24.325 104.692 24.0393C104.737 23.6831 104.923 23.4336 105.251 23.291Z" fill="#333461"/>
<path opacity="0.471" fill-rule="evenodd" clip-rule="evenodd" d="M63.1877 24.6006C63.1434 24.9568 62.9573 25.2063 62.6293 25.3489C62.6736 24.9927 62.8597 24.7431 63.1877 24.6006Z" fill="#333461"/>
<path opacity="0.412" fill-rule="evenodd" clip-rule="evenodd" d="M73.6104 24.6006C74.0299 24.7173 74.3402 24.9667 74.541 25.3489C74.1139 25.2299 73.8038 24.9805 73.6104 24.6006Z" fill="#333461"/>
<path opacity="0.043" fill-rule="evenodd" clip-rule="evenodd" d="M32.2918 24.7871C32.1879 25.0284 32.0018 25.1843 31.7334 25.2548C30.3561 25.8435 28.9911 25.9371 27.6388 25.5354C29.2646 25.6974 30.8155 25.448 32.2918 24.7871Z" fill="#333461"/>
<path fill-rule="evenodd" clip-rule="evenodd" d="M55.929 24.7877C55.929 24.9124 55.929 25.037 55.929 25.1618C55.6673 25.2503 55.5432 25.4374 55.5568 25.723C55.4097 25.9651 55.2236 26.1834 54.9984 26.3778C55.1019 26.4494 55.1639 26.543 55.1845 26.6584C55.1845 26.7207 55.1845 26.7832 55.1845 26.8455C54.9992 26.8294 54.8441 26.8919 54.7192 27.0326C54.6444 26.7759 54.5514 26.5265 54.4401 26.2843C54.6262 26.1595 54.8123 26.0349 54.9984 25.9101C54.4721 25.2183 54.5341 25.0935 55.1845 25.536C55.3226 25.2351 55.3537 24.9233 55.2776 24.6006C55.4658 24.7572 55.683 24.8195 55.929 24.7877Z" fill="#333461"/>
<path opacity="0.016" fill-rule="evenodd" clip-rule="evenodd" d="M55.929 25.1611C55.9426 25.4468 55.8185 25.6339 55.5568 25.7224C55.5432 25.4367 55.6673 25.2496 55.929 25.1611Z" fill="#333461"/>
<path opacity="0.596" fill-rule="evenodd" clip-rule="evenodd" d="M74.541 25.3486C74.9903 25.6126 75.3006 25.9867 75.4716 26.4711C75.0223 26.2071 74.7121 25.833 74.541 25.3486Z" fill="#333461"/>
<path fill-rule="evenodd" clip-rule="evenodd" d="M24.2886 25.5358C24.3882 25.8999 24.6363 26.087 25.0331 26.0971C25.2178 26.0649 25.3417 26.1274 25.4054 26.2841C26.3654 27.0538 27.4821 27.4279 28.7555 27.4066C29.1034 27.4053 29.4136 27.343 29.6861 27.2195C30.0146 27.0397 30.3869 26.9772 30.8028 27.0324C31.27 27.1159 31.6422 26.9913 31.9196 26.6583C32.5522 26.6379 33.0486 26.3885 33.4085 25.91C33.8271 25.8015 34.1372 25.5521 34.3391 25.1617C34.454 25.1409 34.547 25.0786 34.6183 24.9746C34.8396 25.2988 35.0568 25.6107 35.2697 25.91C35.199 26.3212 35.3231 26.633 35.642 26.8454C35.5712 27.2565 35.6954 27.5684 36.0142 27.7807C35.9435 28.1919 36.0676 28.5038 36.3864 28.7161C36.3157 29.1273 36.4399 29.4391 36.7587 29.6515C36.9165 30.6914 37.2887 31.6268 37.8754 32.4576C38.0314 32.5216 38.0935 32.6462 38.0615 32.8318C38.0615 33.0188 38.0615 33.2059 38.0615 33.393C38.0615 33.8919 38.0615 34.3906 38.0615 34.8896C38.2476 34.8896 38.4338 34.8896 38.6199 34.8896C38.7369 35.2572 38.8611 35.6313 38.9921 36.012C38.4014 36.5789 38.5255 36.9218 39.3644 37.0409C39.4732 37.2845 39.5972 37.5028 39.7366 37.6957C39.78 37.9879 39.9041 38.2373 40.1088 38.444C38.5073 38.8127 36.8322 38.9375 35.0836 38.8181C35.0836 38.6934 35.0216 38.6311 34.8975 38.6311C34.7415 38.5671 34.6793 38.4425 34.7114 38.2569C34.4813 36.9087 34.0471 35.6302 33.4085 34.4219C30.3986 34.267 27.4207 34.2982 24.4748 34.5154C24.0722 34.6767 23.7 34.7392 23.358 34.7025C23.5047 35.0447 23.4117 35.3565 23.0789 35.6379C23.0478 35.8872 23.0169 36.1368 22.9858 36.3862C23.0811 36.8887 23.1122 37.3876 23.0789 37.8828C22.8425 37.4458 22.5633 37.4458 22.2413 37.8828C22.4701 38.0289 22.7182 38.1224 22.9858 38.1634C22.83 38.3525 22.768 38.5708 22.7997 38.8181C21.1527 38.8791 19.5396 38.8168 17.9606 38.6311C18.2026 37.9584 18.3887 37.2723 18.5189 36.5732C19.3539 35.1187 19.9742 33.5598 20.3801 31.8964C20.699 31.684 20.8231 31.3722 20.7524 30.961C21.0712 30.7487 21.1953 30.4368 21.1246 30.0256C21.4434 29.8133 21.5676 29.5014 21.4968 29.0903C21.8157 28.8779 21.9398 28.5661 21.8691 28.1549C22.3035 27.8413 22.4896 27.4049 22.4274 26.8454C22.8619 26.5318 23.048 26.0954 22.9858 25.5358C22.9858 25.4735 22.9858 25.4111 22.9858 25.3488C23.107 25.2382 23.2311 25.1136 23.358 24.9746C23.6261 25.2462 23.9361 25.4333 24.2886 25.5358Z" fill="#333461"/>
<path opacity="0.478" fill-rule="evenodd" clip-rule="evenodd" d="M24.2886 25.5361C24.6106 25.6345 24.8589 25.8216 25.0331 26.0974C24.6363 26.0873 24.3882 25.9002 24.2886 25.5361Z" fill="#333461"/>
<path opacity="0.408" fill-rule="evenodd" clip-rule="evenodd" d="M34.3391 25.1611C34.1372 25.5516 33.8271 25.8009 33.4085 25.9094C33.6104 25.519 33.9205 25.2696 34.3391 25.1611Z" fill="#333461"/>
<path opacity="0.502" fill-rule="evenodd" clip-rule="evenodd" d="M26.5221 25.1613C26.9684 25.1162 27.3406 25.241 27.6388 25.5355C27.1925 25.5806 26.8203 25.4558 26.5221 25.1613Z" fill="#333461"/>
<path opacity="0.216" fill-rule="evenodd" clip-rule="evenodd" d="M50.9038 24.4131C50.7679 24.7021 50.5198 24.8579 50.1593 24.8808C49.3551 24.9741 48.5486 25.0054 47.7397 24.9743C47.5553 26.1864 47.4933 27.4336 47.5536 28.7158C48.4842 28.7158 49.4148 28.7158 50.3454 28.7158C50.7897 28.7929 51.1619 28.98 51.4621 29.277C50.1215 28.951 48.7567 28.8264 47.3675 28.9029C47.3675 27.5311 47.3675 26.1591 47.3675 24.7872C48.5747 24.8656 49.7534 24.7408 50.9038 24.4131Z" fill="#333461"/>
<path opacity="0.525" fill-rule="evenodd" clip-rule="evenodd" d="M33.4085 25.9102C33.0486 26.3887 32.5522 26.6381 31.9196 26.6585C32.3657 26.3414 32.8619 26.092 33.4085 25.9102Z" fill="#333461"/>
<path opacity="0.851" fill-rule="evenodd" clip-rule="evenodd" d="M62.6293 25.3486C62.4808 25.81 62.2327 26.1841 61.8848 26.4711C61.949 25.9664 62.1971 25.5922 62.6293 25.3486Z" fill="#333461"/>
<path opacity="0.769" fill-rule="evenodd" clip-rule="evenodd" d="M22.9858 25.5361C23.048 26.0957 22.8618 26.5321 22.4274 26.8457C22.466 26.3329 22.6521 25.8964 22.9858 25.5361Z" fill="#333461"/>
<path opacity="0.251" fill-rule="evenodd" clip-rule="evenodd" d="M25.4053 26.2842C26.7627 26.8963 28.1897 27.2081 29.6861 27.2196C29.4136 27.343 29.1034 27.4053 28.7555 27.4066C27.4821 27.428 26.3653 27.0538 25.4053 26.2842Z" fill="#333461"/>
<path opacity="0.675" fill-rule="evenodd" clip-rule="evenodd" d="M35.2697 25.9102C35.5361 26.1496 35.6602 26.4615 35.642 26.8455C35.3232 26.6332 35.199 26.3213 35.2697 25.9102Z" fill="#333461"/>
<path opacity="0.02" fill-rule="evenodd" clip-rule="evenodd" d="M55.1846 26.8453C55.1846 26.783 55.1846 26.7205 55.1846 26.6582C55.4688 26.6446 55.6549 26.7694 55.7429 27.0324C55.5365 27.0217 55.3504 26.9594 55.1846 26.8453Z" fill="#333461"/>
<path opacity="0.71" fill-rule="evenodd" clip-rule="evenodd" d="M31.9196 26.6582C31.6423 26.9912 31.27 27.1158 30.8029 27.0324C31.1219 26.8008 31.4941 26.676 31.9196 26.6582Z" fill="#333461"/>
<path opacity="0.833" fill-rule="evenodd" clip-rule="evenodd" d="M47.7397 24.9746C47.7397 26.1594 47.7397 27.3443 47.7397 28.529C48.6448 28.4694 49.5135 28.5317 50.3454 28.7161C49.4148 28.7161 48.4842 28.7161 47.5536 28.7161C47.4933 27.4339 47.5553 26.1867 47.7397 24.9746Z" fill="#333461"/>
<path opacity="0.388" fill-rule="evenodd" clip-rule="evenodd" d="M61.8848 26.4707C61.8984 26.7564 61.7743 26.9434 61.5126 27.0319C61.499 26.7463 61.6232 26.5592 61.8848 26.4707Z" fill="#333461"/>
<path opacity="0.4" fill-rule="evenodd" clip-rule="evenodd" d="M75.4716 26.4707C75.7996 26.6133 75.9857 26.8628 76.03 27.219C75.702 27.0765 75.5159 26.8269 75.4716 26.4707Z" fill="#333461"/>
<path opacity="0.235" fill-rule="evenodd" clip-rule="evenodd" d="M103.948 25.5361C103.81 26.6532 103.748 27.7756 103.762 28.9035C103.638 28.503 103.576 28.0663 103.576 27.594C103.55 26.8556 103.674 26.1696 103.948 25.5361Z" fill="#333461"/>
<path opacity="0.01" fill-rule="evenodd" clip-rule="evenodd" d="M55.7429 27.0322C56.166 27.1177 56.4141 27.3671 56.4874 27.7805C56.1448 27.6118 55.8967 27.3622 55.7429 27.0322Z" fill="#333461"/>
<path opacity="0.769" fill-rule="evenodd" clip-rule="evenodd" d="M22.4274 26.8457C22.4896 27.4052 22.3035 27.8417 21.8691 28.1552C21.95 27.6582 22.1362 27.2215 22.4274 26.8457Z" fill="#333461"/>
<path opacity="0.671" fill-rule="evenodd" clip-rule="evenodd" d="M35.6419 26.8457C35.8349 27.1132 35.9591 27.4251 36.0142 27.7811C35.6954 27.5687 35.5712 27.2569 35.6419 26.8457Z" fill="#333461"/>
<path opacity="0.38" fill-rule="evenodd" clip-rule="evenodd" d="M84.2193 24.4131C83.8846 25.4474 83.6363 26.5074 83.4748 27.5934C83.5615 28.1531 83.6235 28.7143 83.6609 29.277C83.0651 27.5732 83.2512 25.952 84.2193 24.4131Z" fill="#333461"/>
<path opacity="0.812" fill-rule="evenodd" clip-rule="evenodd" d="M116.046 24.7871C116.751 26.2487 116.875 27.7453 116.418 29.2769C116.467 27.7633 116.342 26.2667 116.046 24.7871Z" fill="#333461"/>
<path opacity="0.431" fill-rule="evenodd" clip-rule="evenodd" d="M78.2634 25.3486C78.2031 26.6308 78.2651 27.8781 78.4495 29.0901C78.4495 29.5891 78.4495 30.0878 78.4495 30.5867C77.9148 28.84 77.8528 27.094 78.2634 25.3486Z" fill="#333461"/>
<path opacity="0.824" fill-rule="evenodd" clip-rule="evenodd" d="M76.03 27.2197C76.5934 27.9188 76.9034 28.7294 76.9606 29.6517C76.9606 29.714 76.9606 29.7765 76.9606 29.8388C76.8986 29.8388 76.8364 29.8388 76.7744 29.8388C76.5241 28.9629 76.276 28.0898 76.03 27.2197Z" fill="#333461"/>
<path opacity="0.451" fill-rule="evenodd" clip-rule="evenodd" d="M56.4874 27.7803C56.8153 27.9228 57.0014 28.1724 57.0457 28.5286C56.7178 28.386 56.5317 28.1365 56.4874 27.7803Z" fill="#333461"/>
<path opacity="0.753" fill-rule="evenodd" clip-rule="evenodd" d="M61.5126 27.0322C61.4389 27.6348 61.1908 28.1337 60.7681 28.5288C60.8228 27.9201 61.0709 27.4212 61.5126 27.0322Z" fill="#333461"/>
<path opacity="0.18" fill-rule="evenodd" clip-rule="evenodd" d="M69.5158 28.1546C68.4593 28.0479 67.4666 28.235 66.5378 28.7158C66.7703 28.4097 67.0806 28.1914 67.4684 28.061C68.1865 27.9095 68.8688 27.9407 69.5158 28.1546Z" fill="#333461"/>
<path opacity="0.808" fill-rule="evenodd" clip-rule="evenodd" d="M69.5157 28.1549C69.9403 28.0757 70.2505 28.2005 70.4463 28.529C70.0922 28.4736 69.7819 28.3489 69.5157 28.1549Z" fill="#333461"/>
<path opacity="0.71" fill-rule="evenodd" clip-rule="evenodd" d="M36.0142 27.7803C36.2805 28.0197 36.4047 28.3316 36.3864 28.7156C36.0676 28.5033 35.9435 28.1915 36.0142 27.7803Z" fill="#333461"/>
<path opacity="0.706" fill-rule="evenodd" clip-rule="evenodd" d="M21.8691 28.1543C21.9398 28.5655 21.8156 28.8773 21.4968 29.0897C21.5519 28.7337 21.6761 28.4218 21.8691 28.1543Z" fill="#333461"/>
<path opacity="0.271" fill-rule="evenodd" clip-rule="evenodd" d="M70.4464 28.5293C70.7306 28.5157 70.9167 28.6405 71.0047 28.9035C70.7205 28.9171 70.5344 28.7924 70.4464 28.5293Z" fill="#333461"/>
<path opacity="0.933" fill-rule="evenodd" clip-rule="evenodd" d="M6.60724 24.9746C9.21292 24.9746 11.8186 24.9746 14.4243 24.9746C14.4243 26.4712 14.4243 27.9678 14.4243 29.4644C11.8186 29.4644 9.21292 29.4644 6.60724 29.4644C9.11796 29.2781 11.6616 29.2158 14.2382 29.2773C14.2382 27.9055 14.2382 26.5335 14.2382 25.1617C11.6616 25.2232 9.11796 25.1609 6.60724 24.9746Z" fill="#333461"/>
<path opacity="0.678" fill-rule="evenodd" clip-rule="evenodd" d="M36.3864 28.7158C36.5794 28.9833 36.7036 29.2952 36.7587 29.6512C36.4399 29.4389 36.3157 29.127 36.3864 28.7158Z" fill="#333461"/>
<path opacity="0.454" fill-rule="evenodd" clip-rule="evenodd" d="M14.4243 24.9746C14.4864 24.9746 14.5484 24.9746 14.6104 24.9746C14.7921 26.514 14.7611 28.0729 14.5174 29.6515C11.9809 29.6273 9.40625 29.6586 6.7934 29.745C6.61069 31.1943 6.54865 32.6596 6.60728 34.1413C6.60728 34.2036 6.60728 34.2661 6.60728 34.3284C6.54525 34.3284 6.4832 34.3284 6.42116 34.3284C6.36473 32.6913 6.42676 31.0699 6.60728 29.4644C9.21296 29.4644 11.8186 29.4644 14.4243 29.4644C14.4243 27.9678 14.4243 26.4712 14.4243 24.9746Z" fill="#333461"/>
<path opacity="0.298" fill-rule="evenodd" clip-rule="evenodd" d="M51.4622 29.2773C51.9585 29.4021 52.2686 29.7138 52.3928 30.2127C52.0205 29.9633 51.7103 29.6515 51.4622 29.2773Z" fill="#333461"/>
<path opacity="0.686" fill-rule="evenodd" clip-rule="evenodd" d="M21.4969 29.0898C21.5676 29.501 21.4435 29.8129 21.1246 30.0252C21.1797 29.6692 21.3039 29.3574 21.4969 29.0898Z" fill="#333461"/>
<path opacity="0.071" fill-rule="evenodd" clip-rule="evenodd" d="M65.9795 29.2773C65.5235 30.2183 65.3374 31.2162 65.4211 32.2705C65.2084 31.6203 65.1773 30.9345 65.3281 30.2127C65.4578 29.8229 65.675 29.511 65.9795 29.2773Z" fill="#333461"/>
<path opacity="0.255" fill-rule="evenodd" clip-rule="evenodd" d="M103.762 29.0898C104.028 29.3293 104.152 29.6412 104.134 30.0252C103.868 29.7858 103.744 29.4739 103.762 29.0898Z" fill="#333461"/>
<path opacity="0.188" fill-rule="evenodd" clip-rule="evenodd" d="M71.5631 29.6514C71.8032 29.7558 71.9582 29.9428 72.0284 30.2126C72.1788 30.8724 72.1477 31.4959 71.9354 32.0833C72.0005 31.2357 71.8764 30.4251 71.5631 29.6514Z" fill="#333461"/>
<path opacity="0.851" fill-rule="evenodd" clip-rule="evenodd" d="M83.6609 29.2773C83.8909 29.6794 84.077 30.1158 84.2192 30.5869C83.9866 30.5725 83.8315 30.4477 83.7539 30.2127C83.662 29.907 83.6311 29.5952 83.6609 29.2773Z" fill="#333461"/>
<path opacity="0.733" fill-rule="evenodd" clip-rule="evenodd" d="M36.7587 29.6514C37.2735 30.5151 37.6457 31.4505 37.8754 32.4575C37.2887 31.6267 36.9165 30.6913 36.7587 29.6514Z" fill="#333461"/>
<path opacity="0.298" fill-rule="evenodd" clip-rule="evenodd" d="M57.0457 28.5293C57.511 29.1205 57.7591 29.8065 57.7902 30.5871C57.6661 30.4 57.5421 30.213 57.418 30.0259C57.1853 29.5571 57.0613 29.0582 57.0457 28.5293Z" fill="#333461"/>
<path opacity="0.718" fill-rule="evenodd" clip-rule="evenodd" d="M21.1246 30.0254C21.1953 30.4366 21.0712 30.7484 20.7524 30.9608C20.8075 30.6048 20.9316 30.2929 21.1246 30.0254Z" fill="#333461"/>
<path opacity="0.858" fill-rule="evenodd" clip-rule="evenodd" d="M6.60723 29.4639C6.42671 31.0693 6.36467 32.6907 6.42111 34.3278C6.29721 33.5509 6.23515 32.7401 6.23499 31.8958C6.23646 31.0125 6.36052 30.2019 6.60723 29.4639Z" fill="#333461"/>
<path opacity="0.337" fill-rule="evenodd" clip-rule="evenodd" d="M76.9605 29.6514C77.3611 31.0374 77.2991 32.4405 76.7744 33.8606C76.8364 33.9228 76.8986 33.9853 76.9605 34.0476C76.7281 34.418 76.48 34.7609 76.2161 35.0765C76.8639 33.3964 77.1122 31.6504 76.9605 29.8384C76.9605 29.7761 76.9605 29.7137 76.9605 29.6514Z" fill="#333461"/>
<path opacity="0.067" fill-rule="evenodd" clip-rule="evenodd" d="M84.2192 30.5869C84.5449 30.8037 84.7311 31.1156 84.7776 31.5223C84.4519 31.3055 84.2658 30.9936 84.2192 30.5869Z" fill="#333461"/>
<path opacity="0.01" fill-rule="evenodd" clip-rule="evenodd" d="M78.4495 30.5869C78.7864 31.0817 78.9725 31.643 79.0079 32.2706C78.671 31.7758 78.4849 31.2146 78.4495 30.5869Z" fill="#333461"/>
<path opacity="0.506" fill-rule="evenodd" clip-rule="evenodd" d="M95.5726 30.7734C95.5862 31.0591 95.462 31.2462 95.2003 31.3347C95.1868 31.049 95.3109 30.8619 95.5726 30.7734Z" fill="#333461"/>
<path opacity="0.718" fill-rule="evenodd" clip-rule="evenodd" d="M20.7523 30.9609C20.8231 31.3721 20.6989 31.684 20.3801 31.8963C20.3619 31.5122 20.486 31.2004 20.7523 30.9609Z" fill="#333461"/>
<path opacity="0.027" fill-rule="evenodd" clip-rule="evenodd" d="M52.3928 30.2129C52.6857 30.5126 52.8099 30.8867 52.765 31.3353C52.8212 31.8141 52.759 32.2507 52.5789 32.6449C52.6027 31.8253 52.5407 31.0145 52.3928 30.2129Z" fill="#333461"/>
<path opacity="0.01" fill-rule="evenodd" clip-rule="evenodd" d="M84.7776 31.5225C85.0921 31.5891 85.2783 31.7761 85.3359 32.0837C85.0214 32.0171 84.8353 31.83 84.7776 31.5225Z" fill="#333461"/>
<path opacity="0.01" fill-rule="evenodd" clip-rule="evenodd" d="M114.929 31.8965C114.929 32.1459 114.805 32.2706 114.557 32.2706C114.619 32.0836 114.743 31.9588 114.929 31.8965Z" fill="#333461"/>
<path opacity="0.523" fill-rule="evenodd" clip-rule="evenodd" d="M46.4369 32.6442C44.8396 32.4627 43.2265 32.4004 41.5978 32.4571C41.6614 32.3003 41.7854 32.2379 41.97 32.27C43.4013 32.1576 44.8281 32.1264 46.2508 32.1765C46.3907 32.302 46.4529 32.4579 46.4369 32.6442Z" fill="#333461"/>
<path opacity="0.975" fill-rule="evenodd" clip-rule="evenodd" d="M57.418 30.0254C57.5421 30.2125 57.6661 30.3995 57.7902 30.5866C58.0383 31.3972 58.0383 32.208 57.7902 33.0186C57.5736 33.6754 57.3874 34.3612 57.2318 35.0764C57.2021 35.3856 57.0781 35.635 56.8596 35.8247C56.7355 35.9495 56.6115 36.0741 56.4874 36.1989C56.6227 35.2816 56.9019 34.4086 57.3249 33.5798C57.418 32.3966 57.4489 31.2118 57.418 30.0254Z" fill="#333461"/>
<path opacity="0.944" fill-rule="evenodd" clip-rule="evenodd" d="M41.5978 32.4578C43.2265 32.4011 44.8396 32.4634 46.4369 32.6448C46.3731 33.0158 46.4972 33.2654 46.8092 33.3931C46.993 33.6354 47.1792 33.8848 47.3675 34.1414C47.514 34.4415 47.7621 34.5663 48.112 34.5156C48.1898 34.6506 48.3138 34.7442 48.4842 34.7962C49.1016 34.8893 49.7219 34.9206 50.3454 34.8897C50.0097 35.0136 49.6374 35.0759 49.2287 35.0768C48.4573 35.0398 47.7128 34.915 46.9953 34.7026C46.9953 34.8897 46.9953 35.0768 46.9953 35.2639C46.6517 35.3159 46.4034 35.1911 46.2508 34.8897C46.4762 34.6615 46.4762 34.4432 46.2508 34.235C46.4012 34.1773 46.5253 34.0838 46.623 33.9543C46.2065 33.6255 46.0204 33.1888 46.0647 32.6448C44.5757 32.6448 43.0868 32.6448 41.5978 32.6448C41.5978 32.8319 41.5978 33.019 41.5978 33.2061C41.9306 33.1527 42.2408 33.215 42.5284 33.3931C42.3749 33.5589 42.1887 33.6212 41.97 33.5802C41.9658 33.9731 42.0899 34.316 42.3423 34.6091C42.2217 34.8785 42.1597 35.1591 42.1562 35.4509C41.5503 34.5154 41.3642 33.5175 41.5978 32.4578Z" fill="#333461"/>
<path opacity="0.98" fill-rule="evenodd" clip-rule="evenodd" d="M114.371 32.4579C114.229 32.7876 113.981 32.9746 113.626 33.0192C113.831 32.8514 113.831 32.6955 113.626 32.5515C113.867 32.4598 114.115 32.4286 114.371 32.4579Z" fill="#333461"/>
<path opacity="0.502" fill-rule="evenodd" clip-rule="evenodd" d="M41.97 32.2705C41.7854 32.2383 41.6614 32.3008 41.5978 32.4576C41.3642 33.5174 41.5503 34.5152 42.1561 35.4508C42.2181 35.7002 42.2803 35.9497 42.3423 36.1991C42.0378 35.9654 41.8206 35.6536 41.6908 35.2637C41.2991 34.244 41.144 33.2151 41.2255 32.177C41.517 32.0339 41.7651 32.0651 41.97 32.2705Z" fill="#333461"/>
<path opacity="0.224" fill-rule="evenodd" clip-rule="evenodd" d="M79.0079 32.2705C79.459 32.7397 79.7691 33.3009 79.9385 33.9542C79.4873 33.485 79.1772 32.9238 79.0079 32.2705Z" fill="#333461"/>
<path opacity="0.012" fill-rule="evenodd" clip-rule="evenodd" d="M85.7082 32.457C86.0302 32.5554 86.2785 32.7425 86.4527 33.0183C86.0559 33.0082 85.8078 32.8211 85.7082 32.457Z" fill="#333461"/>
<path opacity="0.839" fill-rule="evenodd" clip-rule="evenodd" d="M94.8281 31.709C94.642 32.2702 94.2697 32.6444 93.7114 32.8314C94.0216 32.395 94.3939 32.0208 94.8281 31.709Z" fill="#333461"/>
<path opacity="0.459" fill-rule="evenodd" clip-rule="evenodd" d="M105.809 32.457C105.933 32.457 106.057 32.457 106.181 32.457C106.243 32.5818 106.306 32.7064 106.368 32.8312C106.083 32.8448 105.897 32.7201 105.809 32.457Z" fill="#333461"/>
<path opacity="0.957" fill-rule="evenodd" clip-rule="evenodd" d="M52.765 31.335C52.9768 31.8595 53.0079 32.4207 52.858 33.0186C52.7795 33.3789 52.5623 33.566 52.2066 33.5799C52.2797 33.2461 52.4037 32.9345 52.5788 32.6445C52.759 32.2503 52.8212 31.8137 52.765 31.335Z" fill="#333461"/>
<path opacity="0.082" fill-rule="evenodd" clip-rule="evenodd" d="M60.7682 28.5293C60.1337 30.9102 60.3198 33.2174 61.3265 35.4511C60.7948 34.8812 60.4536 34.1952 60.3029 33.3932C59.8541 31.6881 60.0092 30.0667 60.7682 28.5293Z" fill="#333461"/>
<path opacity="0.482" fill-rule="evenodd" clip-rule="evenodd" d="M106.367 32.8321C106.652 32.8184 106.838 32.9432 106.926 33.2062C106.642 33.2199 106.456 33.0951 106.367 32.8321Z" fill="#333461"/>
<path opacity="0.012" fill-rule="evenodd" clip-rule="evenodd" d="M38.0615 32.832C38.3803 33.0444 38.5045 33.3562 38.4338 33.7674C38.3096 33.6426 38.1857 33.518 38.0615 33.3933C38.0615 33.2062 38.0615 33.0191 38.0615 32.832Z" fill="#333461"/>
<path opacity="0.773" fill-rule="evenodd" clip-rule="evenodd" d="M46.4369 32.6445C46.6554 32.8342 46.7794 33.0836 46.8092 33.3928C46.4972 33.2651 46.3731 33.0155 46.4369 32.6445Z" fill="#333461"/>
<path opacity="0.22" fill-rule="evenodd" clip-rule="evenodd" d="M65.6073 32.832C65.869 32.9205 65.9931 33.1076 65.9795 33.3933C65.7178 33.3048 65.5937 33.1177 65.6073 32.832Z" fill="#333461"/>
<path opacity="0.816" fill-rule="evenodd" clip-rule="evenodd" d="M71.9353 32.2705C72.0226 32.8117 71.8365 33.1859 71.377 33.393C71.4685 32.9591 71.6546 32.585 71.9353 32.2705Z" fill="#333461"/>
<path opacity="0.984" fill-rule="evenodd" clip-rule="evenodd" d="M76.7744 29.8389C76.8364 29.8389 76.8986 29.8389 76.9606 29.8389C77.1122 31.6509 76.864 33.3968 76.2161 35.077C75.8762 35.3851 75.6279 35.7592 75.4716 36.1994C75.2235 36.3865 74.9752 36.5736 74.7271 36.7606C74.8252 36.2497 74.9802 35.7508 75.1924 35.264C75.2695 35.3495 75.3625 35.412 75.4716 35.4511C76.5623 33.75 76.9965 31.8793 76.7744 29.8389Z" fill="#333461"/>
<path opacity="0.988" fill-rule="evenodd" clip-rule="evenodd" d="M93.7114 32.832C93.5543 33.2546 93.244 33.4417 92.7808 33.3933C93.0411 33.1332 93.3514 32.9461 93.7114 32.832Z" fill="#333461"/>
<path opacity="0.122" fill-rule="evenodd" clip-rule="evenodd" d="M106.926 33.2061C107.21 33.1924 107.396 33.3172 107.484 33.5802C107.2 33.5939 107.014 33.4691 106.926 33.2061Z" fill="#333461"/>
<path opacity="0.071" fill-rule="evenodd" clip-rule="evenodd" d="M57.7902 33.0186C57.8598 33.7944 57.6737 34.4804 57.2319 35.0764C57.3875 34.3612 57.5736 33.6754 57.7902 33.0186Z" fill="#333461"/>
<path opacity="0.824" fill-rule="evenodd" clip-rule="evenodd" d="M107.67 33.5801C108.888 33.8854 110.129 34.0102 111.393 33.9542C110.559 34.169 109.69 34.2002 108.787 34.0478C108.373 33.9419 108.001 33.7859 107.67 33.5801Z" fill="#333461"/>
<path opacity="0.22" fill-rule="evenodd" clip-rule="evenodd" d="M86.4527 33.0186C88.1067 33.8361 89.844 34.0854 91.6641 33.7669C90.2542 34.2634 88.8272 34.2321 87.3833 33.6733C86.9954 33.5429 86.6852 33.3246 86.4527 33.0186Z" fill="#333461"/>
<path opacity="0.012" fill-rule="evenodd" clip-rule="evenodd" d="M79.9385 33.9541C80.2002 34.0426 80.3243 34.2297 80.3107 34.5153C80.0491 34.4268 79.9249 34.2398 79.9385 33.9541Z" fill="#333461"/>
<path opacity="0.364" fill-rule="evenodd" clip-rule="evenodd" d="M34.7114 38.2569C34.2491 37.0441 33.7527 35.8281 33.2224 34.609C30.4306 34.4842 27.6388 34.4842 24.847 34.609C24.624 35.1073 24.3759 35.575 24.1025 36.012C24.1182 35.4832 24.2421 34.9842 24.4748 34.5154C27.4207 34.2982 30.3986 34.267 33.4085 34.4219C34.0471 35.6302 34.4813 36.9087 34.7114 38.2569Z" fill="#333461"/>
<path opacity="0.682" fill-rule="evenodd" clip-rule="evenodd" d="M38.4337 33.7666C38.7001 34.0061 38.8242 34.3179 38.806 34.702C38.4872 34.4896 38.363 34.1778 38.4337 33.7666Z" fill="#333461"/>
<path opacity="0.09" fill-rule="evenodd" clip-rule="evenodd" d="M47.3675 34.1416C47.6751 34.1715 47.9232 34.2961 48.112 34.5158C47.7621 34.5664 47.514 34.4417 47.3675 34.1416Z" fill="#333461"/>
<path opacity="0.314" fill-rule="evenodd" clip-rule="evenodd" d="M52.2066 33.5801C52.0637 34.1529 51.6914 34.4646 51.0899 34.5155C51.4547 34.2057 51.8269 33.8938 52.2066 33.5801Z" fill="#333461"/>
<path opacity="0.804" fill-rule="evenodd" clip-rule="evenodd" d="M71.0047 33.7666C70.7747 34.3505 70.3405 34.6 69.7019 34.5149C70.1045 34.2188 70.5387 33.9694 71.0047 33.7666Z" fill="#333461"/>
<path opacity="0.051" fill-rule="evenodd" clip-rule="evenodd" d="M66.5378 33.9541C67.5293 34.4424 68.584 34.6294 69.7019 34.5153C68.9926 34.7295 68.2481 34.7608 67.4684 34.6089C67.0806 34.4785 66.7703 34.2602 66.5378 33.9541Z" fill="#333461"/>
<path opacity="0.702" fill-rule="evenodd" clip-rule="evenodd" d="M20.3801 31.8965C19.9742 33.56 19.3539 35.1188 18.5189 36.5734C18.9969 34.9428 19.6172 33.3839 20.3801 31.8965Z" fill="#333461"/>
<path fill-rule="evenodd" clip-rule="evenodd" d="M38.0615 33.3926C38.1857 33.5174 38.3096 33.6419 38.4338 33.7667C38.363 34.1779 38.4872 34.4898 38.806 34.7021C39.0723 34.9416 39.1965 35.2534 39.1782 35.6375C39.2264 36.156 39.4126 36.5925 39.7366 36.947C39.7366 37.1964 39.7366 37.4459 39.7366 37.6953C39.5972 37.5024 39.4732 37.2841 39.3644 37.0405C38.5255 36.9214 38.4014 36.5785 38.9921 36.0116C38.8611 35.6309 38.737 35.2568 38.6199 34.8892C38.4338 34.8892 38.2476 34.8892 38.0615 34.8892C38.0615 34.3902 38.0615 33.8915 38.0615 33.3926Z" fill="#333461"/>
<path opacity="0.075" fill-rule="evenodd" clip-rule="evenodd" d="M48.112 34.5156C49.1046 34.765 50.0973 34.765 51.0899 34.5156C50.9012 34.7353 50.6531 34.8598 50.3454 34.8898C49.7219 34.9206 49.1016 34.8894 48.4842 34.7962C48.3138 34.7442 48.1898 34.6507 48.112 34.5156Z" fill="#333461"/>
<path opacity="0.01" fill-rule="evenodd" clip-rule="evenodd" d="M80.3107 34.5156C80.6387 34.6582 80.8248 34.9077 80.8691 35.2639C80.5411 35.1214 80.355 34.8718 80.3107 34.5156Z" fill="#333461"/>
<path opacity="0.608" fill-rule="evenodd" clip-rule="evenodd" d="M80.8691 35.2637C81.2413 35.2637 81.4274 35.4507 81.4274 35.8249C81.1793 35.7001 80.9932 35.513 80.8691 35.2637Z" fill="#333461"/>
<path opacity="0.999" fill-rule="evenodd" clip-rule="evenodd" d="M24.4748 34.5156C24.2421 34.9844 24.1182 35.4834 24.1026 36.0122C23.9877 36.033 23.8947 36.0953 23.8234 36.1993C23.6106 36.8123 23.4554 37.4359 23.3581 38.07C23.4022 38.3116 23.3402 38.4986 23.172 38.6313C21.4174 39.0544 19.6182 39.1169 17.7745 38.8183C17.7975 38.7048 17.8595 38.6425 17.9606 38.6313C19.5396 38.817 21.1527 38.8793 22.7997 38.8183C22.7681 38.571 22.83 38.3527 22.9858 38.1636C22.7182 38.1226 22.4701 38.0291 22.2414 37.883C22.5633 37.446 22.8425 37.446 23.0789 37.883C23.1122 37.3878 23.0811 36.8889 22.9858 36.3864C23.0169 36.137 23.0478 35.8874 23.0789 35.6381C23.4117 35.3567 23.5047 35.0449 23.3581 34.7027C23.7 34.7394 24.0722 34.6769 24.4748 34.5156Z" fill="#333461"/>
<path opacity="0.082" fill-rule="evenodd" clip-rule="evenodd" d="M76.2161 35.0762C76.1519 35.5809 75.9038 35.955 75.4716 36.1986C75.628 35.7584 75.8762 35.3843 76.2161 35.0762Z" fill="#333461"/>
<path fill-rule="evenodd" clip-rule="evenodd" d="M99.2949 34.7023C98.6785 35.696 97.872 36.5066 96.8754 37.1342C96.8754 36.8849 96.8754 36.6353 96.8754 36.3859C97.1309 36.4153 97.3792 36.3841 97.6198 36.2924C97.5348 36.215 97.4726 36.1214 97.4337 36.0118C97.6625 35.8657 97.9106 35.7722 98.1782 35.7312C98.0931 35.6537 98.031 35.5602 97.9921 35.4506C98.2134 35.2768 98.4615 35.2145 98.7366 35.2635C98.7068 34.9457 98.7377 34.6338 98.8296 34.3281C98.9072 34.5631 99.0623 34.6879 99.2949 34.7023Z" fill="#333461"/>
<path opacity="0.922" fill-rule="evenodd" clip-rule="evenodd" d="M106.74 35.2641C106.554 35.2641 106.368 35.2641 106.181 35.2641C106.221 35.5782 106.097 35.7653 105.809 35.8253C105.877 34.9908 106.187 34.8037 106.74 35.2641Z" fill="#333461"/>
<path fill-rule="evenodd" clip-rule="evenodd" d="M106.74 35.2637C107.4 35.3815 108.02 35.5686 108.601 35.8249C109.416 36.145 110.285 36.2696 111.207 36.199C111.207 36.5732 111.207 36.9473 111.207 37.3215C110.932 37.2725 110.683 37.3348 110.462 37.5086C110.62 37.8657 110.682 38.2398 110.648 38.631C110.68 38.8166 110.618 38.9412 110.462 39.0052C110.276 39.0052 110.09 39.0052 109.904 39.0052C109.904 39.2545 109.904 39.5041 109.904 39.7535C109.718 39.7535 109.532 39.7535 109.345 39.7535C109.345 40.1276 109.345 40.5018 109.345 40.8759C109.046 41.5402 108.611 42.1014 108.043 42.5596C107.794 42.5596 107.546 42.5596 107.298 42.5596C107.339 42.7794 107.277 42.9665 107.112 43.1208C106.206 43.33 105.896 43.8289 106.181 44.6174C105.871 44.6174 105.561 44.6174 105.251 44.6174C105.251 44.8668 105.251 45.1163 105.251 45.3657C105.003 45.3657 104.754 45.3657 104.506 45.3657C104.506 45.6151 104.506 45.8646 104.506 46.114C104.21 46.513 103.838 46.8247 103.39 47.0494C102.924 46.8013 102.428 46.7078 101.901 46.7688C102.064 47.0224 102.127 47.3031 102.087 47.6106C101.839 47.6106 101.59 47.6106 101.342 47.6106C101.355 47.8836 101.293 48.1329 101.156 48.3589C100.864 48.1769 100.554 48.1456 100.226 48.2654C99.7344 48.5563 99.238 48.8369 98.7366 49.1072C98.6655 48.2811 98.4794 47.5328 98.1782 46.8623C97.9921 46.1138 97.806 45.3655 97.6199 44.6174C97.5949 44.2822 97.6569 43.9705 97.806 43.682C97.9718 43.5679 98.1579 43.5056 98.3643 43.495C98.6486 43.5086 98.8347 43.3838 98.9227 43.1208C99.1831 42.8608 99.4934 42.6737 99.8533 42.5596C100.138 42.5732 100.324 42.4485 100.412 42.1854C100.83 42.0769 101.14 41.8276 101.342 41.4371C101.528 41.1253 101.776 40.8759 102.087 40.6888C102.521 40.6265 102.769 40.377 102.831 39.9405C103.017 39.6287 103.265 39.3793 103.576 39.1922C103.964 38.9893 104.212 38.6776 104.32 38.2569C104.582 38.1684 104.706 37.9813 104.692 37.6956C104.954 37.6072 105.078 37.4201 105.065 37.1344C105.094 36.8252 105.218 36.5758 105.437 36.3861C105.699 36.2976 105.823 36.1106 105.809 35.8249C106.097 35.7648 106.221 35.5778 106.181 35.2637C106.368 35.2637 106.554 35.2637 106.74 35.2637Z" fill="#333461"/>
<path opacity="0.059" fill-rule="evenodd" clip-rule="evenodd" d="M111.579 35.8248C111.728 35.5657 111.852 35.5969 111.951 35.9183C111.938 36.0614 111.876 36.155 111.765 36.1989C111.797 36.0134 111.735 35.8888 111.579 35.8248Z" fill="#333461"/>
<path opacity="0.482" fill-rule="evenodd" clip-rule="evenodd" d="M61.5126 35.8252C61.8748 35.9253 62.0609 36.1747 62.071 36.5735C61.7967 36.3984 61.6105 36.1488 61.5126 35.8252Z" fill="#333461"/>
<path opacity="0.635" fill-rule="evenodd" clip-rule="evenodd" d="M81.4274 35.8252C82.0394 36.1095 82.5356 36.546 82.9164 37.1347C82.3089 36.8365 81.8125 36.4001 81.4274 35.8252Z" fill="#333461"/>
<path opacity="0.192" fill-rule="evenodd" clip-rule="evenodd" d="M105.809 35.8252C105.823 36.1109 105.699 36.2979 105.437 36.3864C105.423 36.1008 105.547 35.9137 105.809 35.8252Z" fill="#333461"/>
<path opacity="0.608" fill-rule="evenodd" clip-rule="evenodd" d="M62.071 36.5732C62.741 36.9343 63.2994 37.4332 63.7461 38.0698C63.076 37.7088 62.5177 37.2099 62.071 36.5732Z" fill="#333461"/>
<path opacity="0.227" fill-rule="evenodd" clip-rule="evenodd" d="M39.1782 35.6377C39.5023 35.9922 39.6884 36.4286 39.7366 36.9472C39.4125 36.5927 39.2264 36.1563 39.1782 35.6377Z" fill="#333461"/>
<path opacity="0.01" fill-rule="evenodd" clip-rule="evenodd" d="M42.3423 36.1992C42.5284 36.2615 42.6525 36.3863 42.7145 36.5734C42.7765 36.6981 42.8387 36.8227 42.9006 36.9475C42.5385 36.8474 42.3523 36.5981 42.3423 36.1992Z" fill="#333461"/>
<path opacity="0.02" fill-rule="evenodd" clip-rule="evenodd" d="M56.8596 35.8252C56.3355 37.1214 55.4049 37.9943 54.0678 38.4442C54.9861 37.8336 55.7926 37.0853 56.4874 36.1993C56.6115 36.0746 56.7355 35.95 56.8596 35.8252Z" fill="#333461"/>
<path opacity="0.01" fill-rule="evenodd" clip-rule="evenodd" d="M24.1025 36.0117C24.05 36.7937 23.8019 37.4797 23.358 38.0695C23.4554 37.4354 23.6106 36.8118 23.8233 36.1988C23.8946 36.0948 23.9877 36.0325 24.1025 36.0117Z" fill="#333461"/>
<path opacity="0.02" fill-rule="evenodd" clip-rule="evenodd" d="M75.4716 36.1992C75.2855 37.0098 74.7891 37.5087 73.9827 37.6958C74.2308 37.384 74.479 37.0723 74.7271 36.7604C74.9752 36.5734 75.2235 36.3863 75.4716 36.1992Z" fill="#333461"/>
<path opacity="0.01" fill-rule="evenodd" clip-rule="evenodd" d="M43.0867 37.1348C43.2729 37.1971 43.397 37.3218 43.459 37.5089C43.2109 37.5089 43.0867 37.3841 43.0867 37.1348Z" fill="#333461"/>
<path opacity="0.314" fill-rule="evenodd" clip-rule="evenodd" d="M82.9164 37.1348C83.2006 37.1211 83.3867 37.2459 83.4747 37.5089C83.1905 37.5226 83.0044 37.3978 82.9164 37.1348Z" fill="#333461"/>
<path fill-rule="evenodd" clip-rule="evenodd" d="M108.601 35.8252C109.594 35.8252 110.586 35.8252 111.579 35.8252C111.735 35.8892 111.797 36.0138 111.765 36.1993C111.604 36.8369 111.387 37.4606 111.114 38.0701C111.043 38.3399 110.888 38.5269 110.648 38.6313C110.682 38.2401 110.62 37.866 110.462 37.5089C110.683 37.3351 110.932 37.2728 111.207 37.3218C111.207 36.9476 111.207 36.5735 111.207 36.1993C110.285 36.2699 109.416 36.1453 108.601 35.8252Z" fill="#333461"/>
<path opacity="0.404" fill-rule="evenodd" clip-rule="evenodd" d="M105.065 37.1348C105.078 37.4204 104.954 37.6075 104.692 37.696C104.679 37.4103 104.803 37.2233 105.065 37.1348Z" fill="#333461"/>
<path opacity="0.992" fill-rule="evenodd" clip-rule="evenodd" d="M42.7145 36.5732C43.6096 37.242 44.5402 37.8656 45.5063 38.444C45.2582 38.444 45.01 38.444 44.7619 38.444C44.6738 38.181 44.4877 38.0562 44.2035 38.0698C43.8491 38.0253 43.6008 37.8382 43.459 37.5086C43.397 37.3215 43.2729 37.1968 43.0868 37.1345C42.9626 37.1345 42.9007 37.0722 42.9007 36.9474C42.8387 36.8226 42.7765 36.698 42.7145 36.5732Z" fill="#333461"/>
<path opacity="0.224" fill-rule="evenodd" clip-rule="evenodd" d="M83.4748 37.5088C83.759 37.4952 83.9451 37.6199 84.0332 37.883C83.7489 37.8966 83.5628 37.7719 83.4748 37.5088Z" fill="#333461"/>
<path fill-rule="evenodd" clip-rule="evenodd" d="M96.8754 37.1345C93.759 39.4258 90.3469 40.0493 86.6388 39.0052C86.2666 38.7558 85.8943 38.5063 85.5221 38.2569C85.85 38.2837 86.1603 38.2212 86.4527 38.0698C86.7823 38.1699 86.8443 38.3259 86.6388 38.5375C88.8609 39.1089 91.0943 39.1401 93.3391 38.6311C93.2891 38.2702 93.3821 37.9585 93.6183 37.6957C94.2325 37.7299 94.8218 37.5429 95.3864 37.1345C95.577 37.3876 95.8251 37.5124 96.1309 37.5086C96.157 37.2048 96.0328 36.9867 95.7587 36.8539C95.8564 36.7244 95.9805 36.6309 96.1309 36.5732C96.3299 36.837 96.5782 37.0241 96.8754 37.1345Z" fill="#333461"/>
<path opacity="0.024" fill-rule="evenodd" clip-rule="evenodd" d="M73.9827 37.6953C73.8946 37.9584 73.7085 38.0832 73.4243 38.0695C73.5124 37.8065 73.6985 37.6817 73.9827 37.6953Z" fill="#333461"/>
<path opacity="0.765" fill-rule="evenodd" clip-rule="evenodd" d="M39.7366 36.9473C40.0654 37.376 40.2516 37.8748 40.2949 38.4439C40.233 38.4439 40.1708 38.4439 40.1088 38.4439C39.9041 38.2371 39.7799 37.9878 39.7366 37.6956C39.7366 37.4462 39.7366 37.1966 39.7366 36.9473Z" fill="#333461"/>
<path opacity="0.486" fill-rule="evenodd" clip-rule="evenodd" d="M104.692 37.6953C104.706 37.981 104.582 38.1681 104.32 38.2565C104.307 37.9709 104.431 37.7838 104.692 37.6953Z" fill="#333461"/>
<path opacity="0.227" fill-rule="evenodd" clip-rule="evenodd" d="M44.2035 38.0694C44.4877 38.0557 44.6738 38.1805 44.7619 38.4435C44.4776 38.4572 44.2915 38.3324 44.2035 38.0694Z" fill="#333461"/>
<path opacity="0.82" fill-rule="evenodd" clip-rule="evenodd" d="M84.7776 38.2568C85.0257 38.2568 85.274 38.2568 85.5221 38.2568C85.8943 38.5062 86.2665 38.7558 86.6388 39.0051C85.9321 38.9355 85.3118 38.686 84.7776 38.2568Z" fill="#333461"/>
<path opacity="0.804" fill-rule="evenodd" clip-rule="evenodd" d="M44.7618 38.4443C45.0099 38.4443 45.2582 38.4443 45.5063 38.4443C46.1732 38.7923 46.8555 39.1041 47.5536 39.3797C46.5203 39.324 45.5897 39.0123 44.7618 38.4443Z" fill="#333461"/>
<path opacity="0.212" fill-rule="evenodd" clip-rule="evenodd" d="M73.4243 38.0693C72.913 38.5757 72.2927 38.8874 71.5631 39.0047C72.1243 38.598 72.7448 38.2862 73.4243 38.0693Z" fill="#333461"/>
<path opacity="0.875" fill-rule="evenodd" clip-rule="evenodd" d="M40.1089 38.4443C40.1708 38.4443 40.233 38.4443 40.295 38.4443C40.295 38.6314 40.295 38.8185 40.295 39.0056C38.524 39.0667 36.787 39.0044 35.0836 38.8185C36.8322 38.9378 38.5073 38.8131 40.1089 38.4443Z" fill="#333461"/>
<path opacity="0.69" fill-rule="evenodd" clip-rule="evenodd" d="M64.4905 38.4443C65.3666 38.6052 66.1732 38.9171 66.9101 39.3797C65.9925 39.3223 65.1861 39.0106 64.4905 38.4443Z" fill="#333461"/>
<path opacity="0.49" fill-rule="evenodd" clip-rule="evenodd" d="M104.32 38.2568C104.212 38.6776 103.964 38.9892 103.576 39.1922C103.684 38.7715 103.932 38.4598 104.32 38.2568Z" fill="#333461"/>
<path opacity="0.11" fill-rule="evenodd" clip-rule="evenodd" d="M6.60723 34.3287C6.60723 34.2664 6.60723 34.2039 6.60723 34.1416C9.39903 34.1416 12.1908 34.1416 14.9826 34.1416C14.9826 35.8253 14.9826 37.5089 14.9826 39.1926C10.6569 39.1314 6.34512 39.1937 2.04729 39.3797C1.80489 39.2703 1.58775 39.1457 1.39587 39.0055C5.86275 39.0055 10.3296 39.0055 14.7965 39.0055C14.7965 37.4467 14.7965 35.8876 14.7965 34.3287C12.0667 34.3287 9.33699 34.3287 6.60723 34.3287Z" fill="#333461"/>
<path opacity="0.31" fill-rule="evenodd" clip-rule="evenodd" d="M18.5189 36.5732C18.3887 37.2723 18.2026 37.9583 17.9606 38.6311C17.8595 38.6423 17.7975 38.7046 17.7745 38.8181C19.6182 39.1167 21.4174 39.0542 23.1719 38.6311C23.1719 38.8181 23.1719 39.0052 23.1719 39.1923C21.2488 39.1923 19.3254 39.1923 17.4022 39.1923C17.6687 38.261 18.0409 37.3881 18.5189 36.5732Z" fill="#333461"/>
<path opacity="0.315" fill-rule="evenodd" clip-rule="evenodd" d="M40.2949 38.4443C40.4608 38.5867 40.5849 38.7738 40.6672 39.0056C38.7479 39.1924 36.8247 39.2547 34.8975 39.1926C34.8975 39.0056 34.8975 38.8185 34.8975 38.6314C35.0216 38.6314 35.0836 38.6937 35.0836 38.8185C36.787 39.0044 38.524 39.0667 40.2949 39.0056C40.2949 38.8185 40.2949 38.6314 40.2949 38.4443Z" fill="#333461"/>
<path opacity="0.067" fill-rule="evenodd" clip-rule="evenodd" d="M53.3233 38.8184C52.716 39.2052 52.0335 39.3923 51.276 39.3796C51.9157 39.1093 52.598 38.9222 53.3233 38.8184Z" fill="#333461"/>
<path opacity="0.205" fill-rule="evenodd" clip-rule="evenodd" d="M71.5631 39.0049C70.0955 39.7575 68.6066 39.8823 67.0962 39.379C68.6021 39.4279 70.091 39.3031 71.5631 39.0049Z" fill="#333461"/>
<path opacity="0.988" fill-rule="evenodd" clip-rule="evenodd" d="M110.462 39.0049C110.183 39.692 109.811 40.3155 109.345 40.8756C109.345 40.5015 109.345 40.1273 109.345 39.7532C109.532 39.7532 109.718 39.7532 109.904 39.7532C109.904 39.5038 109.904 39.2543 109.904 39.0049C110.09 39.0049 110.276 39.0049 110.462 39.0049Z" fill="#333461"/>
<path opacity="0.682" fill-rule="evenodd" clip-rule="evenodd" d="M102.831 39.9404C102.769 40.3769 102.521 40.6264 102.087 40.6887C102.273 40.3769 102.521 40.1275 102.831 39.9404Z" fill="#333461"/>
<path opacity="0.016" fill-rule="evenodd" clip-rule="evenodd" d="M90.9196 41.4371C91.4131 41.4202 91.8474 41.5448 92.2224 41.8112C91.7288 41.828 91.2946 41.7034 90.9196 41.4371Z" fill="#333461"/>
<path opacity="0.851" fill-rule="evenodd" clip-rule="evenodd" d="M88.8723 41.4375C88.2581 41.8382 87.5756 42.0876 86.825 42.1858C87.4131 41.7181 88.0956 41.4687 88.8723 41.4375Z" fill="#333461"/>
<path fill-rule="evenodd" clip-rule="evenodd" d="M90.9195 41.4374C91.2946 41.7038 91.7288 41.8284 92.2224 41.8116C92.53 41.8415 92.7781 41.9661 92.9669 42.1857C93.1176 42.7742 93.4899 43.0861 94.0836 43.1211C94.0836 43.3082 94.0836 43.4952 94.0836 43.6823C93.828 43.6529 93.5798 43.6842 93.3391 43.7758C93.6371 43.8269 93.9163 43.9205 94.1766 44.0565C94.5165 43.8056 94.7337 43.8991 94.8281 44.3371C94.4579 44.6383 94.3959 44.9812 94.6419 45.366C94.4875 46.1085 94.3635 46.8568 94.2697 47.6109C94.4558 47.6109 94.6419 47.6109 94.8281 47.6109C94.8697 47.183 94.9939 46.7778 95.2003 46.3949C95.1253 46.1193 95.0011 45.87 94.8281 45.6466C95.1322 45.5542 95.4424 45.5231 95.7587 45.5531C95.7088 45.8522 95.7709 46.1016 95.9448 46.3014C96.0689 46.4884 96.1929 46.6755 96.317 46.8626C96.6323 48.2351 96.4462 49.5447 95.7587 50.7912C95.4836 50.7421 95.2355 50.8044 95.0142 50.9782C94.6732 51.4914 94.4871 52.0526 94.4558 52.6619C94.0642 52.606 93.692 52.6683 93.3391 52.849C93.4558 53.0205 93.518 53.2076 93.5252 53.4102C93.0435 53.8077 92.4852 54.0571 91.8501 54.1585C90.7945 54.2071 89.7397 54.2694 88.6861 54.3456C88.0719 53.9449 87.3894 53.6955 86.6388 53.5973C86.5507 53.3342 86.3646 53.2095 86.0804 53.2231C85.6462 52.6619 85.1498 52.163 84.5915 51.7265C84.4837 51.1969 84.2356 50.7605 83.847 50.417C83.847 50.1676 83.847 49.9181 83.847 49.6687C83.847 48.4215 83.847 47.1744 83.847 45.9272C83.9471 45.6247 84.0091 45.3129 84.0331 44.9918C84.2948 44.9033 84.4189 44.7163 84.4053 44.4306C84.8502 44.1704 85.1604 43.7962 85.3359 43.3082C85.895 42.9928 86.3912 42.6186 86.8249 42.1857C87.5755 42.0875 88.258 41.8381 88.8722 41.4374C89.5735 41.1966 90.256 41.1966 90.9195 41.4374Z" fill="#333461"/>
<path opacity="0.859" fill-rule="evenodd" clip-rule="evenodd" d="M101.342 41.4375C101.14 41.8279 100.83 42.0773 100.412 42.1858C100.614 41.7954 100.924 41.546 101.342 41.4375Z" fill="#333461"/>
<path opacity="0.71" fill-rule="evenodd" clip-rule="evenodd" d="M100.412 42.1856C100.324 42.4486 100.138 42.5734 99.8533 42.5597C99.9414 42.2967 100.127 42.1719 100.412 42.1856Z" fill="#333461"/>
<path opacity="0.459" fill-rule="evenodd" clip-rule="evenodd" d="M86.8249 42.1855C86.3912 42.6184 85.895 42.9926 85.3359 43.308C85.6734 42.7193 86.1698 42.3451 86.8249 42.1855Z" fill="#333461"/>
<path opacity="0.729" fill-rule="evenodd" clip-rule="evenodd" d="M98.9227 43.1211C98.8347 43.3842 98.6486 43.5089 98.3644 43.4953C98.4524 43.2323 98.6385 43.1075 98.9227 43.1211Z" fill="#333461"/>
<path fill-rule="evenodd" clip-rule="evenodd" d="M108.043 42.5596C107.558 43.3586 106.938 44.0444 106.181 44.6174C105.896 43.8289 106.206 43.3299 107.112 43.1208C107.277 42.9665 107.339 42.7794 107.298 42.5596C107.546 42.5596 107.794 42.5596 108.043 42.5596Z" fill="#333461"/>
<path opacity="0.678" fill-rule="evenodd" clip-rule="evenodd" d="M85.336 43.3076C85.1605 43.7957 84.8502 44.1698 84.4054 44.4301C84.5865 43.9371 84.8968 43.563 85.336 43.3076Z" fill="#333461"/>
<path opacity="0.808" fill-rule="evenodd" clip-rule="evenodd" d="M97.806 43.6816C97.6569 43.9701 97.5949 44.2818 97.6199 44.617C97.066 44.1733 97.128 43.8614 97.806 43.6816Z" fill="#333461"/>
<path fill-rule="evenodd" clip-rule="evenodd" d="M92.9669 42.1855C94.4164 42.8946 95.4089 44.017 95.9448 45.5529C95.9448 45.8023 95.9448 46.0518 95.9448 46.3012C95.7709 46.1014 95.7088 45.852 95.7587 45.5529C95.4424 45.523 95.1322 45.554 94.8281 45.6464C95.0011 45.8698 95.1253 46.1192 95.2003 46.3947C94.9939 46.7777 94.8697 47.1829 94.8281 47.6107C94.6419 47.6107 94.4558 47.6107 94.2697 47.6107C94.3635 46.8566 94.4875 46.1083 94.6419 45.3658C94.3959 44.981 94.4579 44.6381 94.8281 44.3369C94.7337 43.899 94.5165 43.8054 94.1766 44.0563C93.9163 43.9203 93.6371 43.8268 93.3391 43.7757C93.5798 43.684 93.828 43.6528 94.0836 43.6821C94.0836 43.4951 94.0836 43.308 94.0836 43.1209C93.4899 43.0859 93.1176 42.7741 92.9669 42.1855Z" fill="#333461"/>
<path opacity="0.157" fill-rule="evenodd" clip-rule="evenodd" d="M84.4053 44.4307C84.4189 44.7163 84.2948 44.9034 84.0331 44.9919C84.0195 44.7062 84.1437 44.5192 84.4053 44.4307Z" fill="#333461"/>
<path opacity="0.98" fill-rule="evenodd" clip-rule="evenodd" d="M106.181 44.6172C105.738 45.2497 105.18 45.7484 104.506 46.1138C104.506 45.8644 104.506 45.6149 104.506 45.3655C104.754 45.3655 105.003 45.3655 105.251 45.3655C105.251 45.1161 105.251 44.8666 105.251 44.6172C105.561 44.6172 105.871 44.6172 106.181 44.6172Z" fill="#333461"/>
<path opacity="0.067" fill-rule="evenodd" clip-rule="evenodd" d="M84.0331 44.9912C84.0091 45.3122 83.9471 45.6241 83.847 45.9266C83.785 45.9266 83.7228 45.9266 83.6609 45.9266C83.6426 45.5425 83.7668 45.2307 84.0331 44.9912Z" fill="#333461"/>
<path opacity="0.529" fill-rule="evenodd" clip-rule="evenodd" d="M95.9448 45.5527C96.2098 45.9297 96.3338 46.3661 96.317 46.8623C96.1929 46.6752 96.0689 46.4881 95.9448 46.301C95.9448 46.0517 95.9448 45.8021 95.9448 45.5527Z" fill="#333461"/>
<path opacity="0.983" fill-rule="evenodd" clip-rule="evenodd" d="M83.6609 45.9268C83.7229 45.9268 83.785 45.9268 83.847 45.9268C83.847 47.174 83.847 48.421 83.847 49.6683C83.7229 49.4189 83.5989 49.1693 83.4748 48.92C83.2222 47.9077 83.2842 46.9098 83.6609 45.9268Z" fill="#333461"/>
<path opacity="0.992" fill-rule="evenodd" clip-rule="evenodd" d="M103.39 47.0496C102.708 47.58 101.963 48.0164 101.156 48.3592C101.293 48.1332 101.355 47.8838 101.342 47.6109C101.59 47.6109 101.839 47.6109 102.087 47.6109C102.127 47.3033 102.064 47.0227 101.901 46.769C102.428 46.708 102.924 46.8016 103.39 47.0496Z" fill="#333461"/>
<path opacity="0.945" fill-rule="evenodd" clip-rule="evenodd" d="M98.1782 46.8623C98.4794 47.5328 98.6655 48.2811 98.7366 49.1072C99.238 48.8369 99.7344 48.5563 100.226 48.2654C100.554 48.1456 100.864 48.1769 101.156 48.3589C100.304 48.943 99.3729 49.3796 98.3644 49.6684C98.1961 49.5358 98.1341 49.3487 98.1782 49.1072C98.1782 48.3589 98.1782 47.6106 98.1782 46.8623Z" fill="#333461"/>
<path opacity="0.086" fill-rule="evenodd" clip-rule="evenodd" d="M83.4747 48.9199C83.5989 49.1693 83.7228 49.4189 83.847 49.6682C83.847 49.9176 83.847 50.1671 83.847 50.4165C83.5604 49.9791 83.4364 49.4802 83.4747 48.9199Z" fill="#333461"/>
<path opacity="0.024" fill-rule="evenodd" clip-rule="evenodd" d="M98.1782 49.1074C98.1341 49.3489 98.1961 49.536 98.3644 49.6686C98.1835 49.9027 98.0593 49.8404 97.9921 49.4816C98.0001 49.3102 98.0621 49.1854 98.1782 49.1074Z" fill="#333461"/>
<path opacity="0.275" fill-rule="evenodd" clip-rule="evenodd" d="M83.847 50.417C84.2356 50.7605 84.4837 51.1969 84.5915 51.7265C84.2028 51.383 83.9547 50.9466 83.847 50.417Z" fill="#333461"/>
<path fill-rule="evenodd" clip-rule="evenodd" d="M95.7586 50.7906C95.4679 51.5187 95.0337 52.1422 94.4558 52.6613C94.4871 52.052 94.6732 51.4908 95.0142 50.9777C95.2355 50.8039 95.4836 50.7416 95.7586 50.7906Z" fill="#333461"/>
<path opacity="0.01" fill-rule="evenodd" clip-rule="evenodd" d="M84.5915 51.7266C85.1499 52.163 85.6462 52.6619 86.0805 53.2232C85.3979 52.9113 84.9018 52.4126 84.5915 51.7266Z" fill="#333461"/>
<path fill-rule="evenodd" clip-rule="evenodd" d="M94.4558 52.6614C94.1869 52.9538 93.8768 53.2032 93.5252 53.4097C93.518 53.2071 93.4558 53.0201 93.3391 52.8485C93.692 52.6678 94.0642 52.6055 94.4558 52.6614Z" fill="#333461"/>
<path opacity="0.302" fill-rule="evenodd" clip-rule="evenodd" d="M86.0804 53.2227C86.3646 53.209 86.5508 53.3338 86.6388 53.5968C86.3546 53.6105 86.1685 53.4857 86.0804 53.2227Z" fill="#333461"/>
<path opacity="0.859" fill-rule="evenodd" clip-rule="evenodd" d="M86.6388 53.5967C87.3894 53.6949 88.0719 53.9443 88.6861 54.345C87.9094 54.3137 87.2269 54.0644 86.6388 53.5967Z" fill="#333461"/>
<path opacity="0.247" fill-rule="evenodd" clip-rule="evenodd" d="M91.8501 54.1582C91.2512 54.4302 90.5998 54.555 89.8959 54.5324C89.4564 54.5316 89.0533 54.4693 88.6861 54.3453C89.7397 54.2691 90.7945 54.2068 91.8501 54.1582Z" fill="#333461"/>
</svg>
